<mxfile host="app.diagrams.net" agent="Mozilla/5.0 (Windows NT 10.0; Win64; x64) AppleWebKit/537.36 (KHTML, like Gecko) Chrome/130.0.0.0 YaBrowser/24.12.0.0 Safari/537.36" version="26.1.2" pages="3">
  <diagram name="1 поиск" id="gJKZP8efSuU_LmUlxey0">
    <mxGraphModel dx="3764" dy="2573" grid="1" gridSize="10" guides="1" tooltips="1" connect="1" arrows="1" fold="1" page="1" pageScale="1" pageWidth="1169" pageHeight="827" math="0" shadow="0">
      <root>
        <mxCell id="0" />
        <mxCell id="1" parent="0" />
        <mxCell id="nRD8glROoCP6xElaZEBb-2" style="edgeStyle=orthogonalEdgeStyle;rounded=0;orthogonalLoop=1;jettySize=auto;html=1;" edge="1" parent="1" source="nRD8glROoCP6xElaZEBb-1" target="nRD8glROoCP6xElaZEBb-3">
          <mxGeometry relative="1" as="geometry">
            <mxPoint x="275" y="80" as="targetPoint" />
          </mxGeometry>
        </mxCell>
        <mxCell id="nRD8glROoCP6xElaZEBb-1" value="void tabl_smesh(string str,string podstr,int&amp;amp; n,int a[2][26])" style="shape=process;whiteSpace=wrap;html=1;backgroundOutline=1;" vertex="1" parent="1">
          <mxGeometry x="80" y="20" width="390" height="20" as="geometry" />
        </mxCell>
        <mxCell id="nRD8glROoCP6xElaZEBb-5" style="edgeStyle=orthogonalEdgeStyle;rounded=0;orthogonalLoop=1;jettySize=auto;html=1;" edge="1" parent="1" source="nRD8glROoCP6xElaZEBb-3" target="nRD8glROoCP6xElaZEBb-6">
          <mxGeometry relative="1" as="geometry">
            <mxPoint x="275" y="130" as="targetPoint" />
          </mxGeometry>
        </mxCell>
        <mxCell id="nRD8glROoCP6xElaZEBb-3" value="bool flag;" style="rounded=0;whiteSpace=wrap;html=1;" vertex="1" parent="1">
          <mxGeometry x="247.5" y="80" width="55" height="20" as="geometry" />
        </mxCell>
        <mxCell id="nRD8glROoCP6xElaZEBb-4" value="{" style="text;html=1;align=center;verticalAlign=middle;resizable=0;points=[];autosize=1;strokeColor=none;fillColor=none;" vertex="1" parent="1">
          <mxGeometry x="247.5" y="40" width="30" height="30" as="geometry" />
        </mxCell>
        <mxCell id="nRD8glROoCP6xElaZEBb-7" style="edgeStyle=orthogonalEdgeStyle;rounded=0;orthogonalLoop=1;jettySize=auto;html=1;" edge="1" parent="1" source="nRD8glROoCP6xElaZEBb-6" target="nRD8glROoCP6xElaZEBb-8">
          <mxGeometry relative="1" as="geometry">
            <mxPoint x="275" y="200" as="targetPoint" />
          </mxGeometry>
        </mxCell>
        <mxCell id="nRD8glROoCP6xElaZEBb-6" value="bool flag1=true;" style="rounded=0;whiteSpace=wrap;html=1;" vertex="1" parent="1">
          <mxGeometry x="227.5" y="120" width="95" height="30" as="geometry" />
        </mxCell>
        <mxCell id="nRD8glROoCP6xElaZEBb-9" style="edgeStyle=orthogonalEdgeStyle;rounded=0;orthogonalLoop=1;jettySize=auto;html=1;" edge="1" parent="1" source="nRD8glROoCP6xElaZEBb-8" target="nRD8glROoCP6xElaZEBb-11">
          <mxGeometry relative="1" as="geometry">
            <mxPoint x="275" y="240" as="targetPoint" />
          </mxGeometry>
        </mxCell>
        <mxCell id="nRD8glROoCP6xElaZEBb-42" style="edgeStyle=orthogonalEdgeStyle;rounded=0;orthogonalLoop=1;jettySize=auto;html=1;" edge="1" parent="1" source="nRD8glROoCP6xElaZEBb-8" target="nRD8glROoCP6xElaZEBb-44">
          <mxGeometry relative="1" as="geometry">
            <mxPoint x="280" y="920" as="targetPoint" />
            <Array as="points">
              <mxPoint x="721" y="185" />
              <mxPoint x="721" y="880" />
            </Array>
          </mxGeometry>
        </mxCell>
        <mxCell id="nRD8glROoCP6xElaZEBb-8" value="for(int i=podstr.length()-2;i&amp;gt;=0;i--)" style="shape=hexagon;perimeter=hexagonPerimeter2;whiteSpace=wrap;html=1;fixedSize=1;" vertex="1" parent="1">
          <mxGeometry x="182.5" y="170" width="185" height="30" as="geometry" />
        </mxCell>
        <mxCell id="nRD8glROoCP6xElaZEBb-10" value="1" style="text;html=1;align=center;verticalAlign=middle;resizable=0;points=[];autosize=1;strokeColor=none;fillColor=none;" vertex="1" parent="1">
          <mxGeometry x="245" y="198" width="30" height="30" as="geometry" />
        </mxCell>
        <mxCell id="nRD8glROoCP6xElaZEBb-12" style="edgeStyle=orthogonalEdgeStyle;rounded=0;orthogonalLoop=1;jettySize=auto;html=1;" edge="1" parent="1" source="nRD8glROoCP6xElaZEBb-11" target="nRD8glROoCP6xElaZEBb-13">
          <mxGeometry relative="1" as="geometry">
            <mxPoint x="275" y="290" as="targetPoint" />
          </mxGeometry>
        </mxCell>
        <mxCell id="nRD8glROoCP6xElaZEBb-11" value="flag=true;" style="rounded=0;whiteSpace=wrap;html=1;" vertex="1" parent="1">
          <mxGeometry x="237.5" y="228" width="75" height="22" as="geometry" />
        </mxCell>
        <mxCell id="nRD8glROoCP6xElaZEBb-14" style="edgeStyle=orthogonalEdgeStyle;rounded=0;orthogonalLoop=1;jettySize=auto;html=1;" edge="1" parent="1" source="nRD8glROoCP6xElaZEBb-13" target="nRD8glROoCP6xElaZEBb-16">
          <mxGeometry relative="1" as="geometry">
            <mxPoint x="90" y="390" as="targetPoint" />
          </mxGeometry>
        </mxCell>
        <mxCell id="nRD8glROoCP6xElaZEBb-17" style="edgeStyle=orthogonalEdgeStyle;rounded=0;orthogonalLoop=1;jettySize=auto;html=1;" edge="1" parent="1" source="nRD8glROoCP6xElaZEBb-13">
          <mxGeometry relative="1" as="geometry">
            <mxPoint x="280" y="380" as="targetPoint" />
            <Array as="points">
              <mxPoint x="491" y="305" />
            </Array>
          </mxGeometry>
        </mxCell>
        <mxCell id="nRD8glROoCP6xElaZEBb-18" value="0" style="edgeLabel;html=1;align=center;verticalAlign=middle;resizable=0;points=[];" vertex="1" connectable="0" parent="nRD8glROoCP6xElaZEBb-17">
          <mxGeometry x="-0.5451" y="7" relative="1" as="geometry">
            <mxPoint x="-48" y="-24" as="offset" />
          </mxGeometry>
        </mxCell>
        <mxCell id="nRD8glROoCP6xElaZEBb-13" value="if(podstr[i]==podstr[podstr.length()-1])" style="rhombus;whiteSpace=wrap;html=1;" vertex="1" parent="1">
          <mxGeometry x="127.5" y="280" width="295" height="50" as="geometry" />
        </mxCell>
        <mxCell id="nRD8glROoCP6xElaZEBb-15" value="1" style="text;html=1;align=center;verticalAlign=middle;resizable=0;points=[];autosize=1;strokeColor=none;fillColor=none;" vertex="1" parent="1">
          <mxGeometry x="95" y="278" width="30" height="30" as="geometry" />
        </mxCell>
        <mxCell id="nRD8glROoCP6xElaZEBb-19" style="edgeStyle=orthogonalEdgeStyle;rounded=0;orthogonalLoop=1;jettySize=auto;html=1;" edge="1" parent="1" source="nRD8glROoCP6xElaZEBb-16">
          <mxGeometry relative="1" as="geometry">
            <mxPoint x="280" y="380" as="targetPoint" />
            <Array as="points">
              <mxPoint x="70" y="380" />
            </Array>
          </mxGeometry>
        </mxCell>
        <mxCell id="nRD8glROoCP6xElaZEBb-16" value="&amp;nbsp;flag1=false;" style="rounded=0;whiteSpace=wrap;html=1;" vertex="1" parent="1">
          <mxGeometry x="30" y="340" width="80" height="20" as="geometry" />
        </mxCell>
        <mxCell id="nRD8glROoCP6xElaZEBb-20" value="" style="endArrow=classic;html=1;rounded=0;" edge="1" parent="1" target="nRD8glROoCP6xElaZEBb-21">
          <mxGeometry width="50" height="50" relative="1" as="geometry">
            <mxPoint x="280" y="380" as="sourcePoint" />
            <mxPoint x="280" y="430" as="targetPoint" />
          </mxGeometry>
        </mxCell>
        <mxCell id="nRD8glROoCP6xElaZEBb-22" style="edgeStyle=orthogonalEdgeStyle;rounded=0;orthogonalLoop=1;jettySize=auto;html=1;" edge="1" parent="1" source="nRD8glROoCP6xElaZEBb-21" target="nRD8glROoCP6xElaZEBb-24">
          <mxGeometry relative="1" as="geometry">
            <mxPoint x="282.5" y="500" as="targetPoint" />
          </mxGeometry>
        </mxCell>
        <mxCell id="nRD8glROoCP6xElaZEBb-40" style="edgeStyle=orthogonalEdgeStyle;rounded=0;orthogonalLoop=1;jettySize=auto;html=1;" edge="1" parent="1" source="nRD8glROoCP6xElaZEBb-21">
          <mxGeometry relative="1" as="geometry">
            <mxPoint x="280" y="160" as="targetPoint" />
            <Array as="points">
              <mxPoint x="631" y="427" />
              <mxPoint x="631" y="850" />
              <mxPoint x="-200" y="850" />
            </Array>
          </mxGeometry>
        </mxCell>
        <mxCell id="nRD8glROoCP6xElaZEBb-21" value="for(int j=0;j&amp;lt;n&amp;amp;&amp;amp;flag;j++)" style="shape=hexagon;perimeter=hexagonPerimeter2;whiteSpace=wrap;html=1;fixedSize=1;" vertex="1" parent="1">
          <mxGeometry x="197.5" y="414" width="170" height="26" as="geometry" />
        </mxCell>
        <mxCell id="nRD8glROoCP6xElaZEBb-23" value="1" style="text;html=1;align=center;verticalAlign=middle;resizable=0;points=[];autosize=1;strokeColor=none;fillColor=none;" vertex="1" parent="1">
          <mxGeometry x="260" y="448" width="30" height="30" as="geometry" />
        </mxCell>
        <mxCell id="nRD8glROoCP6xElaZEBb-25" style="edgeStyle=orthogonalEdgeStyle;rounded=0;orthogonalLoop=1;jettySize=auto;html=1;" edge="1" parent="1" source="nRD8glROoCP6xElaZEBb-24" target="nRD8glROoCP6xElaZEBb-27">
          <mxGeometry relative="1" as="geometry">
            <mxPoint x="120" y="570" as="targetPoint" />
          </mxGeometry>
        </mxCell>
        <mxCell id="nRD8glROoCP6xElaZEBb-37" style="edgeStyle=orthogonalEdgeStyle;rounded=0;orthogonalLoop=1;jettySize=auto;html=1;" edge="1" parent="1" source="nRD8glROoCP6xElaZEBb-24">
          <mxGeometry relative="1" as="geometry">
            <mxPoint x="280" y="760" as="targetPoint" />
            <Array as="points">
              <mxPoint x="541" y="518" />
            </Array>
          </mxGeometry>
        </mxCell>
        <mxCell id="nRD8glROoCP6xElaZEBb-24" value="if(static_cast&amp;lt;char&amp;gt;(a[0][j])==podstr[i])" style="rhombus;whiteSpace=wrap;html=1;" vertex="1" parent="1">
          <mxGeometry x="158.75" y="478" width="247.5" height="80" as="geometry" />
        </mxCell>
        <mxCell id="nRD8glROoCP6xElaZEBb-26" value="1" style="text;html=1;align=center;verticalAlign=middle;resizable=0;points=[];autosize=1;strokeColor=none;fillColor=none;" vertex="1" parent="1">
          <mxGeometry x="125" y="488" width="30" height="30" as="geometry" />
        </mxCell>
        <mxCell id="nRD8glROoCP6xElaZEBb-28" style="edgeStyle=orthogonalEdgeStyle;rounded=0;orthogonalLoop=1;jettySize=auto;html=1;" edge="1" parent="1" source="nRD8glROoCP6xElaZEBb-27" target="nRD8glROoCP6xElaZEBb-29">
          <mxGeometry relative="1" as="geometry">
            <mxPoint x="77.5" y="630" as="targetPoint" />
          </mxGeometry>
        </mxCell>
        <mxCell id="nRD8glROoCP6xElaZEBb-27" value="flag=false;" style="rounded=0;whiteSpace=wrap;html=1;" vertex="1" parent="1">
          <mxGeometry x="45" y="560" width="65" height="20" as="geometry" />
        </mxCell>
        <mxCell id="nRD8glROoCP6xElaZEBb-30" style="edgeStyle=orthogonalEdgeStyle;rounded=0;orthogonalLoop=1;jettySize=auto;html=1;" edge="1" parent="1" source="nRD8glROoCP6xElaZEBb-29" target="nRD8glROoCP6xElaZEBb-31">
          <mxGeometry relative="1" as="geometry">
            <mxPoint x="-60" y="690" as="targetPoint" />
          </mxGeometry>
        </mxCell>
        <mxCell id="nRD8glROoCP6xElaZEBb-32" style="edgeStyle=orthogonalEdgeStyle;rounded=0;orthogonalLoop=1;jettySize=auto;html=1;" edge="1" parent="1" source="nRD8glROoCP6xElaZEBb-29">
          <mxGeometry relative="1" as="geometry">
            <mxPoint x="80" y="740" as="targetPoint" />
            <Array as="points">
              <mxPoint x="201" y="640" />
            </Array>
          </mxGeometry>
        </mxCell>
        <mxCell id="nRD8glROoCP6xElaZEBb-29" value="if(a[1][j]==0)" style="rhombus;whiteSpace=wrap;html=1;" vertex="1" parent="1">
          <mxGeometry x="37.5" y="600" width="80" height="80" as="geometry" />
        </mxCell>
        <mxCell id="nRD8glROoCP6xElaZEBb-35" style="edgeStyle=orthogonalEdgeStyle;rounded=0;orthogonalLoop=1;jettySize=auto;html=1;" edge="1" parent="1" source="nRD8glROoCP6xElaZEBb-31">
          <mxGeometry relative="1" as="geometry">
            <mxPoint x="80" y="740" as="targetPoint" />
            <Array as="points">
              <mxPoint x="-70" y="740" />
            </Array>
          </mxGeometry>
        </mxCell>
        <mxCell id="nRD8glROoCP6xElaZEBb-31" value="a[1][j]=podstr.length()-i-1;" style="rounded=0;whiteSpace=wrap;html=1;" vertex="1" parent="1">
          <mxGeometry x="-140" y="690" width="140" height="30" as="geometry" />
        </mxCell>
        <mxCell id="nRD8glROoCP6xElaZEBb-33" value="1" style="text;html=1;align=center;verticalAlign=middle;resizable=0;points=[];autosize=1;strokeColor=none;fillColor=none;" vertex="1" parent="1">
          <mxGeometry x="-35" y="608" width="30" height="30" as="geometry" />
        </mxCell>
        <mxCell id="nRD8glROoCP6xElaZEBb-34" value="0" style="text;html=1;align=center;verticalAlign=middle;resizable=0;points=[];autosize=1;strokeColor=none;fillColor=none;" vertex="1" parent="1">
          <mxGeometry x="145" y="608" width="30" height="30" as="geometry" />
        </mxCell>
        <mxCell id="nRD8glROoCP6xElaZEBb-36" value="" style="endArrow=classic;html=1;rounded=0;" edge="1" parent="1">
          <mxGeometry width="50" height="50" relative="1" as="geometry">
            <mxPoint x="80" y="740" as="sourcePoint" />
            <mxPoint x="280" y="760" as="targetPoint" />
            <Array as="points">
              <mxPoint x="80" y="760" />
            </Array>
          </mxGeometry>
        </mxCell>
        <mxCell id="nRD8glROoCP6xElaZEBb-38" value="0" style="text;html=1;align=center;verticalAlign=middle;resizable=0;points=[];autosize=1;strokeColor=none;fillColor=none;" vertex="1" parent="1">
          <mxGeometry x="435" y="488" width="30" height="30" as="geometry" />
        </mxCell>
        <mxCell id="nRD8glROoCP6xElaZEBb-39" value="" style="endArrow=classic;html=1;rounded=0;" edge="1" parent="1">
          <mxGeometry width="50" height="50" relative="1" as="geometry">
            <mxPoint x="278" y="760" as="sourcePoint" />
            <mxPoint x="278" y="400" as="targetPoint" />
            <Array as="points">
              <mxPoint x="280" y="800" />
              <mxPoint x="-160" y="800" />
              <mxPoint x="-160" y="400" />
              <mxPoint x="60" y="400" />
            </Array>
          </mxGeometry>
        </mxCell>
        <mxCell id="nRD8glROoCP6xElaZEBb-41" value="0" style="text;html=1;align=center;verticalAlign=middle;resizable=0;points=[];autosize=1;strokeColor=none;fillColor=none;" vertex="1" parent="1">
          <mxGeometry x="415" y="398" width="30" height="30" as="geometry" />
        </mxCell>
        <mxCell id="nRD8glROoCP6xElaZEBb-43" value="0" style="text;html=1;align=center;verticalAlign=middle;resizable=0;points=[];autosize=1;strokeColor=none;fillColor=none;" vertex="1" parent="1">
          <mxGeometry x="485" y="158" width="30" height="30" as="geometry" />
        </mxCell>
        <mxCell id="nRD8glROoCP6xElaZEBb-45" style="edgeStyle=orthogonalEdgeStyle;rounded=0;orthogonalLoop=1;jettySize=auto;html=1;" edge="1" parent="1" source="nRD8glROoCP6xElaZEBb-44" target="nRD8glROoCP6xElaZEBb-47">
          <mxGeometry relative="1" as="geometry">
            <mxPoint x="150" y="1000" as="targetPoint" />
          </mxGeometry>
        </mxCell>
        <mxCell id="nRD8glROoCP6xElaZEBb-66" style="edgeStyle=orthogonalEdgeStyle;rounded=0;orthogonalLoop=1;jettySize=auto;html=1;" edge="1" parent="1" source="nRD8glROoCP6xElaZEBb-44">
          <mxGeometry relative="1" as="geometry">
            <mxPoint x="280" y="1440" as="targetPoint" />
            <Array as="points">
              <mxPoint x="461" y="950" />
            </Array>
          </mxGeometry>
        </mxCell>
        <mxCell id="nRD8glROoCP6xElaZEBb-44" value="if(flag1)" style="rhombus;whiteSpace=wrap;html=1;" vertex="1" parent="1">
          <mxGeometry x="237.5" y="910" width="80" height="80" as="geometry" />
        </mxCell>
        <mxCell id="nRD8glROoCP6xElaZEBb-46" value="1" style="text;html=1;align=center;verticalAlign=middle;resizable=0;points=[];autosize=1;strokeColor=none;fillColor=none;" vertex="1" parent="1">
          <mxGeometry x="195" y="918" width="30" height="30" as="geometry" />
        </mxCell>
        <mxCell id="nRD8glROoCP6xElaZEBb-48" style="edgeStyle=orthogonalEdgeStyle;rounded=0;orthogonalLoop=1;jettySize=auto;html=1;" edge="1" parent="1" source="nRD8glROoCP6xElaZEBb-47" target="nRD8glROoCP6xElaZEBb-49">
          <mxGeometry relative="1" as="geometry">
            <mxPoint x="195" y="1080" as="targetPoint" />
          </mxGeometry>
        </mxCell>
        <mxCell id="nRD8glROoCP6xElaZEBb-47" value="&amp;nbsp;flag=true;" style="rounded=0;whiteSpace=wrap;html=1;" vertex="1" parent="1">
          <mxGeometry x="160" y="1000" width="70" height="30" as="geometry" />
        </mxCell>
        <mxCell id="nRD8glROoCP6xElaZEBb-50" style="edgeStyle=orthogonalEdgeStyle;rounded=0;orthogonalLoop=1;jettySize=auto;html=1;" edge="1" parent="1" source="nRD8glROoCP6xElaZEBb-49" target="nRD8glROoCP6xElaZEBb-52">
          <mxGeometry relative="1" as="geometry">
            <mxPoint x="195" y="1140" as="targetPoint" />
          </mxGeometry>
        </mxCell>
        <mxCell id="nRD8glROoCP6xElaZEBb-64" style="edgeStyle=orthogonalEdgeStyle;rounded=0;orthogonalLoop=1;jettySize=auto;html=1;" edge="1" parent="1" source="nRD8glROoCP6xElaZEBb-49">
          <mxGeometry relative="1" as="geometry">
            <mxPoint x="280" y="1440" as="targetPoint" />
            <Array as="points">
              <mxPoint x="431" y="1075" />
              <mxPoint x="431" y="1410" />
              <mxPoint x="200" y="1410" />
            </Array>
          </mxGeometry>
        </mxCell>
        <mxCell id="nRD8glROoCP6xElaZEBb-49" value="for(int j=0;j&amp;lt;n&amp;amp;&amp;amp;flag;j++)" style="shape=hexagon;perimeter=hexagonPerimeter2;whiteSpace=wrap;html=1;fixedSize=1;" vertex="1" parent="1">
          <mxGeometry x="122.5" y="1060" width="145" height="30" as="geometry" />
        </mxCell>
        <mxCell id="nRD8glROoCP6xElaZEBb-51" value="1" style="text;html=1;align=center;verticalAlign=middle;resizable=0;points=[];autosize=1;strokeColor=none;fillColor=none;" vertex="1" parent="1">
          <mxGeometry x="165" y="1098" width="30" height="30" as="geometry" />
        </mxCell>
        <mxCell id="nRD8glROoCP6xElaZEBb-53" style="edgeStyle=orthogonalEdgeStyle;rounded=0;orthogonalLoop=1;jettySize=auto;html=1;" edge="1" parent="1" source="nRD8glROoCP6xElaZEBb-52" target="nRD8glROoCP6xElaZEBb-55">
          <mxGeometry relative="1" as="geometry">
            <mxPoint x="10" y="1250" as="targetPoint" />
          </mxGeometry>
        </mxCell>
        <mxCell id="nRD8glROoCP6xElaZEBb-56" style="edgeStyle=orthogonalEdgeStyle;rounded=0;orthogonalLoop=1;jettySize=auto;html=1;" edge="1" parent="1" source="nRD8glROoCP6xElaZEBb-52">
          <mxGeometry relative="1" as="geometry">
            <mxPoint x="200" y="1360" as="targetPoint" />
            <Array as="points">
              <mxPoint x="390" y="1180" />
              <mxPoint x="390" y="1360" />
            </Array>
          </mxGeometry>
        </mxCell>
        <mxCell id="nRD8glROoCP6xElaZEBb-52" value="if(static_cast&amp;lt;char&amp;gt;(a[0][j])==podstr[podstr.length()-1])" style="rhombus;whiteSpace=wrap;html=1;" vertex="1" parent="1">
          <mxGeometry x="57.5" y="1140" width="275" height="80" as="geometry" />
        </mxCell>
        <mxCell id="nRD8glROoCP6xElaZEBb-54" value="1" style="text;html=1;align=center;verticalAlign=middle;resizable=0;points=[];autosize=1;strokeColor=none;fillColor=none;" vertex="1" parent="1">
          <mxGeometry x="25" y="1148" width="30" height="30" as="geometry" />
        </mxCell>
        <mxCell id="nRD8glROoCP6xElaZEBb-58" style="edgeStyle=orthogonalEdgeStyle;rounded=0;orthogonalLoop=1;jettySize=auto;html=1;" edge="1" parent="1" source="nRD8glROoCP6xElaZEBb-55" target="nRD8glROoCP6xElaZEBb-59">
          <mxGeometry relative="1" as="geometry">
            <mxPoint x="5" y="1300" as="targetPoint" />
          </mxGeometry>
        </mxCell>
        <mxCell id="nRD8glROoCP6xElaZEBb-55" value="flag=false;" style="rounded=0;whiteSpace=wrap;html=1;" vertex="1" parent="1">
          <mxGeometry x="-35" y="1221" width="80" height="20" as="geometry" />
        </mxCell>
        <mxCell id="nRD8glROoCP6xElaZEBb-57" value="0" style="text;html=1;align=center;verticalAlign=middle;resizable=0;points=[];autosize=1;strokeColor=none;fillColor=none;" vertex="1" parent="1">
          <mxGeometry x="350" y="1148" width="30" height="30" as="geometry" />
        </mxCell>
        <mxCell id="nRD8glROoCP6xElaZEBb-62" style="edgeStyle=orthogonalEdgeStyle;rounded=0;orthogonalLoop=1;jettySize=auto;html=1;" edge="1" parent="1" source="nRD8glROoCP6xElaZEBb-59">
          <mxGeometry relative="1" as="geometry">
            <mxPoint x="200" y="1360" as="targetPoint" />
            <Array as="points">
              <mxPoint x="5" y="1340" />
              <mxPoint x="6" y="1340" />
            </Array>
          </mxGeometry>
        </mxCell>
        <mxCell id="nRD8glROoCP6xElaZEBb-59" value="a[1][j]=podstr.length();" style="rounded=0;whiteSpace=wrap;html=1;" vertex="1" parent="1">
          <mxGeometry x="-55" y="1270" width="120" height="30" as="geometry" />
        </mxCell>
        <mxCell id="nRD8glROoCP6xElaZEBb-63" value="" style="endArrow=classic;html=1;rounded=0;" edge="1" parent="1">
          <mxGeometry width="50" height="50" relative="1" as="geometry">
            <mxPoint x="200" y="1360" as="sourcePoint" />
            <mxPoint x="190" y="1040" as="targetPoint" />
            <Array as="points">
              <mxPoint x="200" y="1400" />
              <mxPoint x="-80" y="1400" />
              <mxPoint x="-80" y="1040" />
            </Array>
          </mxGeometry>
        </mxCell>
        <mxCell id="nRD8glROoCP6xElaZEBb-65" value="0" style="text;html=1;align=center;verticalAlign=middle;resizable=0;points=[];autosize=1;strokeColor=none;fillColor=none;" vertex="1" parent="1">
          <mxGeometry x="345" y="1048" width="30" height="30" as="geometry" />
        </mxCell>
        <mxCell id="nRD8glROoCP6xElaZEBb-67" value="0" style="text;html=1;align=center;verticalAlign=middle;resizable=0;points=[];autosize=1;strokeColor=none;fillColor=none;" vertex="1" parent="1">
          <mxGeometry x="355" y="918" width="30" height="30" as="geometry" />
        </mxCell>
        <mxCell id="nRD8glROoCP6xElaZEBb-68" value="" style="endArrow=classic;html=1;rounded=0;" edge="1" parent="1" target="nRD8glROoCP6xElaZEBb-69">
          <mxGeometry width="50" height="50" relative="1" as="geometry">
            <mxPoint x="280" y="1440" as="sourcePoint" />
            <mxPoint x="280" y="1490" as="targetPoint" />
          </mxGeometry>
        </mxCell>
        <mxCell id="nRD8glROoCP6xElaZEBb-69" value="}" style="ellipse;whiteSpace=wrap;html=1;" vertex="1" parent="1">
          <mxGeometry x="253.75" y="1480" width="57.5" height="50" as="geometry" />
        </mxCell>
        <mxCell id="nRD8glROoCP6xElaZEBb-71" style="edgeStyle=orthogonalEdgeStyle;rounded=0;orthogonalLoop=1;jettySize=auto;html=1;" edge="1" parent="1" source="nRD8glROoCP6xElaZEBb-70" target="nRD8glROoCP6xElaZEBb-73">
          <mxGeometry relative="1" as="geometry">
            <mxPoint x="1270" y="130" as="targetPoint" />
          </mxGeometry>
        </mxCell>
        <mxCell id="nRD8glROoCP6xElaZEBb-70" value="void podchet(string str,set&amp;lt;char&amp;gt;&amp;amp; f,int a[2][26],int&amp;amp; n,string podstr)" style="shape=process;whiteSpace=wrap;html=1;backgroundOutline=1;" vertex="1" parent="1">
          <mxGeometry x="1040" y="40" width="460" height="30" as="geometry" />
        </mxCell>
        <mxCell id="nRD8glROoCP6xElaZEBb-72" value="{" style="text;html=1;align=center;verticalAlign=middle;resizable=0;points=[];autosize=1;strokeColor=none;fillColor=none;" vertex="1" parent="1">
          <mxGeometry x="1235" y="78" width="30" height="30" as="geometry" />
        </mxCell>
        <mxCell id="nRD8glROoCP6xElaZEBb-74" style="edgeStyle=orthogonalEdgeStyle;rounded=0;orthogonalLoop=1;jettySize=auto;html=1;" edge="1" parent="1" source="nRD8glROoCP6xElaZEBb-73" target="nRD8glROoCP6xElaZEBb-75">
          <mxGeometry relative="1" as="geometry">
            <mxPoint x="1270" y="180" as="targetPoint" />
          </mxGeometry>
        </mxCell>
        <mxCell id="nRD8glROoCP6xElaZEBb-73" value="f.clear();" style="rounded=0;whiteSpace=wrap;html=1;" vertex="1" parent="1">
          <mxGeometry x="1240" y="115" width="60" height="20" as="geometry" />
        </mxCell>
        <mxCell id="nRD8glROoCP6xElaZEBb-76" style="edgeStyle=orthogonalEdgeStyle;rounded=0;orthogonalLoop=1;jettySize=auto;html=1;" edge="1" parent="1" source="nRD8glROoCP6xElaZEBb-75" target="nRD8glROoCP6xElaZEBb-77">
          <mxGeometry relative="1" as="geometry">
            <mxPoint x="1270" y="230" as="targetPoint" />
          </mxGeometry>
        </mxCell>
        <mxCell id="nRD8glROoCP6xElaZEBb-80" style="edgeStyle=orthogonalEdgeStyle;rounded=0;orthogonalLoop=1;jettySize=auto;html=1;" edge="1" parent="1" source="nRD8glROoCP6xElaZEBb-75" target="nRD8glROoCP6xElaZEBb-82">
          <mxGeometry relative="1" as="geometry">
            <mxPoint x="1270" y="290" as="targetPoint" />
            <Array as="points">
              <mxPoint x="1380" y="175" />
              <mxPoint x="1380" y="280" />
              <mxPoint x="1270" y="280" />
            </Array>
          </mxGeometry>
        </mxCell>
        <mxCell id="nRD8glROoCP6xElaZEBb-75" value="for(int i=0;i&amp;lt;podstr.length();i++)" style="shape=hexagon;perimeter=hexagonPerimeter2;whiteSpace=wrap;html=1;fixedSize=1;" vertex="1" parent="1">
          <mxGeometry x="1180" y="160" width="180" height="30" as="geometry" />
        </mxCell>
        <mxCell id="nRD8glROoCP6xElaZEBb-79" style="edgeStyle=orthogonalEdgeStyle;rounded=0;orthogonalLoop=1;jettySize=auto;html=1;" edge="1" parent="1" source="nRD8glROoCP6xElaZEBb-77">
          <mxGeometry relative="1" as="geometry">
            <mxPoint x="1270" y="150" as="targetPoint" />
            <Array as="points">
              <mxPoint x="1270" y="260" />
              <mxPoint x="1170" y="260" />
              <mxPoint x="1170" y="150" />
            </Array>
          </mxGeometry>
        </mxCell>
        <mxCell id="nRD8glROoCP6xElaZEBb-77" value="&amp;nbsp;f.insert(podstr[i]);" style="rounded=0;whiteSpace=wrap;html=1;" vertex="1" parent="1">
          <mxGeometry x="1220" y="220" width="100" height="20" as="geometry" />
        </mxCell>
        <mxCell id="nRD8glROoCP6xElaZEBb-78" value="1" style="text;html=1;align=center;verticalAlign=middle;resizable=0;points=[];autosize=1;strokeColor=none;fillColor=none;" vertex="1" parent="1">
          <mxGeometry x="1235" y="188" width="30" height="30" as="geometry" />
        </mxCell>
        <mxCell id="nRD8glROoCP6xElaZEBb-81" value="0" style="text;html=1;align=center;verticalAlign=middle;resizable=0;points=[];autosize=1;strokeColor=none;fillColor=none;" vertex="1" parent="1">
          <mxGeometry x="1350" y="148" width="30" height="30" as="geometry" />
        </mxCell>
        <mxCell id="nRD8glROoCP6xElaZEBb-83" style="edgeStyle=orthogonalEdgeStyle;rounded=0;orthogonalLoop=1;jettySize=auto;html=1;" edge="1" parent="1" source="nRD8glROoCP6xElaZEBb-82" target="nRD8glROoCP6xElaZEBb-84">
          <mxGeometry relative="1" as="geometry">
            <mxPoint x="1270" y="350" as="targetPoint" />
          </mxGeometry>
        </mxCell>
        <mxCell id="nRD8glROoCP6xElaZEBb-82" value="int i=0;" style="rounded=0;whiteSpace=wrap;html=1;" vertex="1" parent="1">
          <mxGeometry x="1245" y="298" width="50" height="20" as="geometry" />
        </mxCell>
        <mxCell id="nRD8glROoCP6xElaZEBb-85" style="edgeStyle=orthogonalEdgeStyle;rounded=0;orthogonalLoop=1;jettySize=auto;html=1;" edge="1" parent="1" source="nRD8glROoCP6xElaZEBb-84" target="nRD8glROoCP6xElaZEBb-87">
          <mxGeometry relative="1" as="geometry">
            <mxPoint x="1270" y="400" as="targetPoint" />
          </mxGeometry>
        </mxCell>
        <mxCell id="nRD8glROoCP6xElaZEBb-93" style="edgeStyle=orthogonalEdgeStyle;rounded=0;orthogonalLoop=1;jettySize=auto;html=1;" edge="1" parent="1" source="nRD8glROoCP6xElaZEBb-84" target="nRD8glROoCP6xElaZEBb-95">
          <mxGeometry relative="1" as="geometry">
            <mxPoint x="1270" y="540" as="targetPoint" />
            <Array as="points">
              <mxPoint x="1360" y="349" />
              <mxPoint x="1360" y="530" />
            </Array>
          </mxGeometry>
        </mxCell>
        <mxCell id="nRD8glROoCP6xElaZEBb-84" value="for (char ch : f)" style="shape=hexagon;perimeter=hexagonPerimeter2;whiteSpace=wrap;html=1;fixedSize=1;" vertex="1" parent="1">
          <mxGeometry x="1220" y="338" width="100" height="22" as="geometry" />
        </mxCell>
        <mxCell id="nRD8glROoCP6xElaZEBb-86" value="1" style="text;html=1;align=center;verticalAlign=middle;resizable=0;points=[];autosize=1;strokeColor=none;fillColor=none;" vertex="1" parent="1">
          <mxGeometry x="1245" y="358" width="30" height="30" as="geometry" />
        </mxCell>
        <mxCell id="nRD8glROoCP6xElaZEBb-88" style="edgeStyle=orthogonalEdgeStyle;rounded=0;orthogonalLoop=1;jettySize=auto;html=1;" edge="1" parent="1" source="nRD8glROoCP6xElaZEBb-87" target="nRD8glROoCP6xElaZEBb-89">
          <mxGeometry relative="1" as="geometry">
            <mxPoint x="1270" y="430" as="targetPoint" />
          </mxGeometry>
        </mxCell>
        <mxCell id="nRD8glROoCP6xElaZEBb-87" value="a[0][i]=static_cast&amp;lt;int&amp;gt;(ch);" style="rounded=0;whiteSpace=wrap;html=1;" vertex="1" parent="1">
          <mxGeometry x="1195" y="387" width="150" height="23" as="geometry" />
        </mxCell>
        <mxCell id="nRD8glROoCP6xElaZEBb-90" style="edgeStyle=orthogonalEdgeStyle;rounded=0;orthogonalLoop=1;jettySize=auto;html=1;" edge="1" parent="1" source="nRD8glROoCP6xElaZEBb-89" target="nRD8glROoCP6xElaZEBb-91">
          <mxGeometry relative="1" as="geometry">
            <mxPoint x="1270" y="490" as="targetPoint" />
          </mxGeometry>
        </mxCell>
        <mxCell id="nRD8glROoCP6xElaZEBb-89" value="a[1][i]=0;" style="rounded=0;whiteSpace=wrap;html=1;" vertex="1" parent="1">
          <mxGeometry x="1240" y="430" width="60" height="30" as="geometry" />
        </mxCell>
        <mxCell id="nRD8glROoCP6xElaZEBb-92" style="edgeStyle=orthogonalEdgeStyle;rounded=0;orthogonalLoop=1;jettySize=auto;html=1;" edge="1" parent="1" source="nRD8glROoCP6xElaZEBb-91">
          <mxGeometry relative="1" as="geometry">
            <mxPoint x="1270" y="330" as="targetPoint" />
            <Array as="points">
              <mxPoint x="1270" y="510" />
              <mxPoint x="1170" y="510" />
            </Array>
          </mxGeometry>
        </mxCell>
        <mxCell id="nRD8glROoCP6xElaZEBb-91" value="++i;" style="rounded=0;whiteSpace=wrap;html=1;" vertex="1" parent="1">
          <mxGeometry x="1255" y="478" width="30" height="22" as="geometry" />
        </mxCell>
        <mxCell id="nRD8glROoCP6xElaZEBb-94" value="0" style="text;html=1;align=center;verticalAlign=middle;resizable=0;points=[];autosize=1;strokeColor=none;fillColor=none;" vertex="1" parent="1">
          <mxGeometry x="1315" y="328" width="30" height="30" as="geometry" />
        </mxCell>
        <mxCell id="nRD8glROoCP6xElaZEBb-96" style="edgeStyle=orthogonalEdgeStyle;rounded=0;orthogonalLoop=1;jettySize=auto;html=1;" edge="1" parent="1" source="nRD8glROoCP6xElaZEBb-95" target="nRD8glROoCP6xElaZEBb-97">
          <mxGeometry relative="1" as="geometry">
            <mxPoint x="1270" y="590" as="targetPoint" />
          </mxGeometry>
        </mxCell>
        <mxCell id="nRD8glROoCP6xElaZEBb-95" value="n=i;" style="rounded=0;whiteSpace=wrap;html=1;" vertex="1" parent="1">
          <mxGeometry x="1245" y="538" width="50" height="22" as="geometry" />
        </mxCell>
        <mxCell id="nRD8glROoCP6xElaZEBb-97" value="}" style="ellipse;whiteSpace=wrap;html=1;" vertex="1" parent="1">
          <mxGeometry x="1245" y="580" width="50" height="30" as="geometry" />
        </mxCell>
        <mxCell id="nRD8glROoCP6xElaZEBb-99" style="edgeStyle=orthogonalEdgeStyle;rounded=0;orthogonalLoop=1;jettySize=auto;html=1;" edge="1" parent="1" source="nRD8glROoCP6xElaZEBb-98" target="nRD8glROoCP6xElaZEBb-101">
          <mxGeometry relative="1" as="geometry">
            <mxPoint x="2115" y="130" as="targetPoint" />
          </mxGeometry>
        </mxCell>
        <mxCell id="nRD8glROoCP6xElaZEBb-98" value="void search(string str,string podstr,int a[2][26],int n)" style="shape=process;whiteSpace=wrap;html=1;backgroundOutline=1;" vertex="1" parent="1">
          <mxGeometry x="1940" y="40" width="350" height="30" as="geometry" />
        </mxCell>
        <mxCell id="nRD8glROoCP6xElaZEBb-100" value="{" style="text;html=1;align=center;verticalAlign=middle;resizable=0;points=[];autosize=1;strokeColor=none;fillColor=none;" vertex="1" parent="1">
          <mxGeometry x="2085" y="78" width="30" height="30" as="geometry" />
        </mxCell>
        <mxCell id="nRD8glROoCP6xElaZEBb-102" style="edgeStyle=orthogonalEdgeStyle;rounded=0;orthogonalLoop=1;jettySize=auto;html=1;" edge="1" parent="1" source="nRD8glROoCP6xElaZEBb-101" target="nRD8glROoCP6xElaZEBb-103">
          <mxGeometry relative="1" as="geometry">
            <mxPoint x="2115" y="180" as="targetPoint" />
          </mxGeometry>
        </mxCell>
        <mxCell id="nRD8glROoCP6xElaZEBb-101" value="int h=podstr.length()-1;" style="rounded=0;whiteSpace=wrap;html=1;" vertex="1" parent="1">
          <mxGeometry x="2047.5" y="115" width="135" height="25" as="geometry" />
        </mxCell>
        <mxCell id="nRD8glROoCP6xElaZEBb-104" style="edgeStyle=orthogonalEdgeStyle;rounded=0;orthogonalLoop=1;jettySize=auto;html=1;" edge="1" parent="1" source="nRD8glROoCP6xElaZEBb-103" target="nRD8glROoCP6xElaZEBb-105">
          <mxGeometry relative="1" as="geometry">
            <mxPoint x="2115" y="210" as="targetPoint" />
          </mxGeometry>
        </mxCell>
        <mxCell id="nRD8glROoCP6xElaZEBb-103" value="&lt;div&gt;bool flag=true,&lt;span style=&quot;background-color: transparent; color: light-dark(rgb(0, 0, 0), rgb(255, 255, 255));&quot;&gt;&amp;nbsp;flag1,&lt;/span&gt;&lt;span style=&quot;background-color: transparent; color: light-dark(rgb(0, 0, 0), rgb(255, 255, 255));&quot;&gt;flag2;&lt;/span&gt;&lt;/div&gt;" style="rounded=0;whiteSpace=wrap;html=1;" vertex="1" parent="1">
          <mxGeometry x="2042.5" y="160" width="145" height="20" as="geometry" />
        </mxCell>
        <mxCell id="nRD8glROoCP6xElaZEBb-106" style="edgeStyle=orthogonalEdgeStyle;rounded=0;orthogonalLoop=1;jettySize=auto;html=1;" edge="1" parent="1" source="nRD8glROoCP6xElaZEBb-105" target="nRD8glROoCP6xElaZEBb-107">
          <mxGeometry relative="1" as="geometry">
            <mxPoint x="2115" y="270" as="targetPoint" />
          </mxGeometry>
        </mxCell>
        <mxCell id="nRD8glROoCP6xElaZEBb-105" value="int copy;" style="rounded=0;whiteSpace=wrap;html=1;" vertex="1" parent="1">
          <mxGeometry x="2082.5" y="200" width="65" height="20" as="geometry" />
        </mxCell>
        <mxCell id="nRD8glROoCP6xElaZEBb-108" style="edgeStyle=orthogonalEdgeStyle;rounded=0;orthogonalLoop=1;jettySize=auto;html=1;" edge="1" parent="1" source="nRD8glROoCP6xElaZEBb-107" target="nRD8glROoCP6xElaZEBb-109">
          <mxGeometry relative="1" as="geometry">
            <mxPoint x="2115" y="320" as="targetPoint" />
          </mxGeometry>
        </mxCell>
        <mxCell id="nRD8glROoCP6xElaZEBb-172" style="edgeStyle=orthogonalEdgeStyle;rounded=0;orthogonalLoop=1;jettySize=auto;html=1;" edge="1" parent="1" source="nRD8glROoCP6xElaZEBb-107" target="nRD8glROoCP6xElaZEBb-174">
          <mxGeometry relative="1" as="geometry">
            <mxPoint x="2330" y="360" as="targetPoint" />
            <Array as="points">
              <mxPoint x="2330" y="260" />
            </Array>
          </mxGeometry>
        </mxCell>
        <mxCell id="nRD8glROoCP6xElaZEBb-107" value="&amp;nbsp;while(h&amp;lt;=str.length()-1&amp;amp;&amp;amp;flag)" style="rhombus;whiteSpace=wrap;html=1;" vertex="1" parent="1">
          <mxGeometry x="2007.5" y="240" width="215" height="40" as="geometry" />
        </mxCell>
        <mxCell id="nRD8glROoCP6xElaZEBb-111" style="edgeStyle=orthogonalEdgeStyle;rounded=0;orthogonalLoop=1;jettySize=auto;html=1;" edge="1" parent="1" source="nRD8glROoCP6xElaZEBb-109" target="nRD8glROoCP6xElaZEBb-112">
          <mxGeometry relative="1" as="geometry">
            <mxPoint x="2115" y="360" as="targetPoint" />
          </mxGeometry>
        </mxCell>
        <mxCell id="nRD8glROoCP6xElaZEBb-109" value="flag2=true;" style="rounded=0;whiteSpace=wrap;html=1;" vertex="1" parent="1">
          <mxGeometry x="2077.5" y="308" width="75" height="22" as="geometry" />
        </mxCell>
        <mxCell id="nRD8glROoCP6xElaZEBb-110" value="1" style="text;html=1;align=center;verticalAlign=middle;resizable=0;points=[];autosize=1;strokeColor=none;fillColor=none;" vertex="1" parent="1">
          <mxGeometry x="2085" y="278" width="30" height="30" as="geometry" />
        </mxCell>
        <mxCell id="nRD8glROoCP6xElaZEBb-113" style="edgeStyle=orthogonalEdgeStyle;rounded=0;orthogonalLoop=1;jettySize=auto;html=1;" edge="1" parent="1" source="nRD8glROoCP6xElaZEBb-112" target="nRD8glROoCP6xElaZEBb-114">
          <mxGeometry relative="1" as="geometry">
            <mxPoint x="2115" y="420" as="targetPoint" />
          </mxGeometry>
        </mxCell>
        <mxCell id="nRD8glROoCP6xElaZEBb-112" value="&amp;nbsp;cout&amp;lt;&amp;lt;str&amp;lt;&amp;lt;endl;" style="shape=parallelogram;perimeter=parallelogramPerimeter;whiteSpace=wrap;html=1;fixedSize=1;" vertex="1" parent="1">
          <mxGeometry x="2055" y="350" width="120" height="30" as="geometry" />
        </mxCell>
        <mxCell id="nRD8glROoCP6xElaZEBb-115" style="edgeStyle=orthogonalEdgeStyle;rounded=0;orthogonalLoop=1;jettySize=auto;html=1;" edge="1" parent="1" source="nRD8glROoCP6xElaZEBb-114" target="nRD8glROoCP6xElaZEBb-117">
          <mxGeometry relative="1" as="geometry">
            <mxPoint x="2115" y="480" as="targetPoint" />
          </mxGeometry>
        </mxCell>
        <mxCell id="nRD8glROoCP6xElaZEBb-119" style="edgeStyle=orthogonalEdgeStyle;rounded=0;orthogonalLoop=1;jettySize=auto;html=1;" edge="1" parent="1" source="nRD8glROoCP6xElaZEBb-114" target="nRD8glROoCP6xElaZEBb-121">
          <mxGeometry relative="1" as="geometry">
            <mxPoint x="2110" y="550" as="targetPoint" />
            <Array as="points">
              <mxPoint x="2251" y="424" />
              <mxPoint x="2251" y="520" />
              <mxPoint x="2108" y="520" />
            </Array>
          </mxGeometry>
        </mxCell>
        <mxCell id="nRD8glROoCP6xElaZEBb-114" value="for(int l=0;l&amp;lt;h+1-podstr.length();l++)" style="shape=hexagon;perimeter=hexagonPerimeter2;whiteSpace=wrap;html=1;fixedSize=1;" vertex="1" parent="1">
          <mxGeometry x="2012.5" y="408" width="205" height="32" as="geometry" />
        </mxCell>
        <mxCell id="nRD8glROoCP6xElaZEBb-116" value="1" style="text;html=1;align=center;verticalAlign=middle;resizable=0;points=[];autosize=1;strokeColor=none;fillColor=none;" vertex="1" parent="1">
          <mxGeometry x="2085" y="438" width="30" height="30" as="geometry" />
        </mxCell>
        <mxCell id="nRD8glROoCP6xElaZEBb-118" style="edgeStyle=orthogonalEdgeStyle;rounded=0;orthogonalLoop=1;jettySize=auto;html=1;entryX=0;entryY=0.5;entryDx=0;entryDy=0;" edge="1" parent="1" source="nRD8glROoCP6xElaZEBb-117" target="nRD8glROoCP6xElaZEBb-114">
          <mxGeometry relative="1" as="geometry">
            <mxPoint x="2115" y="390" as="targetPoint" />
            <Array as="points">
              <mxPoint x="2115" y="500" />
              <mxPoint x="2000" y="500" />
              <mxPoint x="2000" y="424" />
            </Array>
          </mxGeometry>
        </mxCell>
        <mxCell id="nRD8glROoCP6xElaZEBb-117" value="cout&amp;lt;&amp;lt;&quot; &quot;;" style="shape=parallelogram;perimeter=parallelogramPerimeter;whiteSpace=wrap;html=1;fixedSize=1;" vertex="1" parent="1">
          <mxGeometry x="2067.5" y="468" width="95" height="22" as="geometry" />
        </mxCell>
        <mxCell id="nRD8glROoCP6xElaZEBb-120" value="0" style="text;html=1;align=center;verticalAlign=middle;resizable=0;points=[];autosize=1;strokeColor=none;fillColor=none;" vertex="1" parent="1">
          <mxGeometry x="2215" y="398" width="30" height="30" as="geometry" />
        </mxCell>
        <mxCell id="nRD8glROoCP6xElaZEBb-122" style="edgeStyle=orthogonalEdgeStyle;rounded=0;orthogonalLoop=1;jettySize=auto;html=1;" edge="1" parent="1" source="nRD8glROoCP6xElaZEBb-121" target="nRD8glROoCP6xElaZEBb-123">
          <mxGeometry relative="1" as="geometry">
            <mxPoint x="2108.7500000000005" y="589.9999999999999" as="targetPoint" />
          </mxGeometry>
        </mxCell>
        <mxCell id="nRD8glROoCP6xElaZEBb-121" value="cout&amp;lt;&amp;lt;podstr&amp;lt;&amp;lt;endl;" style="shape=parallelogram;perimeter=parallelogramPerimeter;whiteSpace=wrap;html=1;fixedSize=1;" vertex="1" parent="1">
          <mxGeometry x="2042.5" y="538" width="132.5" height="22" as="geometry" />
        </mxCell>
        <mxCell id="nRD8glROoCP6xElaZEBb-124" style="edgeStyle=orthogonalEdgeStyle;rounded=0;orthogonalLoop=1;jettySize=auto;html=1;" edge="1" parent="1" source="nRD8glROoCP6xElaZEBb-123" target="nRD8glROoCP6xElaZEBb-125">
          <mxGeometry relative="1" as="geometry">
            <mxPoint x="2108.755" y="649.9999999999999" as="targetPoint" />
          </mxGeometry>
        </mxCell>
        <mxCell id="nRD8glROoCP6xElaZEBb-123" value="int copy=h;" style="rounded=0;whiteSpace=wrap;html=1;" vertex="1" parent="1">
          <mxGeometry x="2074.38" y="580" width="68.75" height="30" as="geometry" />
        </mxCell>
        <mxCell id="nRD8glROoCP6xElaZEBb-126" style="edgeStyle=orthogonalEdgeStyle;rounded=0;orthogonalLoop=1;jettySize=auto;html=1;" edge="1" parent="1" source="nRD8glROoCP6xElaZEBb-125" target="nRD8glROoCP6xElaZEBb-128">
          <mxGeometry relative="1" as="geometry">
            <mxPoint x="2108.7500000000005" y="710" as="targetPoint" />
          </mxGeometry>
        </mxCell>
        <mxCell id="nRD8glROoCP6xElaZEBb-170" style="edgeStyle=orthogonalEdgeStyle;rounded=0;orthogonalLoop=1;jettySize=auto;html=1;" edge="1" parent="1" source="nRD8glROoCP6xElaZEBb-125">
          <mxGeometry relative="1" as="geometry">
            <mxPoint x="2110" y="230" as="targetPoint" />
            <Array as="points">
              <mxPoint x="2511" y="654" />
              <mxPoint x="2511" y="1320" />
              <mxPoint x="1760" y="1320" />
            </Array>
          </mxGeometry>
        </mxCell>
        <mxCell id="nRD8glROoCP6xElaZEBb-125" value="&amp;nbsp;for(int j=podstr.length()-1;j&amp;gt;=0&amp;amp;&amp;amp;flag2;j--)" style="shape=hexagon;perimeter=hexagonPerimeter2;whiteSpace=wrap;html=1;fixedSize=1;" vertex="1" parent="1">
          <mxGeometry x="1993.13" y="638" width="231.24" height="32" as="geometry" />
        </mxCell>
        <mxCell id="nRD8glROoCP6xElaZEBb-127" value="1" style="text;html=1;align=center;verticalAlign=middle;resizable=0;points=[];autosize=1;strokeColor=none;fillColor=none;" vertex="1" parent="1">
          <mxGeometry x="2074.38" y="668" width="30" height="30" as="geometry" />
        </mxCell>
        <mxCell id="nRD8glROoCP6xElaZEBb-129" style="edgeStyle=orthogonalEdgeStyle;rounded=0;orthogonalLoop=1;jettySize=auto;html=1;" edge="1" parent="1" source="nRD8glROoCP6xElaZEBb-128" target="nRD8glROoCP6xElaZEBb-131">
          <mxGeometry relative="1" as="geometry">
            <mxPoint x="1990" y="760" as="targetPoint" />
          </mxGeometry>
        </mxCell>
        <mxCell id="nRD8glROoCP6xElaZEBb-142" style="edgeStyle=orthogonalEdgeStyle;rounded=0;orthogonalLoop=1;jettySize=auto;html=1;exitX=1;exitY=0.5;exitDx=0;exitDy=0;" edge="1" parent="1" source="nRD8glROoCP6xElaZEBb-128" target="nRD8glROoCP6xElaZEBb-144">
          <mxGeometry relative="1" as="geometry">
            <mxPoint x="2359.38" y="770" as="targetPoint" />
            <mxPoint x="2190" y="720" as="sourcePoint" />
          </mxGeometry>
        </mxCell>
        <mxCell id="nRD8glROoCP6xElaZEBb-128" value="if(str[copy]==podstr[j])" style="rhombus;whiteSpace=wrap;html=1;" vertex="1" parent="1">
          <mxGeometry x="2028.13" y="698" width="161.25" height="42" as="geometry" />
        </mxCell>
        <mxCell id="nRD8glROoCP6xElaZEBb-130" value="1" style="text;html=1;align=center;verticalAlign=middle;resizable=0;points=[];autosize=1;strokeColor=none;fillColor=none;" vertex="1" parent="1">
          <mxGeometry x="2002.5" y="690" width="30" height="30" as="geometry" />
        </mxCell>
        <mxCell id="nRD8glROoCP6xElaZEBb-132" style="edgeStyle=orthogonalEdgeStyle;rounded=0;orthogonalLoop=1;jettySize=auto;html=1;" edge="1" parent="1" source="nRD8glROoCP6xElaZEBb-131" target="nRD8glROoCP6xElaZEBb-133">
          <mxGeometry relative="1" as="geometry">
            <mxPoint x="2005" y="810" as="targetPoint" />
          </mxGeometry>
        </mxCell>
        <mxCell id="nRD8glROoCP6xElaZEBb-131" value="--copy;" style="rounded=0;whiteSpace=wrap;html=1;" vertex="1" parent="1">
          <mxGeometry x="1985" y="750" width="40" height="20" as="geometry" />
        </mxCell>
        <mxCell id="nRD8glROoCP6xElaZEBb-134" style="edgeStyle=orthogonalEdgeStyle;rounded=0;orthogonalLoop=1;jettySize=auto;html=1;" edge="1" parent="1" source="nRD8glROoCP6xElaZEBb-133" target="nRD8glROoCP6xElaZEBb-136">
          <mxGeometry relative="1" as="geometry">
            <mxPoint x="1920" y="880" as="targetPoint" />
          </mxGeometry>
        </mxCell>
        <mxCell id="nRD8glROoCP6xElaZEBb-137" style="edgeStyle=orthogonalEdgeStyle;rounded=0;orthogonalLoop=1;jettySize=auto;html=1;" edge="1" parent="1" source="nRD8glROoCP6xElaZEBb-133">
          <mxGeometry relative="1" as="geometry">
            <mxPoint x="2030" y="970" as="targetPoint" />
            <Array as="points">
              <mxPoint x="2091" y="830" />
              <mxPoint x="2091" y="970" />
            </Array>
          </mxGeometry>
        </mxCell>
        <mxCell id="nRD8glROoCP6xElaZEBb-133" value="if(j==0)" style="rhombus;whiteSpace=wrap;html=1;" vertex="1" parent="1">
          <mxGeometry x="1965" y="790" width="80" height="80" as="geometry" />
        </mxCell>
        <mxCell id="nRD8glROoCP6xElaZEBb-135" value="1" style="text;html=1;align=center;verticalAlign=middle;resizable=0;points=[];autosize=1;strokeColor=none;fillColor=none;" vertex="1" parent="1">
          <mxGeometry x="1925" y="808" width="30" height="30" as="geometry" />
        </mxCell>
        <mxCell id="nRD8glROoCP6xElaZEBb-139" style="edgeStyle=orthogonalEdgeStyle;rounded=0;orthogonalLoop=1;jettySize=auto;html=1;" edge="1" parent="1" source="nRD8glROoCP6xElaZEBb-136" target="nRD8glROoCP6xElaZEBb-140">
          <mxGeometry relative="1" as="geometry">
            <mxPoint x="1920" y="950" as="targetPoint" />
          </mxGeometry>
        </mxCell>
        <mxCell id="nRD8glROoCP6xElaZEBb-136" value="flag=false;" style="rounded=0;whiteSpace=wrap;html=1;" vertex="1" parent="1">
          <mxGeometry x="1890" y="880" width="60" height="30" as="geometry" />
        </mxCell>
        <mxCell id="nRD8glROoCP6xElaZEBb-138" value="0" style="text;html=1;align=center;verticalAlign=middle;resizable=0;points=[];autosize=1;strokeColor=none;fillColor=none;" vertex="1" parent="1">
          <mxGeometry x="2045" y="808" width="30" height="30" as="geometry" />
        </mxCell>
        <mxCell id="nRD8glROoCP6xElaZEBb-141" style="edgeStyle=orthogonalEdgeStyle;rounded=0;orthogonalLoop=1;jettySize=auto;html=1;" edge="1" parent="1" source="nRD8glROoCP6xElaZEBb-140">
          <mxGeometry relative="1" as="geometry">
            <mxPoint x="2030" y="970" as="targetPoint" />
            <Array as="points">
              <mxPoint x="1920" y="970" />
            </Array>
          </mxGeometry>
        </mxCell>
        <mxCell id="nRD8glROoCP6xElaZEBb-140" value="cout&amp;lt;&amp;lt;&quot;подстрока найдена&quot;&amp;lt;&amp;lt;endl;" style="shape=parallelogram;perimeter=parallelogramPerimeter;whiteSpace=wrap;html=1;fixedSize=1;" vertex="1" parent="1">
          <mxGeometry x="1807.5" y="930" width="225" height="20" as="geometry" />
        </mxCell>
        <mxCell id="nRD8glROoCP6xElaZEBb-143" value="0" style="text;html=1;align=center;verticalAlign=middle;resizable=0;points=[];autosize=1;strokeColor=none;fillColor=none;" vertex="1" parent="1">
          <mxGeometry x="2284.38" y="698" width="30" height="30" as="geometry" />
        </mxCell>
        <mxCell id="nRD8glROoCP6xElaZEBb-145" style="edgeStyle=orthogonalEdgeStyle;rounded=0;orthogonalLoop=1;jettySize=auto;html=1;" edge="1" parent="1" source="nRD8glROoCP6xElaZEBb-144" target="nRD8glROoCP6xElaZEBb-146">
          <mxGeometry relative="1" as="geometry">
            <mxPoint x="2309.38" y="810" as="targetPoint" />
          </mxGeometry>
        </mxCell>
        <mxCell id="nRD8glROoCP6xElaZEBb-144" value="flag1=true;" style="rounded=0;whiteSpace=wrap;html=1;" vertex="1" parent="1">
          <mxGeometry x="2275.63" y="750" width="67.5" height="30" as="geometry" />
        </mxCell>
        <mxCell id="nRD8glROoCP6xElaZEBb-147" style="edgeStyle=orthogonalEdgeStyle;rounded=0;orthogonalLoop=1;jettySize=auto;html=1;" edge="1" parent="1" source="nRD8glROoCP6xElaZEBb-146" target="nRD8glROoCP6xElaZEBb-148">
          <mxGeometry relative="1" as="geometry">
            <mxPoint x="2309.38" y="870" as="targetPoint" />
          </mxGeometry>
        </mxCell>
        <mxCell id="nRD8glROoCP6xElaZEBb-158" style="edgeStyle=orthogonalEdgeStyle;rounded=0;orthogonalLoop=1;jettySize=auto;html=1;" edge="1" parent="1" source="nRD8glROoCP6xElaZEBb-146" target="nRD8glROoCP6xElaZEBb-160">
          <mxGeometry relative="1" as="geometry">
            <mxPoint x="2320" y="1070" as="targetPoint" />
            <Array as="points">
              <mxPoint x="2490" y="819" />
              <mxPoint x="2490" y="1050" />
              <mxPoint x="2320" y="1050" />
            </Array>
          </mxGeometry>
        </mxCell>
        <mxCell id="nRD8glROoCP6xElaZEBb-146" value="for(int i=0;i&amp;lt;n&amp;amp;&amp;amp;flag1;i++)" style="shape=hexagon;perimeter=hexagonPerimeter2;whiteSpace=wrap;html=1;fixedSize=1;" vertex="1" parent="1">
          <mxGeometry x="2229.38" y="808" width="160" height="22" as="geometry" />
        </mxCell>
        <mxCell id="nRD8glROoCP6xElaZEBb-149" style="edgeStyle=orthogonalEdgeStyle;rounded=0;orthogonalLoop=1;jettySize=auto;html=1;" edge="1" parent="1" source="nRD8glROoCP6xElaZEBb-148" target="nRD8glROoCP6xElaZEBb-151">
          <mxGeometry relative="1" as="geometry">
            <mxPoint x="2160" y="910" as="targetPoint" />
          </mxGeometry>
        </mxCell>
        <mxCell id="nRD8glROoCP6xElaZEBb-154" style="edgeStyle=orthogonalEdgeStyle;rounded=0;orthogonalLoop=1;jettySize=auto;html=1;" edge="1" parent="1" source="nRD8glROoCP6xElaZEBb-148">
          <mxGeometry relative="1" as="geometry">
            <mxPoint x="2320" y="1000" as="targetPoint" />
            <Array as="points">
              <mxPoint x="2471" y="875" />
              <mxPoint x="2471" y="1000" />
            </Array>
          </mxGeometry>
        </mxCell>
        <mxCell id="nRD8glROoCP6xElaZEBb-148" value="if(static_cast&amp;lt;char&amp;gt;(a[0][i])==str[h])" style="rhombus;whiteSpace=wrap;html=1;" vertex="1" parent="1">
          <mxGeometry x="2189.38" y="850" width="240" height="50" as="geometry" />
        </mxCell>
        <mxCell id="nRD8glROoCP6xElaZEBb-150" value="1" style="text;html=1;align=center;verticalAlign=middle;resizable=0;points=[];autosize=1;strokeColor=none;fillColor=none;" vertex="1" parent="1">
          <mxGeometry x="2165" y="848" width="30" height="30" as="geometry" />
        </mxCell>
        <mxCell id="nRD8glROoCP6xElaZEBb-152" style="edgeStyle=orthogonalEdgeStyle;rounded=0;orthogonalLoop=1;jettySize=auto;html=1;" edge="1" parent="1" source="nRD8glROoCP6xElaZEBb-151" target="nRD8glROoCP6xElaZEBb-153">
          <mxGeometry relative="1" as="geometry">
            <mxPoint x="2156.25" y="970" as="targetPoint" />
          </mxGeometry>
        </mxCell>
        <mxCell id="nRD8glROoCP6xElaZEBb-151" value="flag1=false;" style="rounded=0;whiteSpace=wrap;html=1;" vertex="1" parent="1">
          <mxGeometry x="2125" y="908" width="62.5" height="22" as="geometry" />
        </mxCell>
        <mxCell id="nRD8glROoCP6xElaZEBb-156" style="edgeStyle=orthogonalEdgeStyle;rounded=0;orthogonalLoop=1;jettySize=auto;html=1;" edge="1" parent="1" source="nRD8glROoCP6xElaZEBb-153">
          <mxGeometry relative="1" as="geometry">
            <mxPoint x="2320" y="1000" as="targetPoint" />
            <Array as="points">
              <mxPoint x="2157" y="1000" />
            </Array>
          </mxGeometry>
        </mxCell>
        <mxCell id="nRD8glROoCP6xElaZEBb-153" value="h+=a[1][i];" style="rounded=0;whiteSpace=wrap;html=1;" vertex="1" parent="1">
          <mxGeometry x="2124.38" y="960" width="65" height="20" as="geometry" />
        </mxCell>
        <mxCell id="nRD8glROoCP6xElaZEBb-155" value="0" style="text;html=1;align=center;verticalAlign=middle;resizable=0;points=[];autosize=1;strokeColor=none;fillColor=none;" vertex="1" parent="1">
          <mxGeometry x="2429.38" y="848" width="30" height="30" as="geometry" />
        </mxCell>
        <mxCell id="nRD8glROoCP6xElaZEBb-157" value="" style="endArrow=classic;html=1;rounded=0;entryX=0;entryY=0.5;entryDx=0;entryDy=0;" edge="1" parent="1" target="nRD8glROoCP6xElaZEBb-146">
          <mxGeometry width="50" height="50" relative="1" as="geometry">
            <mxPoint x="2320" y="1000" as="sourcePoint" />
            <mxPoint x="2310" y="790" as="targetPoint" />
            <Array as="points">
              <mxPoint x="2320" y="1040" />
              <mxPoint x="2120" y="1040" />
              <mxPoint x="2120" y="819" />
            </Array>
          </mxGeometry>
        </mxCell>
        <mxCell id="nRD8glROoCP6xElaZEBb-159" value="0" style="text;html=1;align=center;verticalAlign=middle;resizable=0;points=[];autosize=1;strokeColor=none;fillColor=none;" vertex="1" parent="1">
          <mxGeometry x="2415" y="790" width="30" height="30" as="geometry" />
        </mxCell>
        <mxCell id="nRD8glROoCP6xElaZEBb-161" style="edgeStyle=orthogonalEdgeStyle;rounded=0;orthogonalLoop=1;jettySize=auto;html=1;" edge="1" parent="1" source="nRD8glROoCP6xElaZEBb-160" target="nRD8glROoCP6xElaZEBb-163">
          <mxGeometry relative="1" as="geometry">
            <mxPoint x="2210" y="1160" as="targetPoint" />
          </mxGeometry>
        </mxCell>
        <mxCell id="nRD8glROoCP6xElaZEBb-164" style="edgeStyle=orthogonalEdgeStyle;rounded=0;orthogonalLoop=1;jettySize=auto;html=1;" edge="1" parent="1" source="nRD8glROoCP6xElaZEBb-160">
          <mxGeometry relative="1" as="geometry">
            <mxPoint x="2320" y="1200" as="targetPoint" />
            <Array as="points">
              <mxPoint x="2431" y="1108" />
              <mxPoint x="2431" y="1200" />
            </Array>
          </mxGeometry>
        </mxCell>
        <mxCell id="nRD8glROoCP6xElaZEBb-160" value="if (flag1)" style="rhombus;whiteSpace=wrap;html=1;" vertex="1" parent="1">
          <mxGeometry x="2270" y="1068" width="100" height="80" as="geometry" />
        </mxCell>
        <mxCell id="nRD8glROoCP6xElaZEBb-162" value="1" style="text;html=1;align=center;verticalAlign=middle;resizable=0;points=[];autosize=1;strokeColor=none;fillColor=none;" vertex="1" parent="1">
          <mxGeometry x="2235" y="1078" width="30" height="30" as="geometry" />
        </mxCell>
        <mxCell id="nRD8glROoCP6xElaZEBb-166" style="edgeStyle=orthogonalEdgeStyle;rounded=0;orthogonalLoop=1;jettySize=auto;html=1;" edge="1" parent="1" source="nRD8glROoCP6xElaZEBb-163">
          <mxGeometry relative="1" as="geometry">
            <mxPoint x="2320" y="1200" as="targetPoint" />
            <Array as="points">
              <mxPoint x="2203" y="1200" />
            </Array>
          </mxGeometry>
        </mxCell>
        <mxCell id="nRD8glROoCP6xElaZEBb-163" value="h+=podstr.length();" style="rounded=0;whiteSpace=wrap;html=1;" vertex="1" parent="1">
          <mxGeometry x="2143.13" y="1153" width="120" height="20" as="geometry" />
        </mxCell>
        <mxCell id="nRD8glROoCP6xElaZEBb-165" value="0" style="text;html=1;align=center;verticalAlign=middle;resizable=0;points=[];autosize=1;strokeColor=none;fillColor=none;" vertex="1" parent="1">
          <mxGeometry x="2375" y="1078" width="30" height="30" as="geometry" />
        </mxCell>
        <mxCell id="nRD8glROoCP6xElaZEBb-167" value="" style="endArrow=classic;html=1;rounded=0;" edge="1" parent="1">
          <mxGeometry width="50" height="50" relative="1" as="geometry">
            <mxPoint x="2314.38" y="1201" as="sourcePoint" />
            <mxPoint x="2104.38" y="1241" as="targetPoint" />
            <Array as="points">
              <mxPoint x="2314.38" y="1241" />
            </Array>
          </mxGeometry>
        </mxCell>
        <mxCell id="nRD8glROoCP6xElaZEBb-168" value="" style="endArrow=classic;html=1;rounded=0;" edge="1" parent="1">
          <mxGeometry width="50" height="50" relative="1" as="geometry">
            <mxPoint x="2030" y="970" as="sourcePoint" />
            <mxPoint x="2110" y="1240" as="targetPoint" />
            <Array as="points">
              <mxPoint x="2030" y="1240" />
            </Array>
          </mxGeometry>
        </mxCell>
        <mxCell id="nRD8glROoCP6xElaZEBb-169" value="" style="endArrow=classic;html=1;rounded=0;entryX=0;entryY=0.5;entryDx=0;entryDy=0;" edge="1" parent="1" target="nRD8glROoCP6xElaZEBb-125">
          <mxGeometry width="50" height="50" relative="1" as="geometry">
            <mxPoint x="2110" y="1240" as="sourcePoint" />
            <mxPoint x="2110" y="620" as="targetPoint" />
            <Array as="points">
              <mxPoint x="2110" y="1280" />
              <mxPoint x="1780" y="1280" />
              <mxPoint x="1780" y="654" />
            </Array>
          </mxGeometry>
        </mxCell>
        <mxCell id="nRD8glROoCP6xElaZEBb-171" value="0" style="text;html=1;align=center;verticalAlign=middle;resizable=0;points=[];autosize=1;strokeColor=none;fillColor=none;" vertex="1" parent="1">
          <mxGeometry x="2325" y="628" width="30" height="30" as="geometry" />
        </mxCell>
        <mxCell id="nRD8glROoCP6xElaZEBb-173" value="0" style="text;html=1;align=center;verticalAlign=middle;resizable=0;points=[];autosize=1;strokeColor=none;fillColor=none;" vertex="1" parent="1">
          <mxGeometry x="2240" y="238" width="30" height="30" as="geometry" />
        </mxCell>
        <mxCell id="nRD8glROoCP6xElaZEBb-174" value="}" style="ellipse;whiteSpace=wrap;html=1;" vertex="1" parent="1">
          <mxGeometry x="2270" y="320" width="120" height="80" as="geometry" />
        </mxCell>
        <mxCell id="nRD8glROoCP6xElaZEBb-176" style="edgeStyle=orthogonalEdgeStyle;rounded=0;orthogonalLoop=1;jettySize=auto;html=1;" edge="1" parent="1" source="nRD8glROoCP6xElaZEBb-175" target="nRD8glROoCP6xElaZEBb-180">
          <mxGeometry relative="1" as="geometry">
            <mxPoint x="3095" y="130" as="targetPoint" />
          </mxGeometry>
        </mxCell>
        <mxCell id="nRD8glROoCP6xElaZEBb-175" value="int main()" style="shape=process;whiteSpace=wrap;html=1;backgroundOutline=1;" vertex="1" parent="1">
          <mxGeometry x="3050" y="48" width="90" height="32" as="geometry" />
        </mxCell>
        <mxCell id="nRD8glROoCP6xElaZEBb-178" style="edgeStyle=orthogonalEdgeStyle;rounded=0;orthogonalLoop=1;jettySize=auto;html=1;" edge="1" parent="1" source="nRD8glROoCP6xElaZEBb-177">
          <mxGeometry relative="1" as="geometry">
            <mxPoint x="3100" y="97.99999999999989" as="targetPoint" />
          </mxGeometry>
        </mxCell>
        <mxCell id="nRD8glROoCP6xElaZEBb-177" value="&lt;div&gt;#include &amp;lt;iostream&amp;gt;&lt;/div&gt;&lt;div&gt;#include &amp;lt;string&amp;gt;&lt;/div&gt;&lt;div&gt;#include &amp;lt;set&amp;gt;&lt;/div&gt;&lt;div&gt;using namespace std;&lt;/div&gt;" style="strokeWidth=2;html=1;shape=mxgraph.flowchart.annotation_2;align=left;labelPosition=right;pointerEvents=1;" vertex="1" parent="1">
          <mxGeometry x="3240" y="48" width="50" height="100" as="geometry" />
        </mxCell>
        <mxCell id="nRD8glROoCP6xElaZEBb-179" value="{" style="text;html=1;align=center;verticalAlign=middle;resizable=0;points=[];autosize=1;strokeColor=none;fillColor=none;" vertex="1" parent="1">
          <mxGeometry x="3065" y="88" width="30" height="30" as="geometry" />
        </mxCell>
        <mxCell id="nRD8glROoCP6xElaZEBb-181" style="edgeStyle=orthogonalEdgeStyle;rounded=0;orthogonalLoop=1;jettySize=auto;html=1;" edge="1" parent="1" source="nRD8glROoCP6xElaZEBb-180" target="nRD8glROoCP6xElaZEBb-182">
          <mxGeometry relative="1" as="geometry">
            <mxPoint x="3095" y="200" as="targetPoint" />
          </mxGeometry>
        </mxCell>
        <mxCell id="nRD8glROoCP6xElaZEBb-180" value="&lt;div&gt;string str=&quot;abbdkaabcd&quot;,&lt;span style=&quot;background-color: transparent; color: light-dark(rgb(0, 0, 0), rgb(255, 255, 255));&quot;&gt;&amp;nbsp;podstr=&quot;cabc&quot;;&lt;/span&gt;&lt;/div&gt;" style="rounded=0;whiteSpace=wrap;html=1;" vertex="1" parent="1">
          <mxGeometry x="2982.5" y="128" width="225" height="32" as="geometry" />
        </mxCell>
        <mxCell id="nRD8glROoCP6xElaZEBb-183" style="edgeStyle=orthogonalEdgeStyle;rounded=0;orthogonalLoop=1;jettySize=auto;html=1;" edge="1" parent="1" source="nRD8glROoCP6xElaZEBb-182" target="nRD8glROoCP6xElaZEBb-184">
          <mxGeometry relative="1" as="geometry">
            <mxPoint x="3095" y="250" as="targetPoint" />
          </mxGeometry>
        </mxCell>
        <mxCell id="nRD8glROoCP6xElaZEBb-182" value="set&amp;lt;char&amp;gt; f;" style="rounded=0;whiteSpace=wrap;html=1;" vertex="1" parent="1">
          <mxGeometry x="3057.5" y="178" width="75" height="30" as="geometry" />
        </mxCell>
        <mxCell id="nRD8glROoCP6xElaZEBb-185" style="edgeStyle=orthogonalEdgeStyle;rounded=0;orthogonalLoop=1;jettySize=auto;html=1;" edge="1" parent="1" source="nRD8glROoCP6xElaZEBb-184" target="nRD8glROoCP6xElaZEBb-186">
          <mxGeometry relative="1" as="geometry">
            <mxPoint x="3095" y="300" as="targetPoint" />
          </mxGeometry>
        </mxCell>
        <mxCell id="nRD8glROoCP6xElaZEBb-184" value="&lt;div&gt;int a[2][26],&lt;span style=&quot;background-color: transparent; color: light-dark(rgb(0, 0, 0), rgb(255, 255, 255));&quot;&gt;n;&lt;/span&gt;&lt;/div&gt;" style="rounded=0;whiteSpace=wrap;html=1;" vertex="1" parent="1">
          <mxGeometry x="3052.5" y="230" width="85" height="30" as="geometry" />
        </mxCell>
        <mxCell id="nRD8glROoCP6xElaZEBb-187" style="edgeStyle=orthogonalEdgeStyle;rounded=0;orthogonalLoop=1;jettySize=auto;html=1;" edge="1" parent="1" source="nRD8glROoCP6xElaZEBb-186" target="nRD8glROoCP6xElaZEBb-188">
          <mxGeometry relative="1" as="geometry">
            <mxPoint x="3095" y="350" as="targetPoint" />
          </mxGeometry>
        </mxCell>
        <mxCell id="nRD8glROoCP6xElaZEBb-186" value="podchet(str,f,a,n,podstr);" style="rounded=0;whiteSpace=wrap;html=1;" vertex="1" parent="1">
          <mxGeometry x="3027.5" y="280" width="135" height="30" as="geometry" />
        </mxCell>
        <mxCell id="nRD8glROoCP6xElaZEBb-189" style="edgeStyle=orthogonalEdgeStyle;rounded=0;orthogonalLoop=1;jettySize=auto;html=1;" edge="1" parent="1" source="nRD8glROoCP6xElaZEBb-188" target="nRD8glROoCP6xElaZEBb-190">
          <mxGeometry relative="1" as="geometry">
            <mxPoint x="3095" y="410" as="targetPoint" />
          </mxGeometry>
        </mxCell>
        <mxCell id="nRD8glROoCP6xElaZEBb-193" style="edgeStyle=orthogonalEdgeStyle;rounded=0;orthogonalLoop=1;jettySize=auto;html=1;" edge="1" parent="1" source="nRD8glROoCP6xElaZEBb-188" target="nRD8glROoCP6xElaZEBb-195">
          <mxGeometry relative="1" as="geometry">
            <mxPoint x="3095" y="480" as="targetPoint" />
            <Array as="points">
              <mxPoint x="3211" y="345" />
              <mxPoint x="3211" y="450" />
            </Array>
          </mxGeometry>
        </mxCell>
        <mxCell id="nRD8glROoCP6xElaZEBb-188" value="for(int i=0;i&amp;lt;n;i++)" style="shape=hexagon;perimeter=hexagonPerimeter2;whiteSpace=wrap;html=1;fixedSize=1;" vertex="1" parent="1">
          <mxGeometry x="3035" y="330" width="120" height="30" as="geometry" />
        </mxCell>
        <mxCell id="nRD8glROoCP6xElaZEBb-191" style="edgeStyle=orthogonalEdgeStyle;rounded=0;orthogonalLoop=1;jettySize=auto;html=1;entryX=0;entryY=0.5;entryDx=0;entryDy=0;" edge="1" parent="1" source="nRD8glROoCP6xElaZEBb-190" target="nRD8glROoCP6xElaZEBb-188">
          <mxGeometry relative="1" as="geometry">
            <mxPoint x="3070" y="480" as="targetPoint" />
            <Array as="points">
              <mxPoint x="3095" y="430" />
              <mxPoint x="2970" y="430" />
              <mxPoint x="2970" y="345" />
            </Array>
          </mxGeometry>
        </mxCell>
        <mxCell id="nRD8glROoCP6xElaZEBb-190" value="cout&amp;lt;&amp;lt;static_cast&amp;lt;char&amp;gt;(a[0][i])&amp;lt;&amp;lt;&quot; &quot;;" style="shape=parallelogram;perimeter=parallelogramPerimeter;whiteSpace=wrap;html=1;fixedSize=1;" vertex="1" parent="1">
          <mxGeometry x="2982.5" y="388" width="225" height="22" as="geometry" />
        </mxCell>
        <mxCell id="nRD8glROoCP6xElaZEBb-192" value="1" style="text;html=1;align=center;verticalAlign=middle;resizable=0;points=[];autosize=1;strokeColor=none;fillColor=none;" vertex="1" parent="1">
          <mxGeometry x="3065" y="358" width="30" height="30" as="geometry" />
        </mxCell>
        <mxCell id="nRD8glROoCP6xElaZEBb-194" value="0" style="text;html=1;align=center;verticalAlign=middle;resizable=0;points=[];autosize=1;strokeColor=none;fillColor=none;" vertex="1" parent="1">
          <mxGeometry x="3165" y="318" width="30" height="30" as="geometry" />
        </mxCell>
        <mxCell id="nRD8glROoCP6xElaZEBb-196" style="edgeStyle=orthogonalEdgeStyle;rounded=0;orthogonalLoop=1;jettySize=auto;html=1;" edge="1" parent="1" source="nRD8glROoCP6xElaZEBb-195" target="nRD8glROoCP6xElaZEBb-197">
          <mxGeometry relative="1" as="geometry">
            <mxPoint x="3095" y="550" as="targetPoint" />
          </mxGeometry>
        </mxCell>
        <mxCell id="nRD8glROoCP6xElaZEBb-195" value="cout&amp;lt;&amp;lt;endl;" style="shape=parallelogram;perimeter=parallelogramPerimeter;whiteSpace=wrap;html=1;fixedSize=1;" vertex="1" parent="1">
          <mxGeometry x="3035" y="473" width="120" height="27" as="geometry" />
        </mxCell>
        <mxCell id="nRD8glROoCP6xElaZEBb-198" style="edgeStyle=orthogonalEdgeStyle;rounded=0;orthogonalLoop=1;jettySize=auto;html=1;" edge="1" parent="1" source="nRD8glROoCP6xElaZEBb-197" target="nRD8glROoCP6xElaZEBb-199">
          <mxGeometry relative="1" as="geometry">
            <mxPoint x="3095" y="590" as="targetPoint" />
          </mxGeometry>
        </mxCell>
        <mxCell id="nRD8glROoCP6xElaZEBb-197" value="tabl_smesh(str,podstr,n,a);" style="rounded=0;whiteSpace=wrap;html=1;" vertex="1" parent="1">
          <mxGeometry x="3012.5" y="520" width="165" height="30" as="geometry" />
        </mxCell>
        <mxCell id="nRD8glROoCP6xElaZEBb-200" style="edgeStyle=orthogonalEdgeStyle;rounded=0;orthogonalLoop=1;jettySize=auto;html=1;" edge="1" parent="1" source="nRD8glROoCP6xElaZEBb-199" target="nRD8glROoCP6xElaZEBb-202">
          <mxGeometry relative="1" as="geometry">
            <mxPoint x="3095" y="650" as="targetPoint" />
          </mxGeometry>
        </mxCell>
        <mxCell id="nRD8glROoCP6xElaZEBb-204" style="edgeStyle=orthogonalEdgeStyle;rounded=0;orthogonalLoop=1;jettySize=auto;html=1;" edge="1" parent="1" source="nRD8glROoCP6xElaZEBb-199" target="nRD8glROoCP6xElaZEBb-206">
          <mxGeometry relative="1" as="geometry">
            <mxPoint x="3220" y="700" as="targetPoint" />
          </mxGeometry>
        </mxCell>
        <mxCell id="nRD8glROoCP6xElaZEBb-199" value="for(int i=0;i&amp;lt;n;i++)" style="shape=hexagon;perimeter=hexagonPerimeter2;whiteSpace=wrap;html=1;fixedSize=1;" vertex="1" parent="1">
          <mxGeometry x="3035" y="570" width="120" height="30" as="geometry" />
        </mxCell>
        <mxCell id="nRD8glROoCP6xElaZEBb-201" value="1" style="text;html=1;align=center;verticalAlign=middle;resizable=0;points=[];autosize=1;strokeColor=none;fillColor=none;" vertex="1" parent="1">
          <mxGeometry x="3065" y="600" width="30" height="30" as="geometry" />
        </mxCell>
        <mxCell id="nRD8glROoCP6xElaZEBb-203" style="edgeStyle=orthogonalEdgeStyle;rounded=0;orthogonalLoop=1;jettySize=auto;html=1;entryX=0;entryY=0.5;entryDx=0;entryDy=0;" edge="1" parent="1" source="nRD8glROoCP6xElaZEBb-202" target="nRD8glROoCP6xElaZEBb-199">
          <mxGeometry relative="1" as="geometry">
            <mxPoint x="3090" y="730" as="targetPoint" />
            <Array as="points">
              <mxPoint x="3095" y="690" />
              <mxPoint x="3020" y="690" />
              <mxPoint x="3020" y="585" />
            </Array>
          </mxGeometry>
        </mxCell>
        <mxCell id="nRD8glROoCP6xElaZEBb-202" value="cout&amp;lt;&amp;lt;a[1][i]&amp;lt;&amp;lt;&quot; &quot;;" style="shape=parallelogram;perimeter=parallelogramPerimeter;whiteSpace=wrap;html=1;fixedSize=1;" vertex="1" parent="1">
          <mxGeometry x="3035" y="638" width="120" height="32" as="geometry" />
        </mxCell>
        <mxCell id="nRD8glROoCP6xElaZEBb-205" value="0" style="text;html=1;align=center;verticalAlign=middle;resizable=0;points=[];autosize=1;strokeColor=none;fillColor=none;" vertex="1" parent="1">
          <mxGeometry x="3155" y="558" width="30" height="30" as="geometry" />
        </mxCell>
        <mxCell id="nRD8glROoCP6xElaZEBb-207" style="edgeStyle=orthogonalEdgeStyle;rounded=0;orthogonalLoop=1;jettySize=auto;html=1;" edge="1" parent="1" source="nRD8glROoCP6xElaZEBb-206" target="nRD8glROoCP6xElaZEBb-208">
          <mxGeometry relative="1" as="geometry">
            <mxPoint x="3220" y="750" as="targetPoint" />
          </mxGeometry>
        </mxCell>
        <mxCell id="nRD8glROoCP6xElaZEBb-206" value="cout&amp;lt;&amp;lt;endl;" style="shape=parallelogram;perimeter=parallelogramPerimeter;whiteSpace=wrap;html=1;fixedSize=1;" vertex="1" parent="1">
          <mxGeometry x="3160" y="670" width="120" height="30" as="geometry" />
        </mxCell>
        <mxCell id="nRD8glROoCP6xElaZEBb-209" style="edgeStyle=orthogonalEdgeStyle;rounded=0;orthogonalLoop=1;jettySize=auto;html=1;" edge="1" parent="1" source="nRD8glROoCP6xElaZEBb-208" target="nRD8glROoCP6xElaZEBb-210">
          <mxGeometry relative="1" as="geometry">
            <mxPoint x="3220" y="790" as="targetPoint" />
          </mxGeometry>
        </mxCell>
        <mxCell id="nRD8glROoCP6xElaZEBb-208" value="search(str,podstr,a,n);" style="rounded=0;whiteSpace=wrap;html=1;" vertex="1" parent="1">
          <mxGeometry x="3160" y="720" width="120" height="30" as="geometry" />
        </mxCell>
        <mxCell id="nRD8glROoCP6xElaZEBb-210" value="return 0;" style="ellipse;whiteSpace=wrap;html=1;" vertex="1" parent="1">
          <mxGeometry x="3160" y="790" width="120" height="80" as="geometry" />
        </mxCell>
      </root>
    </mxGraphModel>
  </diagram>
  <diagram id="nkToUNA9h24-6RT2YxWu" name="2 поиск">
    <mxGraphModel dx="5347" dy="2940" grid="1" gridSize="10" guides="1" tooltips="1" connect="1" arrows="1" fold="1" page="1" pageScale="1" pageWidth="1169" pageHeight="827" math="0" shadow="0">
      <root>
        <mxCell id="0" />
        <mxCell id="1" parent="0" />
        <mxCell id="NA9MMUjDrhDWRf3_gFzs-2" style="edgeStyle=orthogonalEdgeStyle;rounded=0;orthogonalLoop=1;jettySize=auto;html=1;" edge="1" parent="1" source="NA9MMUjDrhDWRf3_gFzs-1" target="NA9MMUjDrhDWRf3_gFzs-3">
          <mxGeometry relative="1" as="geometry">
            <mxPoint x="-2149.5" y="90" as="targetPoint" />
          </mxGeometry>
        </mxCell>
        <mxCell id="NA9MMUjDrhDWRf3_gFzs-1" value="void prefix(int a[2][26],string podstr)" style="shape=process;whiteSpace=wrap;html=1;backgroundOutline=1;" vertex="1" parent="1">
          <mxGeometry x="-2279" y="20" width="259" height="40" as="geometry" />
        </mxCell>
        <mxCell id="NA9MMUjDrhDWRf3_gFzs-5" style="edgeStyle=orthogonalEdgeStyle;rounded=0;orthogonalLoop=1;jettySize=auto;html=1;" edge="1" parent="1" source="NA9MMUjDrhDWRf3_gFzs-3" target="NA9MMUjDrhDWRf3_gFzs-7">
          <mxGeometry relative="1" as="geometry">
            <mxPoint x="-2149.5" y="180" as="targetPoint" />
          </mxGeometry>
        </mxCell>
        <mxCell id="NA9MMUjDrhDWRf3_gFzs-9" style="edgeStyle=orthogonalEdgeStyle;rounded=0;orthogonalLoop=1;jettySize=auto;html=1;" edge="1" parent="1" source="NA9MMUjDrhDWRf3_gFzs-3" target="NA9MMUjDrhDWRf3_gFzs-11">
          <mxGeometry relative="1" as="geometry">
            <mxPoint x="-2150" y="260" as="targetPoint" />
            <Array as="points">
              <mxPoint x="-2029" y="115" />
              <mxPoint x="-2029" y="230" />
            </Array>
          </mxGeometry>
        </mxCell>
        <mxCell id="NA9MMUjDrhDWRf3_gFzs-3" value="for(int i=0;i&amp;lt;podstr.length();i++)" style="shape=hexagon;perimeter=hexagonPerimeter2;whiteSpace=wrap;html=1;fixedSize=1;" vertex="1" parent="1">
          <mxGeometry x="-2239.25" y="100" width="179.5" height="30" as="geometry" />
        </mxCell>
        <mxCell id="NA9MMUjDrhDWRf3_gFzs-4" value="{" style="text;html=1;align=center;verticalAlign=middle;resizable=0;points=[];autosize=1;strokeColor=none;fillColor=none;" vertex="1" parent="1">
          <mxGeometry x="-2180" y="60" width="30" height="30" as="geometry" />
        </mxCell>
        <mxCell id="NA9MMUjDrhDWRf3_gFzs-6" value="1" style="text;html=1;align=center;verticalAlign=middle;resizable=0;points=[];autosize=1;strokeColor=none;fillColor=none;" vertex="1" parent="1">
          <mxGeometry x="-2180" y="130" width="30" height="30" as="geometry" />
        </mxCell>
        <mxCell id="NA9MMUjDrhDWRf3_gFzs-8" style="edgeStyle=orthogonalEdgeStyle;rounded=0;orthogonalLoop=1;jettySize=auto;html=1;entryX=0;entryY=0.5;entryDx=0;entryDy=0;" edge="1" parent="1" source="NA9MMUjDrhDWRf3_gFzs-7" target="NA9MMUjDrhDWRf3_gFzs-3">
          <mxGeometry relative="1" as="geometry">
            <mxPoint x="-2170" y="260" as="targetPoint" />
            <Array as="points">
              <mxPoint x="-2149" y="210" />
              <mxPoint x="-2260" y="210" />
              <mxPoint x="-2260" y="115" />
            </Array>
          </mxGeometry>
        </mxCell>
        <mxCell id="NA9MMUjDrhDWRf3_gFzs-7" value="a[1][i]=0;" style="rounded=0;whiteSpace=wrap;html=1;" vertex="1" parent="1">
          <mxGeometry x="-2179.75" y="168" width="60.5" height="32" as="geometry" />
        </mxCell>
        <mxCell id="NA9MMUjDrhDWRf3_gFzs-10" value="0" style="text;html=1;align=center;verticalAlign=middle;resizable=0;points=[];autosize=1;strokeColor=none;fillColor=none;" vertex="1" parent="1">
          <mxGeometry x="-2065" y="88" width="30" height="30" as="geometry" />
        </mxCell>
        <mxCell id="NA9MMUjDrhDWRf3_gFzs-12" style="edgeStyle=orthogonalEdgeStyle;rounded=0;orthogonalLoop=1;jettySize=auto;html=1;" edge="1" parent="1" source="NA9MMUjDrhDWRf3_gFzs-11" target="NA9MMUjDrhDWRf3_gFzs-14">
          <mxGeometry relative="1" as="geometry">
            <mxPoint x="-2149.5" y="320" as="targetPoint" />
          </mxGeometry>
        </mxCell>
        <mxCell id="NA9MMUjDrhDWRf3_gFzs-34" style="edgeStyle=orthogonalEdgeStyle;rounded=0;orthogonalLoop=1;jettySize=auto;html=1;" edge="1" parent="1" source="NA9MMUjDrhDWRf3_gFzs-11" target="NA9MMUjDrhDWRf3_gFzs-35">
          <mxGeometry relative="1" as="geometry">
            <mxPoint x="-1930" y="340" as="targetPoint" />
          </mxGeometry>
        </mxCell>
        <mxCell id="NA9MMUjDrhDWRf3_gFzs-11" value="for (int i = 1; i &amp;lt; podstr.length(); i++)" style="shape=hexagon;perimeter=hexagonPerimeter2;whiteSpace=wrap;html=1;fixedSize=1;" vertex="1" parent="1">
          <mxGeometry x="-2254.25" y="250" width="209.5" height="30" as="geometry" />
        </mxCell>
        <mxCell id="NA9MMUjDrhDWRf3_gFzs-13" value="1" style="text;html=1;align=center;verticalAlign=middle;resizable=0;points=[];autosize=1;strokeColor=none;fillColor=none;" vertex="1" parent="1">
          <mxGeometry x="-2175" y="278" width="30" height="30" as="geometry" />
        </mxCell>
        <mxCell id="NA9MMUjDrhDWRf3_gFzs-15" style="edgeStyle=orthogonalEdgeStyle;rounded=0;orthogonalLoop=1;jettySize=auto;html=1;" edge="1" parent="1" source="NA9MMUjDrhDWRf3_gFzs-14" target="NA9MMUjDrhDWRf3_gFzs-16">
          <mxGeometry relative="1" as="geometry">
            <mxPoint x="-2149.5" y="360" as="targetPoint" />
          </mxGeometry>
        </mxCell>
        <mxCell id="NA9MMUjDrhDWRf3_gFzs-14" value="int j = a[1][i - 1];" style="rounded=0;whiteSpace=wrap;html=1;" vertex="1" parent="1">
          <mxGeometry x="-2199.75" y="308" width="100.5" height="22" as="geometry" />
        </mxCell>
        <mxCell id="NA9MMUjDrhDWRf3_gFzs-17" style="edgeStyle=orthogonalEdgeStyle;rounded=0;orthogonalLoop=1;jettySize=auto;html=1;" edge="1" parent="1" source="NA9MMUjDrhDWRf3_gFzs-16" target="NA9MMUjDrhDWRf3_gFzs-19">
          <mxGeometry relative="1" as="geometry">
            <mxPoint x="-2149.75" y="500" as="targetPoint" />
          </mxGeometry>
        </mxCell>
        <mxCell id="NA9MMUjDrhDWRf3_gFzs-22" style="edgeStyle=orthogonalEdgeStyle;rounded=0;orthogonalLoop=1;jettySize=auto;html=1;" edge="1" parent="1" source="NA9MMUjDrhDWRf3_gFzs-16" target="NA9MMUjDrhDWRf3_gFzs-24">
          <mxGeometry relative="1" as="geometry">
            <mxPoint x="-2150" y="570" as="targetPoint" />
            <Array as="points">
              <mxPoint x="-2000" y="400" />
              <mxPoint x="-2000" y="560" />
            </Array>
          </mxGeometry>
        </mxCell>
        <mxCell id="NA9MMUjDrhDWRf3_gFzs-16" value="while (j &amp;gt; 0 &amp;amp;&amp;amp; podstr[i] != podstr[j])" style="rhombus;whiteSpace=wrap;html=1;" vertex="1" parent="1">
          <mxGeometry x="-2264.5" y="360" width="229.5" height="80" as="geometry" />
        </mxCell>
        <mxCell id="NA9MMUjDrhDWRf3_gFzs-18" value="1" style="text;html=1;align=center;verticalAlign=middle;resizable=0;points=[];autosize=1;strokeColor=none;fillColor=none;" vertex="1" parent="1">
          <mxGeometry x="-2175" y="440" width="30" height="30" as="geometry" />
        </mxCell>
        <mxCell id="NA9MMUjDrhDWRf3_gFzs-21" style="edgeStyle=orthogonalEdgeStyle;rounded=0;orthogonalLoop=1;jettySize=auto;html=1;" edge="1" parent="1" source="NA9MMUjDrhDWRf3_gFzs-19">
          <mxGeometry relative="1" as="geometry">
            <mxPoint x="-2150" y="340" as="targetPoint" />
            <Array as="points">
              <mxPoint x="-2150" y="540" />
              <mxPoint x="-2280" y="540" />
              <mxPoint x="-2280" y="340" />
            </Array>
          </mxGeometry>
        </mxCell>
        <mxCell id="NA9MMUjDrhDWRf3_gFzs-19" value="j = a[1][j - 1];" style="rounded=0;whiteSpace=wrap;html=1;" vertex="1" parent="1">
          <mxGeometry x="-2192.37" y="480" width="85.75" height="30" as="geometry" />
        </mxCell>
        <mxCell id="NA9MMUjDrhDWRf3_gFzs-23" value="0" style="text;html=1;align=center;verticalAlign=middle;resizable=0;points=[];autosize=1;strokeColor=none;fillColor=none;" vertex="1" parent="1">
          <mxGeometry x="-2035" y="378" width="30" height="30" as="geometry" />
        </mxCell>
        <mxCell id="NA9MMUjDrhDWRf3_gFzs-25" style="edgeStyle=orthogonalEdgeStyle;rounded=0;orthogonalLoop=1;jettySize=auto;html=1;" edge="1" parent="1" source="NA9MMUjDrhDWRf3_gFzs-24" target="NA9MMUjDrhDWRf3_gFzs-27">
          <mxGeometry relative="1" as="geometry">
            <mxPoint x="-2270" y="670" as="targetPoint" />
          </mxGeometry>
        </mxCell>
        <mxCell id="NA9MMUjDrhDWRf3_gFzs-28" style="edgeStyle=orthogonalEdgeStyle;rounded=0;orthogonalLoop=1;jettySize=auto;html=1;" edge="1" parent="1" source="NA9MMUjDrhDWRf3_gFzs-24">
          <mxGeometry relative="1" as="geometry">
            <mxPoint x="-2149" y="720" as="targetPoint" />
            <Array as="points">
              <mxPoint x="-2020" y="620" />
              <mxPoint x="-2020" y="720" />
            </Array>
          </mxGeometry>
        </mxCell>
        <mxCell id="NA9MMUjDrhDWRf3_gFzs-24" value="if (podstr[i] == podstr[j])" style="rhombus;whiteSpace=wrap;html=1;" vertex="1" parent="1">
          <mxGeometry x="-2224.37" y="580" width="149.75" height="80" as="geometry" />
        </mxCell>
        <mxCell id="NA9MMUjDrhDWRf3_gFzs-26" value="1" style="text;html=1;align=center;verticalAlign=middle;resizable=0;points=[];autosize=1;strokeColor=none;fillColor=none;" vertex="1" parent="1">
          <mxGeometry x="-2265" y="598" width="30" height="30" as="geometry" />
        </mxCell>
        <mxCell id="NA9MMUjDrhDWRf3_gFzs-30" style="edgeStyle=orthogonalEdgeStyle;rounded=0;orthogonalLoop=1;jettySize=auto;html=1;" edge="1" parent="1" source="NA9MMUjDrhDWRf3_gFzs-27">
          <mxGeometry relative="1" as="geometry">
            <mxPoint x="-2150" y="720" as="targetPoint" />
            <Array as="points">
              <mxPoint x="-2262" y="720" />
            </Array>
          </mxGeometry>
        </mxCell>
        <mxCell id="NA9MMUjDrhDWRf3_gFzs-27" value="j++;" style="rounded=0;whiteSpace=wrap;html=1;" vertex="1" parent="1">
          <mxGeometry x="-2279" y="670" width="35" height="20" as="geometry" />
        </mxCell>
        <mxCell id="NA9MMUjDrhDWRf3_gFzs-29" value="0" style="text;html=1;align=center;verticalAlign=middle;resizable=0;points=[];autosize=1;strokeColor=none;fillColor=none;" vertex="1" parent="1">
          <mxGeometry x="-2065" y="598" width="30" height="30" as="geometry" />
        </mxCell>
        <mxCell id="NA9MMUjDrhDWRf3_gFzs-31" value="" style="endArrow=classic;html=1;rounded=0;" edge="1" parent="1" target="NA9MMUjDrhDWRf3_gFzs-32">
          <mxGeometry width="50" height="50" relative="1" as="geometry">
            <mxPoint x="-2150" y="720" as="sourcePoint" />
            <mxPoint x="-2150" y="760" as="targetPoint" />
          </mxGeometry>
        </mxCell>
        <mxCell id="NA9MMUjDrhDWRf3_gFzs-33" style="edgeStyle=orthogonalEdgeStyle;rounded=0;orthogonalLoop=1;jettySize=auto;html=1;entryX=0;entryY=0.5;entryDx=0;entryDy=0;" edge="1" parent="1" source="NA9MMUjDrhDWRf3_gFzs-32" target="NA9MMUjDrhDWRf3_gFzs-11">
          <mxGeometry relative="1" as="geometry">
            <mxPoint x="-2310" y="198.74608533135776" as="targetPoint" />
            <Array as="points">
              <mxPoint x="-2149" y="820" />
              <mxPoint x="-2310" y="820" />
              <mxPoint x="-2310" y="265" />
            </Array>
          </mxGeometry>
        </mxCell>
        <mxCell id="NA9MMUjDrhDWRf3_gFzs-32" value="a[1][i] = j;" style="rounded=0;whiteSpace=wrap;html=1;" vertex="1" parent="1">
          <mxGeometry x="-2184.75" y="740" width="70.51" height="20" as="geometry" />
        </mxCell>
        <mxCell id="NA9MMUjDrhDWRf3_gFzs-35" value="}" style="ellipse;whiteSpace=wrap;html=1;" vertex="1" parent="1">
          <mxGeometry x="-1990" y="300" width="120" height="80" as="geometry" />
        </mxCell>
        <mxCell id="NA9MMUjDrhDWRf3_gFzs-37" style="edgeStyle=orthogonalEdgeStyle;rounded=0;orthogonalLoop=1;jettySize=auto;html=1;" edge="1" parent="1" source="NA9MMUjDrhDWRf3_gFzs-36" target="NA9MMUjDrhDWRf3_gFzs-39">
          <mxGeometry relative="1" as="geometry">
            <mxPoint x="-1410.0000000000005" y="140" as="targetPoint" />
          </mxGeometry>
        </mxCell>
        <mxCell id="NA9MMUjDrhDWRf3_gFzs-36" value="void searchWithPrefix(const string str, const string podstr, int a[2][26])" style="shape=process;whiteSpace=wrap;html=1;backgroundOutline=1;" vertex="1" parent="1">
          <mxGeometry x="-1650" y="20" width="480" height="30" as="geometry" />
        </mxCell>
        <mxCell id="NA9MMUjDrhDWRf3_gFzs-38" value="{" style="text;html=1;align=center;verticalAlign=middle;resizable=0;points=[];autosize=1;strokeColor=none;fillColor=none;" vertex="1" parent="1">
          <mxGeometry x="-1445" y="68" width="30" height="30" as="geometry" />
        </mxCell>
        <mxCell id="NA9MMUjDrhDWRf3_gFzs-40" style="edgeStyle=orthogonalEdgeStyle;rounded=0;orthogonalLoop=1;jettySize=auto;html=1;" edge="1" parent="1" source="NA9MMUjDrhDWRf3_gFzs-39" target="NA9MMUjDrhDWRf3_gFzs-41">
          <mxGeometry relative="1" as="geometry">
            <mxPoint x="-1410" y="160" as="targetPoint" />
          </mxGeometry>
        </mxCell>
        <mxCell id="NA9MMUjDrhDWRf3_gFzs-39" value="&lt;div&gt;int n = str.length(),&lt;span style=&quot;background-color: transparent; color: light-dark(rgb(0, 0, 0), rgb(255, 255, 255));&quot;&gt;m = podstr.length(),&lt;/span&gt;&lt;span style=&quot;background-color: transparent; color: light-dark(rgb(0, 0, 0), rgb(255, 255, 255));&quot;&gt;&amp;nbsp;j = 0;&lt;/span&gt;&lt;/div&gt;" style="rounded=0;whiteSpace=wrap;html=1;" vertex="1" parent="1">
          <mxGeometry x="-1530" y="108" width="240" height="22" as="geometry" />
        </mxCell>
        <mxCell id="NA9MMUjDrhDWRf3_gFzs-42" style="edgeStyle=orthogonalEdgeStyle;rounded=0;orthogonalLoop=1;jettySize=auto;html=1;" edge="1" parent="1" source="NA9MMUjDrhDWRf3_gFzs-41" target="NA9MMUjDrhDWRf3_gFzs-44">
          <mxGeometry relative="1" as="geometry">
            <mxPoint x="-1410" y="220" as="targetPoint" />
          </mxGeometry>
        </mxCell>
        <mxCell id="NA9MMUjDrhDWRf3_gFzs-92" style="edgeStyle=orthogonalEdgeStyle;rounded=0;orthogonalLoop=1;jettySize=auto;html=1;" edge="1" parent="1" source="NA9MMUjDrhDWRf3_gFzs-41" target="NA9MMUjDrhDWRf3_gFzs-93">
          <mxGeometry relative="1" as="geometry">
            <mxPoint x="-1178.7879231770833" y="270" as="targetPoint" />
          </mxGeometry>
        </mxCell>
        <mxCell id="NA9MMUjDrhDWRf3_gFzs-41" value="for (int i = 0; i &amp;lt; n; i++)" style="shape=hexagon;perimeter=hexagonPerimeter2;whiteSpace=wrap;html=1;fixedSize=1;" vertex="1" parent="1">
          <mxGeometry x="-1475" y="150" width="130" height="30" as="geometry" />
        </mxCell>
        <mxCell id="NA9MMUjDrhDWRf3_gFzs-43" value="1" style="text;html=1;align=center;verticalAlign=middle;resizable=0;points=[];autosize=1;strokeColor=none;fillColor=none;" vertex="1" parent="1">
          <mxGeometry x="-1435" y="178" width="30" height="30" as="geometry" />
        </mxCell>
        <mxCell id="NA9MMUjDrhDWRf3_gFzs-45" style="edgeStyle=orthogonalEdgeStyle;rounded=0;orthogonalLoop=1;jettySize=auto;html=1;" edge="1" parent="1" source="NA9MMUjDrhDWRf3_gFzs-44" target="NA9MMUjDrhDWRf3_gFzs-46">
          <mxGeometry relative="1" as="geometry">
            <mxPoint x="-1410" y="280" as="targetPoint" />
          </mxGeometry>
        </mxCell>
        <mxCell id="NA9MMUjDrhDWRf3_gFzs-44" value="cout&amp;lt;&amp;lt;str&amp;lt;&amp;lt;endl;" style="shape=parallelogram;perimeter=parallelogramPerimeter;whiteSpace=wrap;html=1;fixedSize=1;" vertex="1" parent="1">
          <mxGeometry x="-1470" y="208" width="120" height="32" as="geometry" />
        </mxCell>
        <mxCell id="NA9MMUjDrhDWRf3_gFzs-47" style="edgeStyle=orthogonalEdgeStyle;rounded=0;orthogonalLoop=1;jettySize=auto;html=1;" edge="1" parent="1" source="NA9MMUjDrhDWRf3_gFzs-46" target="NA9MMUjDrhDWRf3_gFzs-49">
          <mxGeometry relative="1" as="geometry">
            <mxPoint x="-1410" y="330" as="targetPoint" />
          </mxGeometry>
        </mxCell>
        <mxCell id="NA9MMUjDrhDWRf3_gFzs-51" style="edgeStyle=orthogonalEdgeStyle;rounded=0;orthogonalLoop=1;jettySize=auto;html=1;" edge="1" parent="1" source="NA9MMUjDrhDWRf3_gFzs-46" target="NA9MMUjDrhDWRf3_gFzs-53">
          <mxGeometry relative="1" as="geometry">
            <mxPoint x="-1410" y="410" as="targetPoint" />
            <Array as="points">
              <mxPoint x="-1329" y="285" />
              <mxPoint x="-1329" y="390" />
            </Array>
          </mxGeometry>
        </mxCell>
        <mxCell id="NA9MMUjDrhDWRf3_gFzs-46" value="for(int k=0;k&amp;lt;i-j;k++)" style="shape=hexagon;perimeter=hexagonPerimeter2;whiteSpace=wrap;html=1;fixedSize=1;" vertex="1" parent="1">
          <mxGeometry x="-1470" y="270" width="120" height="30" as="geometry" />
        </mxCell>
        <mxCell id="NA9MMUjDrhDWRf3_gFzs-48" value="1" style="text;html=1;align=center;verticalAlign=middle;resizable=0;points=[];autosize=1;strokeColor=none;fillColor=none;" vertex="1" parent="1">
          <mxGeometry x="-1435" y="298" width="30" height="30" as="geometry" />
        </mxCell>
        <mxCell id="NA9MMUjDrhDWRf3_gFzs-50" style="edgeStyle=orthogonalEdgeStyle;rounded=0;orthogonalLoop=1;jettySize=auto;html=1;entryX=0;entryY=0.5;entryDx=0;entryDy=0;" edge="1" parent="1" source="NA9MMUjDrhDWRf3_gFzs-49" target="NA9MMUjDrhDWRf3_gFzs-46">
          <mxGeometry relative="1" as="geometry">
            <mxPoint x="-1470" y="380" as="targetPoint" />
            <Array as="points">
              <mxPoint x="-1410" y="375" />
              <mxPoint x="-1490" y="375" />
              <mxPoint x="-1490" y="285" />
            </Array>
          </mxGeometry>
        </mxCell>
        <mxCell id="NA9MMUjDrhDWRf3_gFzs-49" value="cout&amp;lt;&amp;lt;&quot; &quot;;" style="shape=parallelogram;perimeter=parallelogramPerimeter;whiteSpace=wrap;html=1;fixedSize=1;" vertex="1" parent="1">
          <mxGeometry x="-1455" y="328" width="90" height="22" as="geometry" />
        </mxCell>
        <mxCell id="NA9MMUjDrhDWRf3_gFzs-52" value="0" style="text;html=1;align=center;verticalAlign=middle;resizable=0;points=[];autosize=1;strokeColor=none;fillColor=none;" vertex="1" parent="1">
          <mxGeometry x="-1355" y="258" width="30" height="30" as="geometry" />
        </mxCell>
        <mxCell id="NA9MMUjDrhDWRf3_gFzs-54" style="edgeStyle=orthogonalEdgeStyle;rounded=0;orthogonalLoop=1;jettySize=auto;html=1;" edge="1" parent="1" source="NA9MMUjDrhDWRf3_gFzs-53" target="NA9MMUjDrhDWRf3_gFzs-55">
          <mxGeometry relative="1" as="geometry">
            <mxPoint x="-1422.5" y="480" as="targetPoint" />
          </mxGeometry>
        </mxCell>
        <mxCell id="NA9MMUjDrhDWRf3_gFzs-53" value="cout&amp;lt;&amp;lt;podstr&amp;lt;&amp;lt;endl;" style="shape=parallelogram;perimeter=parallelogramPerimeter;whiteSpace=wrap;html=1;fixedSize=1;" vertex="1" parent="1">
          <mxGeometry x="-1490" y="400" width="135" height="30" as="geometry" />
        </mxCell>
        <mxCell id="NA9MMUjDrhDWRf3_gFzs-56" style="edgeStyle=orthogonalEdgeStyle;rounded=0;orthogonalLoop=1;jettySize=auto;html=1;" edge="1" parent="1" source="NA9MMUjDrhDWRf3_gFzs-55" target="NA9MMUjDrhDWRf3_gFzs-58">
          <mxGeometry relative="1" as="geometry">
            <mxPoint x="-1422.5" y="580" as="targetPoint" />
          </mxGeometry>
        </mxCell>
        <mxCell id="NA9MMUjDrhDWRf3_gFzs-71" style="edgeStyle=orthogonalEdgeStyle;rounded=0;orthogonalLoop=1;jettySize=auto;html=1;" edge="1" parent="1" source="NA9MMUjDrhDWRf3_gFzs-55" target="NA9MMUjDrhDWRf3_gFzs-73">
          <mxGeometry relative="1" as="geometry">
            <mxPoint x="-1410" y="900" as="targetPoint" />
            <Array as="points">
              <mxPoint x="-1270" y="495" />
              <mxPoint x="-1270" y="870" />
              <mxPoint x="-1410" y="870" />
            </Array>
          </mxGeometry>
        </mxCell>
        <mxCell id="NA9MMUjDrhDWRf3_gFzs-55" value="while (j &amp;gt; 0 &amp;amp;&amp;amp; str[i] != podstr[j])" style="rhombus;whiteSpace=wrap;html=1;" vertex="1" parent="1">
          <mxGeometry x="-1521.25" y="455" width="197.5" height="80" as="geometry" />
        </mxCell>
        <mxCell id="NA9MMUjDrhDWRf3_gFzs-57" value="1" style="text;html=1;align=center;verticalAlign=middle;resizable=0;points=[];autosize=1;strokeColor=none;fillColor=none;" vertex="1" parent="1">
          <mxGeometry x="-1455" y="535" width="30" height="30" as="geometry" />
        </mxCell>
        <mxCell id="NA9MMUjDrhDWRf3_gFzs-59" style="edgeStyle=orthogonalEdgeStyle;rounded=0;orthogonalLoop=1;jettySize=auto;html=1;" edge="1" parent="1" source="NA9MMUjDrhDWRf3_gFzs-58" target="NA9MMUjDrhDWRf3_gFzs-60">
          <mxGeometry relative="1" as="geometry">
            <mxPoint x="-1422.5" y="630" as="targetPoint" />
          </mxGeometry>
        </mxCell>
        <mxCell id="NA9MMUjDrhDWRf3_gFzs-58" value="j =a[1][j - 1];" style="rounded=0;whiteSpace=wrap;html=1;" vertex="1" parent="1">
          <mxGeometry x="-1461.25" y="566" width="77.5" height="32" as="geometry" />
        </mxCell>
        <mxCell id="NA9MMUjDrhDWRf3_gFzs-60" value="cout &amp;lt;&amp;lt; str &amp;lt;&amp;lt; endl;" style="shape=parallelogram;perimeter=parallelogramPerimeter;whiteSpace=wrap;html=1;fixedSize=1;" vertex="1" parent="1">
          <mxGeometry x="-1486.25" y="620" width="127.5" height="30" as="geometry" />
        </mxCell>
        <mxCell id="NA9MMUjDrhDWRf3_gFzs-61" style="edgeStyle=orthogonalEdgeStyle;rounded=0;orthogonalLoop=1;jettySize=auto;html=1;" edge="1" parent="1" target="NA9MMUjDrhDWRf3_gFzs-64">
          <mxGeometry relative="1" as="geometry">
            <mxPoint x="-1430" y="690" as="targetPoint" />
            <mxPoint x="-1430" y="650" as="sourcePoint" />
          </mxGeometry>
        </mxCell>
        <mxCell id="NA9MMUjDrhDWRf3_gFzs-62" style="edgeStyle=orthogonalEdgeStyle;rounded=0;orthogonalLoop=1;jettySize=auto;html=1;" edge="1" parent="1" source="NA9MMUjDrhDWRf3_gFzs-64" target="NA9MMUjDrhDWRf3_gFzs-67">
          <mxGeometry relative="1" as="geometry">
            <mxPoint x="-1430" y="740" as="targetPoint" />
          </mxGeometry>
        </mxCell>
        <mxCell id="NA9MMUjDrhDWRf3_gFzs-63" style="edgeStyle=orthogonalEdgeStyle;rounded=0;orthogonalLoop=1;jettySize=auto;html=1;" edge="1" parent="1" source="NA9MMUjDrhDWRf3_gFzs-64" target="NA9MMUjDrhDWRf3_gFzs-69">
          <mxGeometry relative="1" as="geometry">
            <mxPoint x="-1442" y="810" as="targetPoint" />
            <Array as="points">
              <mxPoint x="-1349" y="695" />
              <mxPoint x="-1349" y="800" />
            </Array>
          </mxGeometry>
        </mxCell>
        <mxCell id="NA9MMUjDrhDWRf3_gFzs-64" value="for(int k=0;k&amp;lt;i-j;k++)" style="shape=hexagon;perimeter=hexagonPerimeter2;whiteSpace=wrap;html=1;fixedSize=1;" vertex="1" parent="1">
          <mxGeometry x="-1490" y="680" width="120" height="30" as="geometry" />
        </mxCell>
        <mxCell id="NA9MMUjDrhDWRf3_gFzs-65" value="1" style="text;html=1;align=center;verticalAlign=middle;resizable=0;points=[];autosize=1;strokeColor=none;fillColor=none;" vertex="1" parent="1">
          <mxGeometry x="-1455" y="708" width="30" height="30" as="geometry" />
        </mxCell>
        <mxCell id="NA9MMUjDrhDWRf3_gFzs-66" style="edgeStyle=orthogonalEdgeStyle;rounded=0;orthogonalLoop=1;jettySize=auto;html=1;entryX=0;entryY=0.5;entryDx=0;entryDy=0;" edge="1" parent="1" source="NA9MMUjDrhDWRf3_gFzs-67" target="NA9MMUjDrhDWRf3_gFzs-64">
          <mxGeometry relative="1" as="geometry">
            <mxPoint x="-1490" y="790" as="targetPoint" />
            <Array as="points">
              <mxPoint x="-1430" y="785" />
              <mxPoint x="-1510" y="785" />
              <mxPoint x="-1510" y="695" />
            </Array>
          </mxGeometry>
        </mxCell>
        <mxCell id="NA9MMUjDrhDWRf3_gFzs-67" value="cout&amp;lt;&amp;lt;&quot; &quot;;" style="shape=parallelogram;perimeter=parallelogramPerimeter;whiteSpace=wrap;html=1;fixedSize=1;" vertex="1" parent="1">
          <mxGeometry x="-1475" y="738" width="90" height="22" as="geometry" />
        </mxCell>
        <mxCell id="NA9MMUjDrhDWRf3_gFzs-68" value="0" style="text;html=1;align=center;verticalAlign=middle;resizable=0;points=[];autosize=1;strokeColor=none;fillColor=none;" vertex="1" parent="1">
          <mxGeometry x="-1375" y="668" width="30" height="30" as="geometry" />
        </mxCell>
        <mxCell id="NA9MMUjDrhDWRf3_gFzs-70" style="edgeStyle=orthogonalEdgeStyle;rounded=0;orthogonalLoop=1;jettySize=auto;html=1;" edge="1" parent="1" source="NA9MMUjDrhDWRf3_gFzs-69">
          <mxGeometry relative="1" as="geometry">
            <mxPoint x="-1420" y="440" as="targetPoint" />
            <Array as="points">
              <mxPoint x="-1412" y="860" />
              <mxPoint x="-1540" y="860" />
              <mxPoint x="-1540" y="440" />
            </Array>
          </mxGeometry>
        </mxCell>
        <mxCell id="NA9MMUjDrhDWRf3_gFzs-69" value="cout &amp;lt;&amp;lt; podstr &amp;lt;&amp;lt; endl;" style="shape=parallelogram;perimeter=parallelogramPerimeter;whiteSpace=wrap;html=1;fixedSize=1;" vertex="1" parent="1">
          <mxGeometry x="-1490" y="810" width="156.25" height="30" as="geometry" />
        </mxCell>
        <mxCell id="NA9MMUjDrhDWRf3_gFzs-72" value="0" style="text;html=1;align=center;verticalAlign=middle;resizable=0;points=[];autosize=1;strokeColor=none;fillColor=none;" vertex="1" parent="1">
          <mxGeometry x="-1315" y="468" width="30" height="30" as="geometry" />
        </mxCell>
        <mxCell id="NA9MMUjDrhDWRf3_gFzs-74" style="edgeStyle=orthogonalEdgeStyle;rounded=0;orthogonalLoop=1;jettySize=auto;html=1;" edge="1" parent="1" source="NA9MMUjDrhDWRf3_gFzs-73" target="NA9MMUjDrhDWRf3_gFzs-76">
          <mxGeometry relative="1" as="geometry">
            <mxPoint x="-1510" y="970" as="targetPoint" />
          </mxGeometry>
        </mxCell>
        <mxCell id="NA9MMUjDrhDWRf3_gFzs-77" style="edgeStyle=orthogonalEdgeStyle;rounded=0;orthogonalLoop=1;jettySize=auto;html=1;" edge="1" parent="1" source="NA9MMUjDrhDWRf3_gFzs-73">
          <mxGeometry relative="1" as="geometry">
            <mxPoint x="-1410" y="1010" as="targetPoint" />
            <Array as="points">
              <mxPoint x="-1300" y="920" />
              <mxPoint x="-1300" y="1010" />
            </Array>
          </mxGeometry>
        </mxCell>
        <mxCell id="NA9MMUjDrhDWRf3_gFzs-73" value="if (str[i] == podstr[j])" style="rhombus;whiteSpace=wrap;html=1;" vertex="1" parent="1">
          <mxGeometry x="-1475.94" y="880" width="131.87" height="80" as="geometry" />
        </mxCell>
        <mxCell id="NA9MMUjDrhDWRf3_gFzs-75" value="1" style="text;html=1;align=center;verticalAlign=middle;resizable=0;points=[];autosize=1;strokeColor=none;fillColor=none;" vertex="1" parent="1">
          <mxGeometry x="-1505" y="898" width="30" height="30" as="geometry" />
        </mxCell>
        <mxCell id="NA9MMUjDrhDWRf3_gFzs-79" style="edgeStyle=orthogonalEdgeStyle;rounded=0;orthogonalLoop=1;jettySize=auto;html=1;" edge="1" parent="1" source="NA9MMUjDrhDWRf3_gFzs-76">
          <mxGeometry relative="1" as="geometry">
            <mxPoint x="-1410" y="1010" as="targetPoint" />
            <Array as="points">
              <mxPoint x="-1510" y="1010" />
            </Array>
          </mxGeometry>
        </mxCell>
        <mxCell id="NA9MMUjDrhDWRf3_gFzs-76" value="j++;" style="rounded=0;whiteSpace=wrap;html=1;" vertex="1" parent="1">
          <mxGeometry x="-1530" y="970" width="40" height="20" as="geometry" />
        </mxCell>
        <mxCell id="NA9MMUjDrhDWRf3_gFzs-80" value="0" style="text;html=1;align=center;verticalAlign=middle;resizable=0;points=[];autosize=1;strokeColor=none;fillColor=none;" vertex="1" parent="1">
          <mxGeometry x="-1344.07" y="898" width="30" height="30" as="geometry" />
        </mxCell>
        <mxCell id="NA9MMUjDrhDWRf3_gFzs-81" value="" style="endArrow=classic;html=1;rounded=0;" edge="1" parent="1" target="NA9MMUjDrhDWRf3_gFzs-82">
          <mxGeometry width="50" height="50" relative="1" as="geometry">
            <mxPoint x="-1410" y="1010" as="sourcePoint" />
            <mxPoint x="-1410" y="1050" as="targetPoint" />
          </mxGeometry>
        </mxCell>
        <mxCell id="NA9MMUjDrhDWRf3_gFzs-83" style="edgeStyle=orthogonalEdgeStyle;rounded=0;orthogonalLoop=1;jettySize=auto;html=1;" edge="1" parent="1" source="NA9MMUjDrhDWRf3_gFzs-82" target="NA9MMUjDrhDWRf3_gFzs-85">
          <mxGeometry relative="1" as="geometry">
            <mxPoint x="-1480" y="1120" as="targetPoint" />
          </mxGeometry>
        </mxCell>
        <mxCell id="NA9MMUjDrhDWRf3_gFzs-86" style="edgeStyle=orthogonalEdgeStyle;rounded=0;orthogonalLoop=1;jettySize=auto;html=1;" edge="1" parent="1" source="NA9MMUjDrhDWRf3_gFzs-82">
          <mxGeometry relative="1" as="geometry">
            <mxPoint x="-1410" y="1220" as="targetPoint" />
            <Array as="points">
              <mxPoint x="-1279" y="1080" />
              <mxPoint x="-1279" y="1220" />
            </Array>
          </mxGeometry>
        </mxCell>
        <mxCell id="NA9MMUjDrhDWRf3_gFzs-82" value="if (j == m)" style="rhombus;whiteSpace=wrap;html=1;" vertex="1" parent="1">
          <mxGeometry x="-1450" y="1040" width="80" height="80" as="geometry" />
        </mxCell>
        <mxCell id="NA9MMUjDrhDWRf3_gFzs-84" value="1" style="text;html=1;align=center;verticalAlign=middle;resizable=0;points=[];autosize=1;strokeColor=none;fillColor=none;" vertex="1" parent="1">
          <mxGeometry x="-1516.25" y="1050" width="30" height="30" as="geometry" />
        </mxCell>
        <mxCell id="NA9MMUjDrhDWRf3_gFzs-88" style="edgeStyle=orthogonalEdgeStyle;rounded=0;orthogonalLoop=1;jettySize=auto;html=1;" edge="1" parent="1" source="NA9MMUjDrhDWRf3_gFzs-85" target="NA9MMUjDrhDWRf3_gFzs-89">
          <mxGeometry relative="1" as="geometry">
            <mxPoint x="-1559.375" y="1210" as="targetPoint" />
          </mxGeometry>
        </mxCell>
        <mxCell id="NA9MMUjDrhDWRf3_gFzs-85" value="cout &amp;lt;&amp;lt; &quot;Подстрока найдена на позиции: &quot; &amp;lt;&amp;lt; i - m + 1 &amp;lt;&amp;lt; endl;" style="shape=parallelogram;perimeter=parallelogramPerimeter;whiteSpace=wrap;html=1;fixedSize=1;" vertex="1" parent="1">
          <mxGeometry x="-1663.75" y="1130" width="208.75" height="30" as="geometry" />
        </mxCell>
        <mxCell id="NA9MMUjDrhDWRf3_gFzs-87" value="0" style="text;html=1;align=center;verticalAlign=middle;resizable=0;points=[];autosize=1;strokeColor=none;fillColor=none;" vertex="1" parent="1">
          <mxGeometry x="-1345" y="1058" width="30" height="30" as="geometry" />
        </mxCell>
        <mxCell id="NA9MMUjDrhDWRf3_gFzs-90" style="edgeStyle=orthogonalEdgeStyle;rounded=0;orthogonalLoop=1;jettySize=auto;html=1;" edge="1" parent="1" source="NA9MMUjDrhDWRf3_gFzs-89">
          <mxGeometry relative="1" as="geometry">
            <mxPoint x="-1410" y="1220" as="targetPoint" />
            <Array as="points">
              <mxPoint x="-1559" y="1220" />
            </Array>
          </mxGeometry>
        </mxCell>
        <mxCell id="NA9MMUjDrhDWRf3_gFzs-89" value="j = a[1][j - 1];" style="rounded=0;whiteSpace=wrap;html=1;" vertex="1" parent="1">
          <mxGeometry x="-1594.69" y="1180" width="70.63" height="30" as="geometry" />
        </mxCell>
        <mxCell id="NA9MMUjDrhDWRf3_gFzs-91" value="" style="endArrow=classic;html=1;rounded=0;" edge="1" parent="1">
          <mxGeometry width="50" height="50" relative="1" as="geometry">
            <mxPoint x="-1410" y="1220" as="sourcePoint" />
            <mxPoint x="-1410" y="140" as="targetPoint" />
            <Array as="points">
              <mxPoint x="-1410" y="1280" />
              <mxPoint x="-1710" y="1280" />
              <mxPoint x="-1710" y="140" />
            </Array>
          </mxGeometry>
        </mxCell>
        <mxCell id="NA9MMUjDrhDWRf3_gFzs-93" value="}" style="ellipse;whiteSpace=wrap;html=1;" vertex="1" parent="1">
          <mxGeometry x="-1238.7879231770835" y="230" width="120" height="80" as="geometry" />
        </mxCell>
        <mxCell id="NA9MMUjDrhDWRf3_gFzs-97" style="edgeStyle=orthogonalEdgeStyle;rounded=0;orthogonalLoop=1;jettySize=auto;html=1;" edge="1" parent="1" source="NA9MMUjDrhDWRf3_gFzs-94" target="NA9MMUjDrhDWRf3_gFzs-101">
          <mxGeometry relative="1" as="geometry">
            <mxPoint x="-642" y="160" as="targetPoint" />
          </mxGeometry>
        </mxCell>
        <mxCell id="NA9MMUjDrhDWRf3_gFzs-94" value="int main()" style="shape=process;whiteSpace=wrap;html=1;backgroundOutline=1;" vertex="1" parent="1">
          <mxGeometry x="-690" y="65.5" width="96" height="35" as="geometry" />
        </mxCell>
        <mxCell id="NA9MMUjDrhDWRf3_gFzs-99" style="edgeStyle=orthogonalEdgeStyle;rounded=0;orthogonalLoop=1;jettySize=auto;html=1;" edge="1" parent="1" source="NA9MMUjDrhDWRf3_gFzs-98">
          <mxGeometry relative="1" as="geometry">
            <mxPoint x="-640" y="140" as="targetPoint" />
          </mxGeometry>
        </mxCell>
        <mxCell id="NA9MMUjDrhDWRf3_gFzs-98" value="&lt;div&gt;#include &amp;lt;iostream&amp;gt;&lt;/div&gt;&lt;div&gt;#include &amp;lt;string&amp;gt;&lt;/div&gt;&lt;div&gt;using namespace std;&lt;/div&gt;" style="strokeWidth=2;html=1;shape=mxgraph.flowchart.annotation_2;align=left;labelPosition=right;pointerEvents=1;" vertex="1" parent="1">
          <mxGeometry x="-490" y="90" width="50" height="100" as="geometry" />
        </mxCell>
        <mxCell id="NA9MMUjDrhDWRf3_gFzs-100" value="{" style="text;html=1;align=center;verticalAlign=middle;resizable=0;points=[];autosize=1;strokeColor=none;fillColor=none;" vertex="1" parent="1">
          <mxGeometry x="-670" y="108" width="30" height="30" as="geometry" />
        </mxCell>
        <mxCell id="NA9MMUjDrhDWRf3_gFzs-102" style="edgeStyle=orthogonalEdgeStyle;rounded=0;orthogonalLoop=1;jettySize=auto;html=1;" edge="1" parent="1" source="NA9MMUjDrhDWRf3_gFzs-101" target="NA9MMUjDrhDWRf3_gFzs-103">
          <mxGeometry relative="1" as="geometry">
            <mxPoint x="-640" y="240" as="targetPoint" />
          </mxGeometry>
        </mxCell>
        <mxCell id="NA9MMUjDrhDWRf3_gFzs-101" value="&lt;div&gt;string str=&quot;abcabceabcabcd&quot;,&lt;span style=&quot;background-color: transparent; color: light-dark(rgb(0, 0, 0), rgb(255, 255, 255));&quot;&gt;&amp;nbsp;podstr=&quot;abcabcd&quot;;&lt;/span&gt;&lt;/div&gt;" style="rounded=0;whiteSpace=wrap;html=1;" vertex="1" parent="1">
          <mxGeometry x="-776" y="168" width="268" height="32" as="geometry" />
        </mxCell>
        <mxCell id="NA9MMUjDrhDWRf3_gFzs-104" style="edgeStyle=orthogonalEdgeStyle;rounded=0;orthogonalLoop=1;jettySize=auto;html=1;" edge="1" parent="1" source="NA9MMUjDrhDWRf3_gFzs-103" target="NA9MMUjDrhDWRf3_gFzs-105">
          <mxGeometry relative="1" as="geometry">
            <mxPoint x="-642" y="290" as="targetPoint" />
          </mxGeometry>
        </mxCell>
        <mxCell id="NA9MMUjDrhDWRf3_gFzs-103" value="int a[2][26];" style="rounded=0;whiteSpace=wrap;html=1;" vertex="1" parent="1">
          <mxGeometry x="-686" y="220" width="88" height="30" as="geometry" />
        </mxCell>
        <mxCell id="NA9MMUjDrhDWRf3_gFzs-106" style="edgeStyle=orthogonalEdgeStyle;rounded=0;orthogonalLoop=1;jettySize=auto;html=1;" edge="1" parent="1" source="NA9MMUjDrhDWRf3_gFzs-105" target="NA9MMUjDrhDWRf3_gFzs-108">
          <mxGeometry relative="1" as="geometry">
            <mxPoint x="-642" y="350" as="targetPoint" />
          </mxGeometry>
        </mxCell>
        <mxCell id="NA9MMUjDrhDWRf3_gFzs-110" style="edgeStyle=orthogonalEdgeStyle;rounded=0;orthogonalLoop=1;jettySize=auto;html=1;" edge="1" parent="1" source="NA9MMUjDrhDWRf3_gFzs-105" target="NA9MMUjDrhDWRf3_gFzs-112">
          <mxGeometry relative="1" as="geometry">
            <mxPoint x="-510" y="400" as="targetPoint" />
          </mxGeometry>
        </mxCell>
        <mxCell id="NA9MMUjDrhDWRf3_gFzs-105" value="for(int i=0;i&amp;lt;podstr.length();i++)" style="shape=hexagon;perimeter=hexagonPerimeter2;whiteSpace=wrap;html=1;fixedSize=1;" vertex="1" parent="1">
          <mxGeometry x="-733" y="270" width="182" height="30" as="geometry" />
        </mxCell>
        <mxCell id="NA9MMUjDrhDWRf3_gFzs-107" value="1" style="text;html=1;align=center;verticalAlign=middle;resizable=0;points=[];autosize=1;strokeColor=none;fillColor=none;" vertex="1" parent="1">
          <mxGeometry x="-665" y="298" width="30" height="30" as="geometry" />
        </mxCell>
        <mxCell id="NA9MMUjDrhDWRf3_gFzs-109" style="edgeStyle=orthogonalEdgeStyle;rounded=0;orthogonalLoop=1;jettySize=auto;html=1;entryX=0;entryY=0.5;entryDx=0;entryDy=0;" edge="1" parent="1" source="NA9MMUjDrhDWRf3_gFzs-108" target="NA9MMUjDrhDWRf3_gFzs-105">
          <mxGeometry relative="1" as="geometry">
            <mxPoint x="-680" y="470" as="targetPoint" />
            <Array as="points">
              <mxPoint x="-642" y="380" />
              <mxPoint x="-760" y="380" />
              <mxPoint x="-760" y="285" />
            </Array>
          </mxGeometry>
        </mxCell>
        <mxCell id="NA9MMUjDrhDWRf3_gFzs-108" value="a[0][i]=podstr[i];" style="rounded=0;whiteSpace=wrap;html=1;" vertex="1" parent="1">
          <mxGeometry x="-686" y="330" width="88" height="30" as="geometry" />
        </mxCell>
        <mxCell id="NA9MMUjDrhDWRf3_gFzs-111" value="0" style="text;html=1;align=center;verticalAlign=middle;resizable=0;points=[];autosize=1;strokeColor=none;fillColor=none;" vertex="1" parent="1">
          <mxGeometry x="-555" y="258" width="30" height="30" as="geometry" />
        </mxCell>
        <mxCell id="NA9MMUjDrhDWRf3_gFzs-113" style="edgeStyle=orthogonalEdgeStyle;rounded=0;orthogonalLoop=1;jettySize=auto;html=1;" edge="1" parent="1" source="NA9MMUjDrhDWRf3_gFzs-112" target="NA9MMUjDrhDWRf3_gFzs-114">
          <mxGeometry relative="1" as="geometry">
            <mxPoint x="-495" y="370" as="targetPoint" />
          </mxGeometry>
        </mxCell>
        <mxCell id="NA9MMUjDrhDWRf3_gFzs-112" value="prefix(a,podstr);" style="rounded=0;whiteSpace=wrap;html=1;" vertex="1" parent="1">
          <mxGeometry x="-540" y="309" width="90" height="20" as="geometry" />
        </mxCell>
        <mxCell id="NA9MMUjDrhDWRf3_gFzs-115" style="edgeStyle=orthogonalEdgeStyle;rounded=0;orthogonalLoop=1;jettySize=auto;html=1;" edge="1" parent="1" source="NA9MMUjDrhDWRf3_gFzs-114" target="NA9MMUjDrhDWRf3_gFzs-116">
          <mxGeometry relative="1" as="geometry">
            <mxPoint x="-495" y="440" as="targetPoint" />
          </mxGeometry>
        </mxCell>
        <mxCell id="NA9MMUjDrhDWRf3_gFzs-114" value="searchWithPrefix(str, podstr, a);" style="rounded=0;whiteSpace=wrap;html=1;" vertex="1" parent="1">
          <mxGeometry x="-582.5" y="354" width="175" height="26" as="geometry" />
        </mxCell>
        <mxCell id="NA9MMUjDrhDWRf3_gFzs-116" value="return 0;" style="ellipse;whiteSpace=wrap;html=1;" vertex="1" parent="1">
          <mxGeometry x="-555" y="400" width="120" height="80" as="geometry" />
        </mxCell>
      </root>
    </mxGraphModel>
  </diagram>
  <diagram id="qMT1HiUhFiztmTkqLSkf" name="хэши">
    <mxGraphModel dx="2555" dy="791" grid="1" gridSize="10" guides="1" tooltips="1" connect="1" arrows="1" fold="1" page="1" pageScale="1" pageWidth="1169" pageHeight="827" math="0" shadow="0">
      <root>
        <mxCell id="0" />
        <mxCell id="1" parent="0" />
        <mxCell id="FuhKpFBaoV_LeuCqC9Cw-2" value="&lt;div&gt;string names[30] = {&lt;/div&gt;&lt;div&gt;&amp;nbsp; &amp;nbsp; &quot;Артём&quot;, &quot;Кирилл&quot;, &quot;Степан&quot;, &quot;Григорий&quot;, &quot;Павел&quot;,&amp;nbsp;&amp;nbsp;&lt;/div&gt;&lt;div&gt;&amp;nbsp; &amp;nbsp; &quot;Роман&quot;, &quot;Фёдор&quot;, &quot;Олег&quot;, &quot;Вячеслав&quot;, &quot;Константин&quot;,&amp;nbsp;&amp;nbsp;&lt;/div&gt;&lt;div&gt;&amp;nbsp; &amp;nbsp; &quot;Станислав&quot;, &quot;Юрий&quot;, &quot;Валентин&quot;, &quot;Глеб&quot;, &quot;Захар&quot;,&amp;nbsp;&amp;nbsp;&lt;/div&gt;&lt;div&gt;&amp;nbsp; &amp;nbsp; &quot;Игорь&quot;, &quot;Леонид&quot;, &quot;Платон&quot;, &quot;Родион&quot;, &quot;Святослав&quot;,&amp;nbsp;&amp;nbsp;&lt;/div&gt;&lt;div&gt;&amp;nbsp; &amp;nbsp; &quot;Тимур&quot;, &quot;Всеволод&quot;, &quot;Ян&quot;, &quot;Богдан&quot;, &quot;Арсений&quot;,&amp;nbsp;&amp;nbsp;&lt;/div&gt;&lt;div&gt;&amp;nbsp; &amp;nbsp; &quot;Марк&quot;, &quot;Давид&quot;, &quot;Герман&quot;, &quot;Эдуард&quot;, &quot;Семён&quot;&amp;nbsp;&amp;nbsp;&lt;/div&gt;&lt;div&gt;};&lt;/div&gt;" style="rounded=0;whiteSpace=wrap;html=1;" parent="1" vertex="1">
          <mxGeometry x="30" y="20" width="320" height="120" as="geometry" />
        </mxCell>
        <mxCell id="FuhKpFBaoV_LeuCqC9Cw-4" value="&lt;div&gt;string patronymic[30] = {&lt;/div&gt;&lt;div&gt;&amp;nbsp; &amp;nbsp; &quot;Артёмович&quot;, &quot;Богданович&quot;, &quot;Валерьевич&quot;, &quot;Геннадиевич&quot;, &quot;Данилович&quot;,&amp;nbsp;&amp;nbsp;&lt;/div&gt;&lt;div&gt;&amp;nbsp; &amp;nbsp; &quot;Егорович&quot;, &quot;Жанович&quot;, &quot;Захарович&quot;, &quot;Ильич&quot;, &quot;Константинович&quot;,&amp;nbsp;&amp;nbsp;&lt;/div&gt;&lt;div&gt;&amp;nbsp; &amp;nbsp; &quot;Львович&quot;, &quot;Маркович&quot;, &quot;Натанович&quot;, &quot;Олегович&quot;, &quot;Петрович&quot;,&amp;nbsp;&amp;nbsp;&lt;/div&gt;&lt;div&gt;&amp;nbsp; &amp;nbsp; &quot;Робертович&quot;, &quot;Семёнович&quot;, &quot;Тарасович&quot;, &quot;Умарович&quot;, &quot;Филиппович&quot;,&amp;nbsp;&amp;nbsp;&lt;/div&gt;&lt;div&gt;&amp;nbsp; &amp;nbsp; &quot;Харитонович&quot;, &quot;Цезаревич&quot;, &quot;Чеславович&quot;, &quot;Шамильевич&quot;, &quot;Эльдарович&quot;,&amp;nbsp;&amp;nbsp;&lt;/div&gt;&lt;div&gt;&amp;nbsp; &amp;nbsp; &quot;Юхимович&quot;, &quot;Янович&quot;, &quot;Ярославович&quot;, &quot;Витальевич&quot;, &quot;Денисович&quot;&amp;nbsp;&amp;nbsp;&lt;/div&gt;&lt;div&gt;};&lt;/div&gt;" style="rounded=0;whiteSpace=wrap;html=1;" parent="1" vertex="1">
          <mxGeometry x="-27.5" y="160" width="435" height="120" as="geometry" />
        </mxCell>
        <mxCell id="FuhKpFBaoV_LeuCqC9Cw-5" value="&lt;div&gt;string surnames[30] = {&lt;/div&gt;&lt;div&gt;&amp;nbsp; &amp;nbsp; &quot;Поляков&quot;, &quot;Комаров&quot;, &quot;Дмитриев&quot;, &quot;Тихонов&quot;, &quot;Филиппов&quot;,&amp;nbsp;&amp;nbsp;&lt;/div&gt;&lt;div&gt;&amp;nbsp; &amp;nbsp; &quot;Жуков&quot;, &quot;Савельев&quot;, &quot;Романов&quot;, &quot;Давыдов&quot;, &quot;Белов&quot;,&amp;nbsp;&amp;nbsp;&lt;/div&gt;&lt;div&gt;&amp;nbsp; &amp;nbsp; &quot;Гусев&quot;, &quot;Титов&quot;, &quot;Крылов&quot;, &quot;Анисимов&quot;, &quot;Мельников&quot;,&amp;nbsp;&amp;nbsp;&lt;/div&gt;&lt;div&gt;&amp;nbsp; &amp;nbsp; &quot;Щербаков&quot;, &quot;Блинов&quot;, &quot;Кудрявцев&quot;, &quot;Трофимов&quot;, &quot;Лукин&quot;,&amp;nbsp;&amp;nbsp;&lt;/div&gt;&lt;div&gt;&amp;nbsp; &amp;nbsp; &quot;Ермаков&quot;, &quot;Горбунов&quot;, &quot;Сысоев&quot;, &quot;Ефимов&quot;, &quot;Терентьев&quot;,&amp;nbsp;&amp;nbsp;&lt;/div&gt;&lt;div&gt;&amp;nbsp; &amp;nbsp; &quot;Колесников&quot;, &quot;Широков&quot;, &quot;Фомин&quot;, &quot;Дорофеев&quot;, &quot;Назаров&quot;&amp;nbsp;&amp;nbsp;&lt;/div&gt;&lt;div&gt;};&lt;/div&gt;" style="rounded=0;whiteSpace=wrap;html=1;" parent="1" vertex="1">
          <mxGeometry x="15" y="339" width="350" height="111" as="geometry" />
        </mxCell>
        <mxCell id="FuhKpFBaoV_LeuCqC9Cw-6" value="&lt;div&gt;int ID[30] = {&lt;/div&gt;&lt;div&gt;&lt;span style=&quot;background-color: transparent; color: light-dark(rgb(0, 0, 0), rgb(255, 255, 255));&quot;&gt;17890123, 28901234, 39012345, 40123456, 51234567,&amp;nbsp;&amp;nbsp;&lt;/span&gt;&lt;/div&gt;&lt;div&gt;&amp;nbsp; &amp;nbsp; 62345678, 73456789, 84567890, 95678901, 106789012,&amp;nbsp;&amp;nbsp;&lt;/div&gt;&lt;div&gt;&amp;nbsp; &amp;nbsp; 117890123, 128901234, 139012345, 140123456, 151234567,&amp;nbsp;&amp;nbsp;&lt;/div&gt;&lt;div&gt;&amp;nbsp; &amp;nbsp; 162345678, 173456789, 184567890, 195678901, 206789012,&amp;nbsp;&amp;nbsp;&lt;/div&gt;&lt;div&gt;&amp;nbsp; &amp;nbsp; 217890123, 228901234, 239012345, 240123456, 251234567,&amp;nbsp;&amp;nbsp;&lt;/div&gt;&lt;div&gt;&amp;nbsp; &amp;nbsp; 262345678, 273456789, 284567890, 295678901, 306789012&amp;nbsp;&amp;nbsp;&lt;/div&gt;&lt;div&gt;};&lt;/div&gt;" style="rounded=0;whiteSpace=wrap;html=1;" parent="1" vertex="1">
          <mxGeometry x="10" y="510" width="360" height="120" as="geometry" />
        </mxCell>
        <mxCell id="FuhKpFBaoV_LeuCqC9Cw-7" value="&lt;div&gt;string dates[30] = {&lt;/div&gt;&lt;div&gt;&amp;nbsp; &amp;nbsp; &quot;12.08.1995&quot;, &quot;23.09.1996&quot;, &quot;05.10.1997&quot;, &quot;17.11.1998&quot;, &quot;28.12.1999&quot;,&amp;nbsp;&amp;nbsp;&lt;/div&gt;&lt;div&gt;&amp;nbsp; &amp;nbsp; &quot;09.01.2000&quot;, &quot;20.02.2001&quot;, &quot;01.03.2002&quot;, &quot;12.04.2003&quot;, &quot;23.05.2004&quot;,&amp;nbsp;&amp;nbsp;&lt;/div&gt;&lt;div&gt;&amp;nbsp; &amp;nbsp; &quot;04.06.2005&quot;, &quot;15.07.2006&quot;, &quot;26.08.2007&quot;, &quot;07.09.2008&quot;, &quot;18.10.2009&quot;,&amp;nbsp;&amp;nbsp;&lt;/div&gt;&lt;div&gt;&amp;nbsp; &amp;nbsp; &quot;29.11.2010&quot;, &quot;10.12.2011&quot;, &quot;21.01.2012&quot;, &quot;02.02.2013&quot;, &quot;13.03.2014&quot;,&amp;nbsp;&amp;nbsp;&lt;/div&gt;&lt;div&gt;&amp;nbsp; &amp;nbsp; &quot;24.04.2015&quot;, &quot;05.05.2016&quot;, &quot;16.06.2017&quot;, &quot;27.07.2018&quot;, &quot;08.08.2019&quot;,&amp;nbsp;&amp;nbsp;&lt;/div&gt;&lt;div&gt;&amp;nbsp; &amp;nbsp; &quot;19.09.2020&quot;, &quot;30.10.2021&quot;, &quot;11.11.2022&quot;, &quot;22.12.2023&quot;, &quot;03.01.2024&quot;&amp;nbsp;&amp;nbsp;&lt;/div&gt;&lt;div&gt;};&lt;/div&gt;" style="rounded=0;whiteSpace=wrap;html=1;" parent="1" vertex="1">
          <mxGeometry x="-10" y="660" width="400" height="120" as="geometry" />
        </mxCell>
        <mxCell id="FuhKpFBaoV_LeuCqC9Cw-10" style="edgeStyle=orthogonalEdgeStyle;rounded=0;orthogonalLoop=1;jettySize=auto;html=1;" parent="1" source="FuhKpFBaoV_LeuCqC9Cw-8" target="FuhKpFBaoV_LeuCqC9Cw-12" edge="1">
          <mxGeometry relative="1" as="geometry">
            <mxPoint x="680" y="140" as="targetPoint" />
          </mxGeometry>
        </mxCell>
        <mxCell id="FuhKpFBaoV_LeuCqC9Cw-8" value="struct student" style="shape=process;whiteSpace=wrap;html=1;backgroundOutline=1;" parent="1" vertex="1">
          <mxGeometry x="620" y="70" width="120" height="30" as="geometry" />
        </mxCell>
        <mxCell id="FuhKpFBaoV_LeuCqC9Cw-9" style="edgeStyle=orthogonalEdgeStyle;rounded=0;orthogonalLoop=1;jettySize=auto;html=1;exitX=0.5;exitY=1;exitDx=0;exitDy=0;" parent="1" source="FuhKpFBaoV_LeuCqC9Cw-8" target="FuhKpFBaoV_LeuCqC9Cw-8" edge="1">
          <mxGeometry relative="1" as="geometry" />
        </mxCell>
        <mxCell id="FuhKpFBaoV_LeuCqC9Cw-11" value="{" style="text;html=1;align=center;verticalAlign=middle;resizable=0;points=[];autosize=1;strokeColor=none;fillColor=none;" parent="1" vertex="1">
          <mxGeometry x="655" y="98" width="30" height="30" as="geometry" />
        </mxCell>
        <mxCell id="FuhKpFBaoV_LeuCqC9Cw-13" style="edgeStyle=orthogonalEdgeStyle;rounded=0;orthogonalLoop=1;jettySize=auto;html=1;" parent="1" source="FuhKpFBaoV_LeuCqC9Cw-12" target="FuhKpFBaoV_LeuCqC9Cw-14" edge="1">
          <mxGeometry relative="1" as="geometry">
            <mxPoint x="680" y="160" as="targetPoint" />
          </mxGeometry>
        </mxCell>
        <mxCell id="FuhKpFBaoV_LeuCqC9Cw-12" value="&lt;div&gt;string f,&lt;span style=&quot;background-color: transparent; color: light-dark(rgb(0, 0, 0), rgb(255, 255, 255));&quot;&gt;&amp;nbsp;i,&lt;/span&gt;&lt;span style=&quot;background-color: transparent; color: light-dark(rgb(0, 0, 0), rgb(255, 255, 255));&quot;&gt;&amp;nbsp;o,&lt;/span&gt;&lt;span style=&quot;background-color: transparent; color: light-dark(rgb(0, 0, 0), rgb(255, 255, 255));&quot;&gt;&amp;nbsp;datar;&lt;/span&gt;&lt;/div&gt;" style="rounded=0;whiteSpace=wrap;html=1;" parent="1" vertex="1">
          <mxGeometry x="620" y="128" width="120" height="22" as="geometry" />
        </mxCell>
        <mxCell id="FuhKpFBaoV_LeuCqC9Cw-15" style="edgeStyle=orthogonalEdgeStyle;rounded=0;orthogonalLoop=1;jettySize=auto;html=1;" parent="1" source="FuhKpFBaoV_LeuCqC9Cw-14" target="FuhKpFBaoV_LeuCqC9Cw-16" edge="1">
          <mxGeometry relative="1" as="geometry">
            <mxPoint x="680" y="230" as="targetPoint" />
          </mxGeometry>
        </mxCell>
        <mxCell id="FuhKpFBaoV_LeuCqC9Cw-14" value="int id=-1;" style="rounded=0;whiteSpace=wrap;html=1;" parent="1" vertex="1">
          <mxGeometry x="645" y="170" width="70" height="30" as="geometry" />
        </mxCell>
        <mxCell id="FuhKpFBaoV_LeuCqC9Cw-16" value="};" style="ellipse;whiteSpace=wrap;html=1;" parent="1" vertex="1">
          <mxGeometry x="620" y="220" width="120" height="80" as="geometry" />
        </mxCell>
        <mxCell id="FuhKpFBaoV_LeuCqC9Cw-18" style="edgeStyle=orthogonalEdgeStyle;rounded=0;orthogonalLoop=1;jettySize=auto;html=1;" parent="1" source="FuhKpFBaoV_LeuCqC9Cw-17" target="FuhKpFBaoV_LeuCqC9Cw-20" edge="1">
          <mxGeometry relative="1" as="geometry">
            <mxPoint x="980" y="150" as="targetPoint" />
          </mxGeometry>
        </mxCell>
        <mxCell id="FuhKpFBaoV_LeuCqC9Cw-17" value="int summ(string str)" style="shape=process;whiteSpace=wrap;html=1;backgroundOutline=1;" parent="1" vertex="1">
          <mxGeometry x="910" y="70" width="140" height="30" as="geometry" />
        </mxCell>
        <mxCell id="FuhKpFBaoV_LeuCqC9Cw-19" value="{" style="text;html=1;align=center;verticalAlign=middle;resizable=0;points=[];autosize=1;strokeColor=none;fillColor=none;" parent="1" vertex="1">
          <mxGeometry x="955" y="108" width="30" height="30" as="geometry" />
        </mxCell>
        <mxCell id="FuhKpFBaoV_LeuCqC9Cw-20" value="return stoi(str.substr(0, 2)) + stoi(str.substr(3, 2)) + stoi(str.substr(6, 4));" style="ellipse;whiteSpace=wrap;html=1;" parent="1" vertex="1">
          <mxGeometry x="840" y="150" width="280" height="70" as="geometry" />
        </mxCell>
        <mxCell id="FuhKpFBaoV_LeuCqC9Cw-22" style="edgeStyle=orthogonalEdgeStyle;rounded=0;orthogonalLoop=1;jettySize=auto;html=1;" parent="1" source="FuhKpFBaoV_LeuCqC9Cw-21" target="FuhKpFBaoV_LeuCqC9Cw-24" edge="1">
          <mxGeometry relative="1" as="geometry">
            <mxPoint x="1420" y="150" as="targetPoint" />
          </mxGeometry>
        </mxCell>
        <mxCell id="FuhKpFBaoV_LeuCqC9Cw-21" value="void hash1(student*&amp;amp; a,int n,int&amp;amp; khash)" style="shape=process;whiteSpace=wrap;html=1;backgroundOutline=1;" parent="1" vertex="1">
          <mxGeometry x="1280" y="70" width="280" height="30" as="geometry" />
        </mxCell>
        <mxCell id="FuhKpFBaoV_LeuCqC9Cw-23" value="{" style="text;html=1;align=center;verticalAlign=middle;resizable=0;points=[];autosize=1;strokeColor=none;fillColor=none;" parent="1" vertex="1">
          <mxGeometry x="1395" y="98" width="30" height="30" as="geometry" />
        </mxCell>
        <mxCell id="FuhKpFBaoV_LeuCqC9Cw-25" style="edgeStyle=orthogonalEdgeStyle;rounded=0;orthogonalLoop=1;jettySize=auto;html=1;" parent="1" source="FuhKpFBaoV_LeuCqC9Cw-24" target="FuhKpFBaoV_LeuCqC9Cw-27" edge="1">
          <mxGeometry relative="1" as="geometry">
            <mxPoint x="1420" y="210" as="targetPoint" />
          </mxGeometry>
        </mxCell>
        <mxCell id="FuhKpFBaoV_LeuCqC9Cw-89" style="edgeStyle=orthogonalEdgeStyle;rounded=0;orthogonalLoop=1;jettySize=auto;html=1;" parent="1" source="FuhKpFBaoV_LeuCqC9Cw-24" target="FuhKpFBaoV_LeuCqC9Cw-91" edge="1">
          <mxGeometry relative="1" as="geometry">
            <mxPoint x="1850" y="240" as="targetPoint" />
          </mxGeometry>
        </mxCell>
        <mxCell id="FuhKpFBaoV_LeuCqC9Cw-24" value="for(int i=0;i&amp;lt;n;i++)" style="shape=hexagon;perimeter=hexagonPerimeter2;whiteSpace=wrap;html=1;fixedSize=1;" parent="1" vertex="1">
          <mxGeometry x="1360" y="145" width="120" height="25" as="geometry" />
        </mxCell>
        <mxCell id="FuhKpFBaoV_LeuCqC9Cw-26" value="{" style="text;html=1;align=center;verticalAlign=middle;resizable=0;points=[];autosize=1;strokeColor=none;fillColor=none;" parent="1" vertex="1">
          <mxGeometry x="1395" y="170" width="30" height="30" as="geometry" />
        </mxCell>
        <mxCell id="FuhKpFBaoV_LeuCqC9Cw-28" style="edgeStyle=orthogonalEdgeStyle;rounded=0;orthogonalLoop=1;jettySize=auto;html=1;" parent="1" source="FuhKpFBaoV_LeuCqC9Cw-27" target="FuhKpFBaoV_LeuCqC9Cw-29" edge="1">
          <mxGeometry relative="1" as="geometry">
            <mxPoint x="1420" y="270" as="targetPoint" />
          </mxGeometry>
        </mxCell>
        <mxCell id="FuhKpFBaoV_LeuCqC9Cw-27" value="&lt;div&gt;double h = (sqrt(2) / 2) * summ(dates[i]),&lt;span style=&quot;background-color: transparent; color: light-dark(rgb(0, 0, 0), rgb(255, 255, 255));&quot;&gt;&amp;nbsp;drob = h - static_cast&amp;lt;int&amp;gt;(h);&lt;/span&gt;&lt;/div&gt;" style="rounded=0;whiteSpace=wrap;html=1;" parent="1" vertex="1">
          <mxGeometry x="1230" y="200" width="380" height="30" as="geometry" />
        </mxCell>
        <mxCell id="FuhKpFBaoV_LeuCqC9Cw-30" style="edgeStyle=orthogonalEdgeStyle;rounded=0;orthogonalLoop=1;jettySize=auto;html=1;" parent="1" source="FuhKpFBaoV_LeuCqC9Cw-29" target="FuhKpFBaoV_LeuCqC9Cw-32" edge="1">
          <mxGeometry relative="1" as="geometry">
            <mxPoint x="1420.0285714285715" y="300" as="targetPoint" />
          </mxGeometry>
        </mxCell>
        <mxCell id="FuhKpFBaoV_LeuCqC9Cw-29" value="int b= static_cast&amp;lt;int&amp;gt;(n*drob);" style="rounded=0;whiteSpace=wrap;html=1;" parent="1" vertex="1">
          <mxGeometry x="1335" y="260" width="170" height="30" as="geometry" />
        </mxCell>
        <mxCell id="FuhKpFBaoV_LeuCqC9Cw-33" style="edgeStyle=orthogonalEdgeStyle;rounded=0;orthogonalLoop=1;jettySize=auto;html=1;" parent="1" source="FuhKpFBaoV_LeuCqC9Cw-32" target="FuhKpFBaoV_LeuCqC9Cw-35" edge="1">
          <mxGeometry relative="1" as="geometry">
            <mxPoint x="1300" y="410" as="targetPoint" />
          </mxGeometry>
        </mxCell>
        <mxCell id="FuhKpFBaoV_LeuCqC9Cw-44" style="edgeStyle=orthogonalEdgeStyle;rounded=0;orthogonalLoop=1;jettySize=auto;html=1;" parent="1" source="FuhKpFBaoV_LeuCqC9Cw-32" target="FuhKpFBaoV_LeuCqC9Cw-45" edge="1">
          <mxGeometry relative="1" as="geometry">
            <mxPoint x="1580" y="420" as="targetPoint" />
          </mxGeometry>
        </mxCell>
        <mxCell id="FuhKpFBaoV_LeuCqC9Cw-32" value="if((a[b].id)==-1)" style="rhombus;whiteSpace=wrap;html=1;" parent="1" vertex="1">
          <mxGeometry x="1365" y="320" width="110" height="80" as="geometry" />
        </mxCell>
        <mxCell id="FuhKpFBaoV_LeuCqC9Cw-34" value="1" style="text;html=1;align=center;verticalAlign=middle;resizable=0;points=[];autosize=1;strokeColor=none;fillColor=none;" parent="1" vertex="1">
          <mxGeometry x="1325" y="338" width="30" height="30" as="geometry" />
        </mxCell>
        <mxCell id="FuhKpFBaoV_LeuCqC9Cw-36" style="edgeStyle=orthogonalEdgeStyle;rounded=0;orthogonalLoop=1;jettySize=auto;html=1;" parent="1" source="FuhKpFBaoV_LeuCqC9Cw-35" target="FuhKpFBaoV_LeuCqC9Cw-37" edge="1">
          <mxGeometry relative="1" as="geometry">
            <mxPoint x="1280" y="470" as="targetPoint" />
          </mxGeometry>
        </mxCell>
        <mxCell id="FuhKpFBaoV_LeuCqC9Cw-35" value="a[b].datar=dates[i];" style="rounded=0;whiteSpace=wrap;html=1;" parent="1" vertex="1">
          <mxGeometry x="1220" y="414" width="120" height="26" as="geometry" />
        </mxCell>
        <mxCell id="FuhKpFBaoV_LeuCqC9Cw-38" style="edgeStyle=orthogonalEdgeStyle;rounded=0;orthogonalLoop=1;jettySize=auto;html=1;" parent="1" source="FuhKpFBaoV_LeuCqC9Cw-37" target="FuhKpFBaoV_LeuCqC9Cw-39" edge="1">
          <mxGeometry relative="1" as="geometry">
            <mxPoint x="1280" y="520" as="targetPoint" />
          </mxGeometry>
        </mxCell>
        <mxCell id="FuhKpFBaoV_LeuCqC9Cw-37" value="a[b].i=names[i];" style="rounded=0;whiteSpace=wrap;html=1;" parent="1" vertex="1">
          <mxGeometry x="1230" y="460" width="100" height="30" as="geometry" />
        </mxCell>
        <mxCell id="FuhKpFBaoV_LeuCqC9Cw-40" style="edgeStyle=orthogonalEdgeStyle;rounded=0;orthogonalLoop=1;jettySize=auto;html=1;" parent="1" source="FuhKpFBaoV_LeuCqC9Cw-39" target="FuhKpFBaoV_LeuCqC9Cw-41" edge="1">
          <mxGeometry relative="1" as="geometry">
            <mxPoint x="1280" y="580" as="targetPoint" />
          </mxGeometry>
        </mxCell>
        <mxCell id="FuhKpFBaoV_LeuCqC9Cw-39" value="a[b].f=surnames[i];" style="rounded=0;whiteSpace=wrap;html=1;" parent="1" vertex="1">
          <mxGeometry x="1220" y="510" width="120" height="30" as="geometry" />
        </mxCell>
        <mxCell id="FuhKpFBaoV_LeuCqC9Cw-42" style="edgeStyle=orthogonalEdgeStyle;rounded=0;orthogonalLoop=1;jettySize=auto;html=1;" parent="1" source="FuhKpFBaoV_LeuCqC9Cw-41" target="FuhKpFBaoV_LeuCqC9Cw-43" edge="1">
          <mxGeometry relative="1" as="geometry">
            <mxPoint x="1280" y="630" as="targetPoint" />
          </mxGeometry>
        </mxCell>
        <mxCell id="FuhKpFBaoV_LeuCqC9Cw-41" value="a[b].o=patronymic[i];" style="rounded=0;whiteSpace=wrap;html=1;" parent="1" vertex="1">
          <mxGeometry x="1220" y="560" width="120" height="30" as="geometry" />
        </mxCell>
        <mxCell id="FuhKpFBaoV_LeuCqC9Cw-86" style="edgeStyle=orthogonalEdgeStyle;rounded=0;orthogonalLoop=1;jettySize=auto;html=1;" parent="1" source="FuhKpFBaoV_LeuCqC9Cw-43" edge="1">
          <mxGeometry relative="1" as="geometry">
            <mxPoint x="1410" y="1440" as="targetPoint" />
            <Array as="points">
              <mxPoint x="1280" y="1045" />
              <mxPoint x="1281" y="1450" />
            </Array>
          </mxGeometry>
        </mxCell>
        <mxCell id="FuhKpFBaoV_LeuCqC9Cw-43" value="a[b].id=ID[i];" style="rounded=0;whiteSpace=wrap;html=1;" parent="1" vertex="1">
          <mxGeometry x="1235" y="610" width="90" height="30" as="geometry" />
        </mxCell>
        <mxCell id="FuhKpFBaoV_LeuCqC9Cw-47" style="edgeStyle=orthogonalEdgeStyle;rounded=0;orthogonalLoop=1;jettySize=auto;html=1;" parent="1" source="FuhKpFBaoV_LeuCqC9Cw-45" target="FuhKpFBaoV_LeuCqC9Cw-48" edge="1">
          <mxGeometry relative="1" as="geometry">
            <mxPoint x="1560" y="480" as="targetPoint" />
          </mxGeometry>
        </mxCell>
        <mxCell id="FuhKpFBaoV_LeuCqC9Cw-45" value="int copyb=b;" style="rounded=0;whiteSpace=wrap;html=1;" parent="1" vertex="1">
          <mxGeometry x="1520" y="414" width="70" height="27" as="geometry" />
        </mxCell>
        <mxCell id="FuhKpFBaoV_LeuCqC9Cw-46" value="0" style="text;html=1;align=center;verticalAlign=middle;resizable=0;points=[];autosize=1;strokeColor=none;fillColor=none;" parent="1" vertex="1">
          <mxGeometry x="1500" y="338" width="30" height="30" as="geometry" />
        </mxCell>
        <mxCell id="FuhKpFBaoV_LeuCqC9Cw-50" style="edgeStyle=orthogonalEdgeStyle;rounded=0;orthogonalLoop=1;jettySize=auto;html=1;" parent="1" source="FuhKpFBaoV_LeuCqC9Cw-48" target="FuhKpFBaoV_LeuCqC9Cw-51" edge="1">
          <mxGeometry relative="1" as="geometry">
            <mxPoint x="1555" y="530" as="targetPoint" />
          </mxGeometry>
        </mxCell>
        <mxCell id="FuhKpFBaoV_LeuCqC9Cw-48" value="++b;" style="rounded=0;whiteSpace=wrap;html=1;" parent="1" vertex="1">
          <mxGeometry x="1527.5" y="470" width="55" height="20" as="geometry" />
        </mxCell>
        <mxCell id="FuhKpFBaoV_LeuCqC9Cw-52" style="edgeStyle=orthogonalEdgeStyle;rounded=0;orthogonalLoop=1;jettySize=auto;html=1;" parent="1" source="FuhKpFBaoV_LeuCqC9Cw-51" target="FuhKpFBaoV_LeuCqC9Cw-54" edge="1">
          <mxGeometry relative="1" as="geometry">
            <mxPoint x="1555" y="650" as="targetPoint" />
          </mxGeometry>
        </mxCell>
        <mxCell id="FuhKpFBaoV_LeuCqC9Cw-58" style="edgeStyle=orthogonalEdgeStyle;rounded=0;orthogonalLoop=1;jettySize=auto;html=1;" parent="1" source="FuhKpFBaoV_LeuCqC9Cw-51" target="FuhKpFBaoV_LeuCqC9Cw-60" edge="1">
          <mxGeometry relative="1" as="geometry">
            <mxPoint x="1560" y="760" as="targetPoint" />
            <Array as="points">
              <mxPoint x="1680" y="560" />
              <mxPoint x="1680" y="720" />
            </Array>
          </mxGeometry>
        </mxCell>
        <mxCell id="FuhKpFBaoV_LeuCqC9Cw-51" value="while((a[b].id)!=-1&amp;amp;&amp;amp;b&amp;lt;=n-1)" style="rhombus;whiteSpace=wrap;html=1;" parent="1" vertex="1">
          <mxGeometry x="1457.5" y="520" width="195" height="80" as="geometry" />
        </mxCell>
        <mxCell id="FuhKpFBaoV_LeuCqC9Cw-53" value="1" style="text;html=1;align=center;verticalAlign=middle;resizable=0;points=[];autosize=1;strokeColor=none;fillColor=none;" parent="1" vertex="1">
          <mxGeometry x="1525" y="598" width="30" height="30" as="geometry" />
        </mxCell>
        <mxCell id="FuhKpFBaoV_LeuCqC9Cw-55" style="edgeStyle=orthogonalEdgeStyle;rounded=0;orthogonalLoop=1;jettySize=auto;html=1;" parent="1" source="FuhKpFBaoV_LeuCqC9Cw-54" target="FuhKpFBaoV_LeuCqC9Cw-56" edge="1">
          <mxGeometry relative="1" as="geometry">
            <mxPoint x="1555" y="690" as="targetPoint" />
          </mxGeometry>
        </mxCell>
        <mxCell id="FuhKpFBaoV_LeuCqC9Cw-54" value="++khash;" style="rounded=0;whiteSpace=wrap;html=1;" parent="1" vertex="1">
          <mxGeometry x="1527.5" y="630" width="55" height="22" as="geometry" />
        </mxCell>
        <mxCell id="FuhKpFBaoV_LeuCqC9Cw-57" style="edgeStyle=orthogonalEdgeStyle;rounded=0;orthogonalLoop=1;jettySize=auto;html=1;" parent="1" source="FuhKpFBaoV_LeuCqC9Cw-56" edge="1">
          <mxGeometry relative="1" as="geometry">
            <mxPoint x="1555" y="510" as="targetPoint" />
            <Array as="points">
              <mxPoint x="1555" y="710" />
              <mxPoint x="1450" y="710" />
              <mxPoint x="1450" y="510" />
              <mxPoint x="1550" y="510" />
            </Array>
          </mxGeometry>
        </mxCell>
        <mxCell id="FuhKpFBaoV_LeuCqC9Cw-56" value="++b;" style="rounded=0;whiteSpace=wrap;html=1;" parent="1" vertex="1">
          <mxGeometry x="1532.5" y="670" width="45" height="20" as="geometry" />
        </mxCell>
        <mxCell id="FuhKpFBaoV_LeuCqC9Cw-59" value="0" style="text;html=1;align=center;verticalAlign=middle;resizable=0;points=[];autosize=1;strokeColor=none;fillColor=none;" parent="1" vertex="1">
          <mxGeometry x="1645" y="538" width="30" height="30" as="geometry" />
        </mxCell>
        <mxCell id="FuhKpFBaoV_LeuCqC9Cw-61" style="edgeStyle=orthogonalEdgeStyle;rounded=0;orthogonalLoop=1;jettySize=auto;html=1;" parent="1" source="FuhKpFBaoV_LeuCqC9Cw-60" target="FuhKpFBaoV_LeuCqC9Cw-63" edge="1">
          <mxGeometry relative="1" as="geometry">
            <mxPoint x="1460" y="840" as="targetPoint" />
          </mxGeometry>
        </mxCell>
        <mxCell id="FuhKpFBaoV_LeuCqC9Cw-64" style="edgeStyle=orthogonalEdgeStyle;rounded=0;orthogonalLoop=1;jettySize=auto;html=1;" parent="1" source="FuhKpFBaoV_LeuCqC9Cw-60" edge="1">
          <mxGeometry relative="1" as="geometry">
            <mxPoint x="1600" y="1140" as="targetPoint" />
            <Array as="points">
              <mxPoint x="1690" y="780" />
            </Array>
          </mxGeometry>
        </mxCell>
        <mxCell id="FuhKpFBaoV_LeuCqC9Cw-60" value="if(b==n)" style="rhombus;whiteSpace=wrap;html=1;" parent="1" vertex="1">
          <mxGeometry x="1520" y="740" width="80" height="80" as="geometry" />
        </mxCell>
        <mxCell id="FuhKpFBaoV_LeuCqC9Cw-62" value="1" style="text;html=1;align=center;verticalAlign=middle;resizable=0;points=[];autosize=1;strokeColor=none;fillColor=none;" parent="1" vertex="1">
          <mxGeometry x="1475" y="758" width="30" height="30" as="geometry" />
        </mxCell>
        <mxCell id="FuhKpFBaoV_LeuCqC9Cw-66" style="edgeStyle=orthogonalEdgeStyle;rounded=0;orthogonalLoop=1;jettySize=auto;html=1;" parent="1" source="FuhKpFBaoV_LeuCqC9Cw-63" target="FuhKpFBaoV_LeuCqC9Cw-67" edge="1">
          <mxGeometry relative="1" as="geometry">
            <mxPoint x="1460" y="900" as="targetPoint" />
          </mxGeometry>
        </mxCell>
        <mxCell id="FuhKpFBaoV_LeuCqC9Cw-63" value="&amp;nbsp;b=0;" style="rounded=0;whiteSpace=wrap;html=1;" parent="1" vertex="1">
          <mxGeometry x="1440" y="827" width="40" height="23" as="geometry" />
        </mxCell>
        <mxCell id="FuhKpFBaoV_LeuCqC9Cw-65" value="0" style="text;html=1;align=center;verticalAlign=middle;resizable=0;points=[];autosize=1;strokeColor=none;fillColor=none;" parent="1" vertex="1">
          <mxGeometry x="1615" y="758" width="30" height="30" as="geometry" />
        </mxCell>
        <mxCell id="FuhKpFBaoV_LeuCqC9Cw-68" style="edgeStyle=orthogonalEdgeStyle;rounded=0;orthogonalLoop=1;jettySize=auto;html=1;" parent="1" source="FuhKpFBaoV_LeuCqC9Cw-67" target="FuhKpFBaoV_LeuCqC9Cw-70" edge="1">
          <mxGeometry relative="1" as="geometry">
            <mxPoint x="1460" y="1010" as="targetPoint" />
          </mxGeometry>
        </mxCell>
        <mxCell id="FuhKpFBaoV_LeuCqC9Cw-74" style="edgeStyle=orthogonalEdgeStyle;rounded=0;orthogonalLoop=1;jettySize=auto;html=1;" parent="1" source="FuhKpFBaoV_LeuCqC9Cw-67" edge="1">
          <mxGeometry relative="1" as="geometry">
            <mxPoint x="1600" y="1140" as="targetPoint" />
            <Array as="points">
              <mxPoint x="1600" y="920" />
              <mxPoint x="1600" y="1100" />
              <mxPoint x="1450" y="1100" />
              <mxPoint x="1450" y="1140" />
            </Array>
          </mxGeometry>
        </mxCell>
        <mxCell id="FuhKpFBaoV_LeuCqC9Cw-67" value="while((a[b].id)!=-1&amp;amp;&amp;amp;b&amp;lt;=copyb-1)" style="rhombus;whiteSpace=wrap;html=1;" parent="1" vertex="1">
          <mxGeometry x="1350" y="880" width="220" height="80" as="geometry" />
        </mxCell>
        <mxCell id="FuhKpFBaoV_LeuCqC9Cw-69" value="1" style="text;html=1;align=center;verticalAlign=middle;resizable=0;points=[];autosize=1;strokeColor=none;fillColor=none;" parent="1" vertex="1">
          <mxGeometry x="1435" y="958" width="30" height="30" as="geometry" />
        </mxCell>
        <mxCell id="FuhKpFBaoV_LeuCqC9Cw-71" style="edgeStyle=orthogonalEdgeStyle;rounded=0;orthogonalLoop=1;jettySize=auto;html=1;" parent="1" source="FuhKpFBaoV_LeuCqC9Cw-70" target="FuhKpFBaoV_LeuCqC9Cw-72" edge="1">
          <mxGeometry relative="1" as="geometry">
            <mxPoint x="1460" y="1070" as="targetPoint" />
          </mxGeometry>
        </mxCell>
        <mxCell id="FuhKpFBaoV_LeuCqC9Cw-70" value="++khash;" style="rounded=0;whiteSpace=wrap;html=1;" parent="1" vertex="1">
          <mxGeometry x="1430" y="988" width="60" height="30" as="geometry" />
        </mxCell>
        <mxCell id="FuhKpFBaoV_LeuCqC9Cw-73" style="edgeStyle=orthogonalEdgeStyle;rounded=0;orthogonalLoop=1;jettySize=auto;html=1;" parent="1" source="FuhKpFBaoV_LeuCqC9Cw-72" edge="1">
          <mxGeometry relative="1" as="geometry">
            <mxPoint x="1460" y="860" as="targetPoint" />
            <Array as="points">
              <mxPoint x="1460" y="1090" />
              <mxPoint x="1340" y="1090" />
              <mxPoint x="1340" y="860" />
            </Array>
          </mxGeometry>
        </mxCell>
        <mxCell id="FuhKpFBaoV_LeuCqC9Cw-72" value="++b;" style="rounded=0;whiteSpace=wrap;html=1;" parent="1" vertex="1">
          <mxGeometry x="1435" y="1040" width="50" height="30" as="geometry" />
        </mxCell>
        <mxCell id="FuhKpFBaoV_LeuCqC9Cw-75" value="0" style="text;html=1;align=center;verticalAlign=middle;resizable=0;points=[];autosize=1;strokeColor=none;fillColor=none;" parent="1" vertex="1">
          <mxGeometry x="1560" y="890" width="30" height="30" as="geometry" />
        </mxCell>
        <mxCell id="FuhKpFBaoV_LeuCqC9Cw-76" value="" style="endArrow=classic;html=1;rounded=0;" parent="1" target="FuhKpFBaoV_LeuCqC9Cw-77" edge="1">
          <mxGeometry width="50" height="50" relative="1" as="geometry">
            <mxPoint x="1600" y="1140" as="sourcePoint" />
            <mxPoint x="1600" y="1210" as="targetPoint" />
          </mxGeometry>
        </mxCell>
        <mxCell id="FuhKpFBaoV_LeuCqC9Cw-78" style="edgeStyle=orthogonalEdgeStyle;rounded=0;orthogonalLoop=1;jettySize=auto;html=1;" parent="1" source="FuhKpFBaoV_LeuCqC9Cw-77" target="FuhKpFBaoV_LeuCqC9Cw-79" edge="1">
          <mxGeometry relative="1" as="geometry">
            <mxPoint x="1600" y="1240" as="targetPoint" />
          </mxGeometry>
        </mxCell>
        <mxCell id="FuhKpFBaoV_LeuCqC9Cw-77" value="a[b].datar=dates[i];" style="rounded=0;whiteSpace=wrap;html=1;" parent="1" vertex="1">
          <mxGeometry x="1540" y="1180" width="120" height="30" as="geometry" />
        </mxCell>
        <mxCell id="FuhKpFBaoV_LeuCqC9Cw-80" style="edgeStyle=orthogonalEdgeStyle;rounded=0;orthogonalLoop=1;jettySize=auto;html=1;" parent="1" source="FuhKpFBaoV_LeuCqC9Cw-79" target="FuhKpFBaoV_LeuCqC9Cw-81" edge="1">
          <mxGeometry relative="1" as="geometry">
            <mxPoint x="1600" y="1290" as="targetPoint" />
          </mxGeometry>
        </mxCell>
        <mxCell id="FuhKpFBaoV_LeuCqC9Cw-79" value="a[b].i=names[i];" style="rounded=0;whiteSpace=wrap;html=1;" parent="1" vertex="1">
          <mxGeometry x="1550" y="1230" width="100" height="30" as="geometry" />
        </mxCell>
        <mxCell id="FuhKpFBaoV_LeuCqC9Cw-82" style="edgeStyle=orthogonalEdgeStyle;rounded=0;orthogonalLoop=1;jettySize=auto;html=1;" parent="1" source="FuhKpFBaoV_LeuCqC9Cw-81" target="FuhKpFBaoV_LeuCqC9Cw-83" edge="1">
          <mxGeometry relative="1" as="geometry">
            <mxPoint x="1600" y="1360" as="targetPoint" />
          </mxGeometry>
        </mxCell>
        <mxCell id="FuhKpFBaoV_LeuCqC9Cw-81" value="a[b].f=surnames[i];" style="rounded=0;whiteSpace=wrap;html=1;" parent="1" vertex="1">
          <mxGeometry x="1540" y="1280" width="120" height="30" as="geometry" />
        </mxCell>
        <mxCell id="FuhKpFBaoV_LeuCqC9Cw-84" style="edgeStyle=orthogonalEdgeStyle;rounded=0;orthogonalLoop=1;jettySize=auto;html=1;" parent="1" source="FuhKpFBaoV_LeuCqC9Cw-83" target="FuhKpFBaoV_LeuCqC9Cw-85" edge="1">
          <mxGeometry relative="1" as="geometry">
            <mxPoint x="1600" y="1390" as="targetPoint" />
          </mxGeometry>
        </mxCell>
        <mxCell id="FuhKpFBaoV_LeuCqC9Cw-83" value="a[b].o=patronymic[i];" style="rounded=0;whiteSpace=wrap;html=1;" parent="1" vertex="1">
          <mxGeometry x="1540" y="1330" width="120" height="20" as="geometry" />
        </mxCell>
        <mxCell id="FuhKpFBaoV_LeuCqC9Cw-87" style="edgeStyle=orthogonalEdgeStyle;rounded=0;orthogonalLoop=1;jettySize=auto;html=1;" parent="1" source="FuhKpFBaoV_LeuCqC9Cw-85" edge="1">
          <mxGeometry relative="1" as="geometry">
            <mxPoint x="1410" y="1440" as="targetPoint" />
            <Array as="points">
              <mxPoint x="1600" y="1440" />
            </Array>
          </mxGeometry>
        </mxCell>
        <mxCell id="FuhKpFBaoV_LeuCqC9Cw-85" value="a[b].id=ID[i];" style="rounded=0;whiteSpace=wrap;html=1;" parent="1" vertex="1">
          <mxGeometry x="1555" y="1370" width="90" height="30" as="geometry" />
        </mxCell>
        <mxCell id="FuhKpFBaoV_LeuCqC9Cw-88" value="" style="endArrow=classic;html=1;rounded=0;" parent="1" edge="1">
          <mxGeometry width="50" height="50" relative="1" as="geometry">
            <mxPoint x="1408" y="1440" as="sourcePoint" />
            <mxPoint x="1420" y="130" as="targetPoint" />
            <Array as="points">
              <mxPoint x="1408" y="1480" />
              <mxPoint x="1180" y="1480" />
              <mxPoint x="1180" y="130" />
            </Array>
          </mxGeometry>
        </mxCell>
        <mxCell id="FuhKpFBaoV_LeuCqC9Cw-90" value="0" style="text;html=1;align=center;verticalAlign=middle;resizable=0;points=[];autosize=1;strokeColor=none;fillColor=none;" parent="1" vertex="1">
          <mxGeometry x="1565" y="118" width="30" height="30" as="geometry" />
        </mxCell>
        <mxCell id="FuhKpFBaoV_LeuCqC9Cw-91" value="}" style="ellipse;whiteSpace=wrap;html=1;" parent="1" vertex="1">
          <mxGeometry x="1675" y="200" width="120" height="80" as="geometry" />
        </mxCell>
        <mxCell id="FuhKpFBaoV_LeuCqC9Cw-93" style="edgeStyle=orthogonalEdgeStyle;rounded=0;orthogonalLoop=1;jettySize=auto;html=1;" parent="1" source="FuhKpFBaoV_LeuCqC9Cw-92" target="FuhKpFBaoV_LeuCqC9Cw-95" edge="1">
          <mxGeometry relative="1" as="geometry">
            <mxPoint x="2300" y="190" as="targetPoint" />
          </mxGeometry>
        </mxCell>
        <mxCell id="FuhKpFBaoV_LeuCqC9Cw-92" value="void hash2(student**&amp;amp; f,int n,int&amp;amp; khash,int*&amp;amp; d)" style="shape=process;whiteSpace=wrap;html=1;backgroundOutline=1;" parent="1" vertex="1">
          <mxGeometry x="2140" y="78" width="320" height="32" as="geometry" />
        </mxCell>
        <mxCell id="FuhKpFBaoV_LeuCqC9Cw-94" value="{" style="text;html=1;align=center;verticalAlign=middle;resizable=0;points=[];autosize=1;strokeColor=none;fillColor=none;" parent="1" vertex="1">
          <mxGeometry x="2265" y="120" width="30" height="30" as="geometry" />
        </mxCell>
        <mxCell id="FuhKpFBaoV_LeuCqC9Cw-96" style="edgeStyle=orthogonalEdgeStyle;rounded=0;orthogonalLoop=1;jettySize=auto;html=1;" parent="1" source="FuhKpFBaoV_LeuCqC9Cw-95" target="FuhKpFBaoV_LeuCqC9Cw-98" edge="1">
          <mxGeometry relative="1" as="geometry">
            <mxPoint x="2300" y="260" as="targetPoint" />
          </mxGeometry>
        </mxCell>
        <mxCell id="FuhKpFBaoV_LeuCqC9Cw-132" style="edgeStyle=orthogonalEdgeStyle;rounded=0;orthogonalLoop=1;jettySize=auto;html=1;" parent="1" source="FuhKpFBaoV_LeuCqC9Cw-95" target="FuhKpFBaoV_LeuCqC9Cw-134" edge="1">
          <mxGeometry relative="1" as="geometry">
            <mxPoint x="2670" y="379.9999999999998" as="targetPoint" />
          </mxGeometry>
        </mxCell>
        <mxCell id="FuhKpFBaoV_LeuCqC9Cw-95" value="for(int i=0;i&amp;lt;n;i++)" style="shape=hexagon;perimeter=hexagonPerimeter2;whiteSpace=wrap;html=1;fixedSize=1;" parent="1" vertex="1">
          <mxGeometry x="2240" y="160" width="120" height="30" as="geometry" />
        </mxCell>
        <mxCell id="FuhKpFBaoV_LeuCqC9Cw-97" value="1" style="text;html=1;align=center;verticalAlign=middle;resizable=0;points=[];autosize=1;strokeColor=none;fillColor=none;" parent="1" vertex="1">
          <mxGeometry x="2275" y="198" width="30" height="30" as="geometry" />
        </mxCell>
        <mxCell id="FuhKpFBaoV_LeuCqC9Cw-99" style="edgeStyle=orthogonalEdgeStyle;rounded=0;orthogonalLoop=1;jettySize=auto;html=1;" parent="1" source="FuhKpFBaoV_LeuCqC9Cw-98" target="FuhKpFBaoV_LeuCqC9Cw-101" edge="1">
          <mxGeometry relative="1" as="geometry">
            <mxPoint x="2300" y="300" as="targetPoint" />
          </mxGeometry>
        </mxCell>
        <mxCell id="FuhKpFBaoV_LeuCqC9Cw-98" value="&lt;div&gt;double h = (sqrt(2) / 2) * summ(dates[i]),&lt;span style=&quot;background-color: transparent; color: light-dark(rgb(0, 0, 0), rgb(255, 255, 255));&quot;&gt;&amp;nbsp;drob = h - static_cast&amp;lt;int&amp;gt;(h);&lt;/span&gt;&lt;/div&gt;" style="rounded=0;whiteSpace=wrap;html=1;" parent="1" vertex="1">
          <mxGeometry x="2111.25" y="240" width="377.5" height="20" as="geometry" />
        </mxCell>
        <mxCell id="FuhKpFBaoV_LeuCqC9Cw-105" style="edgeStyle=orthogonalEdgeStyle;rounded=0;orthogonalLoop=1;jettySize=auto;html=1;" parent="1" source="FuhKpFBaoV_LeuCqC9Cw-100" target="FuhKpFBaoV_LeuCqC9Cw-107" edge="1">
          <mxGeometry relative="1" as="geometry">
            <mxPoint x="2299.9999999999995" y="440" as="targetPoint" />
          </mxGeometry>
        </mxCell>
        <mxCell id="FuhKpFBaoV_LeuCqC9Cw-130" style="edgeStyle=orthogonalEdgeStyle;rounded=0;orthogonalLoop=1;jettySize=auto;html=1;entryX=0;entryY=0.5;entryDx=0;entryDy=0;" parent="1" source="FuhKpFBaoV_LeuCqC9Cw-100" target="FuhKpFBaoV_LeuCqC9Cw-95" edge="1">
          <mxGeometry relative="1" as="geometry">
            <mxPoint x="2300" y="880" as="targetPoint" />
            <Array as="points">
              <mxPoint x="2500" y="395" />
              <mxPoint x="2500" y="850" />
              <mxPoint x="2010" y="850" />
              <mxPoint x="2010" y="175" />
            </Array>
          </mxGeometry>
        </mxCell>
        <mxCell id="FuhKpFBaoV_LeuCqC9Cw-100" value="for(int g=0;g&amp;lt;n&amp;amp;&amp;amp;flag;g++)" style="shape=hexagon;perimeter=hexagonPerimeter2;whiteSpace=wrap;html=1;fixedSize=1;" parent="1" vertex="1">
          <mxGeometry x="2220" y="380" width="160" height="30" as="geometry" />
        </mxCell>
        <mxCell id="FuhKpFBaoV_LeuCqC9Cw-102" style="edgeStyle=orthogonalEdgeStyle;rounded=0;orthogonalLoop=1;jettySize=auto;html=1;" parent="1" source="FuhKpFBaoV_LeuCqC9Cw-101" target="FuhKpFBaoV_LeuCqC9Cw-103" edge="1">
          <mxGeometry relative="1" as="geometry">
            <mxPoint x="2299.9999999999995" y="330" as="targetPoint" />
          </mxGeometry>
        </mxCell>
        <mxCell id="FuhKpFBaoV_LeuCqC9Cw-101" value="int b= static_cast&amp;lt;int&amp;gt;(n*drob);" style="rounded=0;whiteSpace=wrap;html=1;" parent="1" vertex="1">
          <mxGeometry x="2215" y="290" width="170" height="20" as="geometry" />
        </mxCell>
        <mxCell id="FuhKpFBaoV_LeuCqC9Cw-104" style="edgeStyle=orthogonalEdgeStyle;rounded=0;orthogonalLoop=1;jettySize=auto;html=1;" parent="1" source="FuhKpFBaoV_LeuCqC9Cw-103" edge="1">
          <mxGeometry relative="1" as="geometry">
            <mxPoint x="2299.9999999999995" y="380" as="targetPoint" />
          </mxGeometry>
        </mxCell>
        <mxCell id="FuhKpFBaoV_LeuCqC9Cw-103" value="bool flag=true;" style="rounded=0;whiteSpace=wrap;html=1;" parent="1" vertex="1">
          <mxGeometry x="2255" y="330" width="90" height="20" as="geometry" />
        </mxCell>
        <mxCell id="FuhKpFBaoV_LeuCqC9Cw-106" value="1" style="text;html=1;align=center;verticalAlign=middle;resizable=0;points=[];autosize=1;strokeColor=none;fillColor=none;" parent="1" vertex="1">
          <mxGeometry x="2275" y="408" width="30" height="30" as="geometry" />
        </mxCell>
        <mxCell id="FuhKpFBaoV_LeuCqC9Cw-108" style="edgeStyle=orthogonalEdgeStyle;rounded=0;orthogonalLoop=1;jettySize=auto;html=1;" parent="1" source="FuhKpFBaoV_LeuCqC9Cw-107" target="FuhKpFBaoV_LeuCqC9Cw-110" edge="1">
          <mxGeometry relative="1" as="geometry">
            <mxPoint x="2210" y="500" as="targetPoint" />
          </mxGeometry>
        </mxCell>
        <mxCell id="FuhKpFBaoV_LeuCqC9Cw-109" value="1" style="edgeLabel;html=1;align=center;verticalAlign=middle;resizable=0;points=[];" parent="FuhKpFBaoV_LeuCqC9Cw-108" vertex="1" connectable="0">
          <mxGeometry x="-0.5501" y="-8" relative="1" as="geometry">
            <mxPoint as="offset" />
          </mxGeometry>
        </mxCell>
        <mxCell id="FuhKpFBaoV_LeuCqC9Cw-124" style="edgeStyle=orthogonalEdgeStyle;rounded=0;orthogonalLoop=1;jettySize=auto;html=1;" parent="1" source="FuhKpFBaoV_LeuCqC9Cw-107" target="FuhKpFBaoV_LeuCqC9Cw-126" edge="1">
          <mxGeometry relative="1" as="geometry">
            <mxPoint x="2430" y="550" as="targetPoint" />
          </mxGeometry>
        </mxCell>
        <mxCell id="FuhKpFBaoV_LeuCqC9Cw-107" value="if(f[b][g].id==-1)" style="rhombus;whiteSpace=wrap;html=1;" parent="1" vertex="1">
          <mxGeometry x="2245" y="435" width="110" height="45" as="geometry" />
        </mxCell>
        <mxCell id="FuhKpFBaoV_LeuCqC9Cw-111" style="edgeStyle=orthogonalEdgeStyle;rounded=0;orthogonalLoop=1;jettySize=auto;html=1;" parent="1" source="FuhKpFBaoV_LeuCqC9Cw-110" target="FuhKpFBaoV_LeuCqC9Cw-112" edge="1">
          <mxGeometry relative="1" as="geometry">
            <mxPoint x="2180" y="570" as="targetPoint" />
          </mxGeometry>
        </mxCell>
        <mxCell id="FuhKpFBaoV_LeuCqC9Cw-110" value="f[b][g].datar=dates[i];" style="rounded=0;whiteSpace=wrap;html=1;" parent="1" vertex="1">
          <mxGeometry x="2120" y="508" width="120" height="22" as="geometry" />
        </mxCell>
        <mxCell id="FuhKpFBaoV_LeuCqC9Cw-113" style="edgeStyle=orthogonalEdgeStyle;rounded=0;orthogonalLoop=1;jettySize=auto;html=1;" parent="1" source="FuhKpFBaoV_LeuCqC9Cw-112" target="FuhKpFBaoV_LeuCqC9Cw-114" edge="1">
          <mxGeometry relative="1" as="geometry">
            <mxPoint x="2180" y="610" as="targetPoint" />
          </mxGeometry>
        </mxCell>
        <mxCell id="FuhKpFBaoV_LeuCqC9Cw-112" value="f[b][g].i=names[i];" style="rounded=0;whiteSpace=wrap;html=1;" parent="1" vertex="1">
          <mxGeometry x="2130" y="550" width="100" height="20" as="geometry" />
        </mxCell>
        <mxCell id="FuhKpFBaoV_LeuCqC9Cw-115" style="edgeStyle=orthogonalEdgeStyle;rounded=0;orthogonalLoop=1;jettySize=auto;html=1;" parent="1" source="FuhKpFBaoV_LeuCqC9Cw-114" target="FuhKpFBaoV_LeuCqC9Cw-116" edge="1">
          <mxGeometry relative="1" as="geometry">
            <mxPoint x="2180" y="660" as="targetPoint" />
          </mxGeometry>
        </mxCell>
        <mxCell id="FuhKpFBaoV_LeuCqC9Cw-114" value="f[b][g].f=surnames[i];" style="rounded=0;whiteSpace=wrap;html=1;" parent="1" vertex="1">
          <mxGeometry x="2120" y="590" width="120" height="20" as="geometry" />
        </mxCell>
        <mxCell id="FuhKpFBaoV_LeuCqC9Cw-117" style="edgeStyle=orthogonalEdgeStyle;rounded=0;orthogonalLoop=1;jettySize=auto;html=1;" parent="1" source="FuhKpFBaoV_LeuCqC9Cw-116" target="FuhKpFBaoV_LeuCqC9Cw-118" edge="1">
          <mxGeometry relative="1" as="geometry">
            <mxPoint x="2180" y="690" as="targetPoint" />
          </mxGeometry>
        </mxCell>
        <mxCell id="FuhKpFBaoV_LeuCqC9Cw-116" value="f[b][g].o=patronymic[i];" style="rounded=0;whiteSpace=wrap;html=1;" parent="1" vertex="1">
          <mxGeometry x="2115" y="630" width="130" height="20" as="geometry" />
        </mxCell>
        <mxCell id="FuhKpFBaoV_LeuCqC9Cw-119" style="edgeStyle=orthogonalEdgeStyle;rounded=0;orthogonalLoop=1;jettySize=auto;html=1;" parent="1" source="FuhKpFBaoV_LeuCqC9Cw-118" target="FuhKpFBaoV_LeuCqC9Cw-120" edge="1">
          <mxGeometry relative="1" as="geometry">
            <mxPoint x="2180" y="730" as="targetPoint" />
          </mxGeometry>
        </mxCell>
        <mxCell id="FuhKpFBaoV_LeuCqC9Cw-118" value="f[b][g].id=ID[i];" style="rounded=0;whiteSpace=wrap;html=1;" parent="1" vertex="1">
          <mxGeometry x="2135" y="670" width="90" height="20" as="geometry" />
        </mxCell>
        <mxCell id="FuhKpFBaoV_LeuCqC9Cw-121" style="edgeStyle=orthogonalEdgeStyle;rounded=0;orthogonalLoop=1;jettySize=auto;html=1;" parent="1" source="FuhKpFBaoV_LeuCqC9Cw-120" target="FuhKpFBaoV_LeuCqC9Cw-123" edge="1">
          <mxGeometry relative="1" as="geometry">
            <mxPoint x="2180.0370370370365" y="740" as="targetPoint" />
          </mxGeometry>
        </mxCell>
        <mxCell id="FuhKpFBaoV_LeuCqC9Cw-120" value="flag=false;" style="rounded=0;whiteSpace=wrap;html=1;" parent="1" vertex="1">
          <mxGeometry x="2150" y="710" width="60" height="20" as="geometry" />
        </mxCell>
        <mxCell id="FuhKpFBaoV_LeuCqC9Cw-128" style="edgeStyle=orthogonalEdgeStyle;rounded=0;orthogonalLoop=1;jettySize=auto;html=1;" parent="1" source="FuhKpFBaoV_LeuCqC9Cw-123" edge="1">
          <mxGeometry relative="1" as="geometry">
            <mxPoint x="2300" y="800" as="targetPoint" />
            <Array as="points">
              <mxPoint x="2181" y="800" />
            </Array>
          </mxGeometry>
        </mxCell>
        <mxCell id="FuhKpFBaoV_LeuCqC9Cw-123" value="++d[b];" style="rounded=0;whiteSpace=wrap;html=1;" parent="1" vertex="1">
          <mxGeometry x="2155" y="750" width="50" height="20" as="geometry" />
        </mxCell>
        <mxCell id="FuhKpFBaoV_LeuCqC9Cw-125" value="0" style="text;html=1;align=center;verticalAlign=middle;resizable=0;points=[];autosize=1;strokeColor=none;fillColor=none;" parent="1" vertex="1">
          <mxGeometry x="2365" y="428" width="30" height="30" as="geometry" />
        </mxCell>
        <mxCell id="FuhKpFBaoV_LeuCqC9Cw-127" style="edgeStyle=orthogonalEdgeStyle;rounded=0;orthogonalLoop=1;jettySize=auto;html=1;" parent="1" source="FuhKpFBaoV_LeuCqC9Cw-126" edge="1">
          <mxGeometry relative="1" as="geometry">
            <mxPoint x="2300" y="800" as="targetPoint" />
            <Array as="points">
              <mxPoint x="2414" y="720" />
              <mxPoint x="2414" y="800" />
            </Array>
          </mxGeometry>
        </mxCell>
        <mxCell id="FuhKpFBaoV_LeuCqC9Cw-126" value="++khash;" style="rounded=0;whiteSpace=wrap;html=1;" parent="1" vertex="1">
          <mxGeometry x="2385" y="510" width="58.75" height="20" as="geometry" />
        </mxCell>
        <mxCell id="FuhKpFBaoV_LeuCqC9Cw-129" value="" style="endArrow=classic;html=1;rounded=0;entryX=0;entryY=0.5;entryDx=0;entryDy=0;" parent="1" target="FuhKpFBaoV_LeuCqC9Cw-100" edge="1">
          <mxGeometry width="50" height="50" relative="1" as="geometry">
            <mxPoint x="2300" y="800" as="sourcePoint" />
            <mxPoint x="2080" y="840" as="targetPoint" />
            <Array as="points">
              <mxPoint x="2300" y="840" />
              <mxPoint x="2080" y="840" />
              <mxPoint x="2080" y="395" />
            </Array>
          </mxGeometry>
        </mxCell>
        <mxCell id="FuhKpFBaoV_LeuCqC9Cw-131" value="0" style="text;html=1;align=center;verticalAlign=middle;resizable=0;points=[];autosize=1;strokeColor=none;fillColor=none;" parent="1" vertex="1">
          <mxGeometry x="2405" y="368" width="30" height="30" as="geometry" />
        </mxCell>
        <mxCell id="FuhKpFBaoV_LeuCqC9Cw-133" value="0" style="text;html=1;align=center;verticalAlign=middle;resizable=0;points=[];autosize=1;strokeColor=none;fillColor=none;" parent="1" vertex="1">
          <mxGeometry x="2465" y="138" width="30" height="30" as="geometry" />
        </mxCell>
        <mxCell id="FuhKpFBaoV_LeuCqC9Cw-134" value="}" style="ellipse;whiteSpace=wrap;html=1;" parent="1" vertex="1">
          <mxGeometry x="2500" y="249.99999999999977" width="120" height="80" as="geometry" />
        </mxCell>
        <mxCell id="FuhKpFBaoV_LeuCqC9Cw-136" style="edgeStyle=orthogonalEdgeStyle;rounded=0;orthogonalLoop=1;jettySize=auto;html=1;" parent="1" source="FuhKpFBaoV_LeuCqC9Cw-135" target="FuhKpFBaoV_LeuCqC9Cw-139" edge="1">
          <mxGeometry relative="1" as="geometry">
            <mxPoint x="3140" y="170" as="targetPoint" />
          </mxGeometry>
        </mxCell>
        <mxCell id="FuhKpFBaoV_LeuCqC9Cw-135" value="int main()" style="shape=process;whiteSpace=wrap;html=1;backgroundOutline=1;" parent="1" vertex="1">
          <mxGeometry x="3080" y="88" width="120" height="22" as="geometry" />
        </mxCell>
        <mxCell id="FuhKpFBaoV_LeuCqC9Cw-138" style="edgeStyle=orthogonalEdgeStyle;rounded=0;orthogonalLoop=1;jettySize=auto;html=1;" parent="1" source="FuhKpFBaoV_LeuCqC9Cw-137" edge="1">
          <mxGeometry relative="1" as="geometry">
            <mxPoint x="3140" y="133" as="targetPoint" />
          </mxGeometry>
        </mxCell>
        <mxCell id="FuhKpFBaoV_LeuCqC9Cw-137" value="&lt;div&gt;#include &amp;lt;iostream&amp;gt;&lt;/div&gt;&lt;div&gt;#include &amp;lt;string&amp;gt;&lt;/div&gt;&lt;div&gt;#include &amp;lt;math.h&amp;gt;&lt;/div&gt;" style="strokeWidth=2;html=1;shape=mxgraph.flowchart.annotation_2;align=left;labelPosition=right;pointerEvents=1;" parent="1" vertex="1">
          <mxGeometry x="3260" y="83" width="50" height="100" as="geometry" />
        </mxCell>
        <mxCell id="FuhKpFBaoV_LeuCqC9Cw-140" style="edgeStyle=orthogonalEdgeStyle;rounded=0;orthogonalLoop=1;jettySize=auto;html=1;" parent="1" source="FuhKpFBaoV_LeuCqC9Cw-139" target="FuhKpFBaoV_LeuCqC9Cw-141" edge="1">
          <mxGeometry relative="1" as="geometry">
            <mxPoint x="3140" y="210" as="targetPoint" />
          </mxGeometry>
        </mxCell>
        <mxCell id="FuhKpFBaoV_LeuCqC9Cw-139" value="&lt;div&gt;int n=30,&lt;span style=&quot;background-color: transparent; color: light-dark(rgb(0, 0, 0), rgb(255, 255, 255));&quot;&gt;khash=0;&lt;/span&gt;&lt;/div&gt;" style="rounded=0;whiteSpace=wrap;html=1;" parent="1" vertex="1">
          <mxGeometry x="3080" y="155" width="120" height="25" as="geometry" />
        </mxCell>
        <mxCell id="FuhKpFBaoV_LeuCqC9Cw-142" style="edgeStyle=orthogonalEdgeStyle;rounded=0;orthogonalLoop=1;jettySize=auto;html=1;" parent="1" source="FuhKpFBaoV_LeuCqC9Cw-141" target="FuhKpFBaoV_LeuCqC9Cw-143" edge="1">
          <mxGeometry relative="1" as="geometry">
            <mxPoint x="3140" y="250" as="targetPoint" />
          </mxGeometry>
        </mxCell>
        <mxCell id="FuhKpFBaoV_LeuCqC9Cw-141" value="student* a=new student[n];" style="rounded=0;whiteSpace=wrap;html=1;" parent="1" vertex="1">
          <mxGeometry x="3065" y="198" width="150" height="22" as="geometry" />
        </mxCell>
        <mxCell id="FuhKpFBaoV_LeuCqC9Cw-144" style="edgeStyle=orthogonalEdgeStyle;rounded=0;orthogonalLoop=1;jettySize=auto;html=1;" parent="1" source="FuhKpFBaoV_LeuCqC9Cw-143" target="FuhKpFBaoV_LeuCqC9Cw-145" edge="1">
          <mxGeometry relative="1" as="geometry">
            <mxPoint x="3140" y="290" as="targetPoint" />
          </mxGeometry>
        </mxCell>
        <mxCell id="FuhKpFBaoV_LeuCqC9Cw-143" value="hash1(a,n,khash);" style="rounded=0;whiteSpace=wrap;html=1;" parent="1" vertex="1">
          <mxGeometry x="3080" y="240" width="120" height="20" as="geometry" />
        </mxCell>
        <mxCell id="FuhKpFBaoV_LeuCqC9Cw-146" style="edgeStyle=orthogonalEdgeStyle;rounded=0;orthogonalLoop=1;jettySize=auto;html=1;" parent="1" source="FuhKpFBaoV_LeuCqC9Cw-145" target="FuhKpFBaoV_LeuCqC9Cw-148" edge="1">
          <mxGeometry relative="1" as="geometry">
            <mxPoint x="3140" y="330" as="targetPoint" />
          </mxGeometry>
        </mxCell>
        <mxCell id="FuhKpFBaoV_LeuCqC9Cw-150" style="edgeStyle=orthogonalEdgeStyle;rounded=0;orthogonalLoop=1;jettySize=auto;html=1;" parent="1" source="FuhKpFBaoV_LeuCqC9Cw-145" edge="1">
          <mxGeometry relative="1" as="geometry">
            <mxPoint x="3140" y="450" as="targetPoint" />
            <Array as="points">
              <mxPoint x="3300" y="290" />
              <mxPoint x="3300" y="420" />
              <mxPoint x="3140" y="420" />
            </Array>
          </mxGeometry>
        </mxCell>
        <mxCell id="FuhKpFBaoV_LeuCqC9Cw-145" value="for(int i=0;i&amp;lt;n;i++)" style="shape=hexagon;perimeter=hexagonPerimeter2;whiteSpace=wrap;html=1;fixedSize=1;" parent="1" vertex="1">
          <mxGeometry x="3080" y="280" width="120" height="20" as="geometry" />
        </mxCell>
        <mxCell id="FuhKpFBaoV_LeuCqC9Cw-147" value="1" style="text;html=1;align=center;verticalAlign=middle;resizable=0;points=[];autosize=1;strokeColor=none;fillColor=none;" parent="1" vertex="1">
          <mxGeometry x="3115" y="298" width="30" height="30" as="geometry" />
        </mxCell>
        <mxCell id="FuhKpFBaoV_LeuCqC9Cw-149" style="edgeStyle=orthogonalEdgeStyle;rounded=0;orthogonalLoop=1;jettySize=auto;html=1;entryX=0;entryY=0.5;entryDx=0;entryDy=0;" parent="1" source="FuhKpFBaoV_LeuCqC9Cw-148" target="FuhKpFBaoV_LeuCqC9Cw-145" edge="1">
          <mxGeometry relative="1" as="geometry">
            <mxPoint x="3140" y="390" as="targetPoint" />
            <Array as="points">
              <mxPoint x="3140" y="410" />
              <mxPoint x="2970" y="410" />
              <mxPoint x="2970" y="290" />
            </Array>
          </mxGeometry>
        </mxCell>
        <mxCell id="FuhKpFBaoV_LeuCqC9Cw-148" value="cout&amp;lt;&amp;lt;i&amp;lt;&amp;lt;&quot;:&quot;&amp;lt;&amp;lt;a[i].f&amp;lt;&amp;lt;&quot; &quot;&amp;lt;&amp;lt;a[i].i&amp;lt;&amp;lt;&quot; &quot;&amp;lt;&amp;lt;a[i].o&amp;lt;&amp;lt;&quot; &quot;&amp;lt;&amp;lt;a[i].datar&amp;lt;&amp;lt;&quot; &quot;&amp;lt;&amp;lt;a[i].id&amp;lt;&amp;lt;endl;" style="shape=parallelogram;perimeter=parallelogramPerimeter;whiteSpace=wrap;html=1;fixedSize=1;" parent="1" vertex="1">
          <mxGeometry x="2990" y="330" width="300" height="30" as="geometry" />
        </mxCell>
        <mxCell id="FuhKpFBaoV_LeuCqC9Cw-151" value="0" style="text;html=1;align=center;verticalAlign=middle;resizable=0;points=[];autosize=1;strokeColor=none;fillColor=none;" parent="1" vertex="1">
          <mxGeometry x="3215" y="268" width="30" height="30" as="geometry" />
        </mxCell>
        <mxCell id="FuhKpFBaoV_LeuCqC9Cw-153" style="edgeStyle=orthogonalEdgeStyle;rounded=0;orthogonalLoop=1;jettySize=auto;html=1;" parent="1" source="FuhKpFBaoV_LeuCqC9Cw-152" target="FuhKpFBaoV_LeuCqC9Cw-154" edge="1">
          <mxGeometry relative="1" as="geometry">
            <mxPoint x="3140" y="500" as="targetPoint" />
          </mxGeometry>
        </mxCell>
        <mxCell id="FuhKpFBaoV_LeuCqC9Cw-152" value="cout&amp;lt;&amp;lt;khash&amp;lt;&amp;lt;endl;" style="shape=parallelogram;perimeter=parallelogramPerimeter;whiteSpace=wrap;html=1;fixedSize=1;" parent="1" vertex="1">
          <mxGeometry x="3070" y="450" width="140" height="20" as="geometry" />
        </mxCell>
        <mxCell id="FuhKpFBaoV_LeuCqC9Cw-155" style="edgeStyle=orthogonalEdgeStyle;rounded=0;orthogonalLoop=1;jettySize=auto;html=1;" parent="1" source="FuhKpFBaoV_LeuCqC9Cw-154" target="FuhKpFBaoV_LeuCqC9Cw-156" edge="1">
          <mxGeometry relative="1" as="geometry">
            <mxPoint x="3130" y="560" as="targetPoint" />
          </mxGeometry>
        </mxCell>
        <mxCell id="FuhKpFBaoV_LeuCqC9Cw-154" value="delete[] a;" style="rounded=0;whiteSpace=wrap;html=1;" parent="1" vertex="1">
          <mxGeometry x="3105" y="489" width="70" height="31" as="geometry" />
        </mxCell>
        <mxCell id="FuhKpFBaoV_LeuCqC9Cw-157" style="edgeStyle=orthogonalEdgeStyle;rounded=0;orthogonalLoop=1;jettySize=auto;html=1;" parent="1" source="FuhKpFBaoV_LeuCqC9Cw-156" target="FuhKpFBaoV_LeuCqC9Cw-158" edge="1">
          <mxGeometry relative="1" as="geometry">
            <mxPoint x="3140" y="600" as="targetPoint" />
          </mxGeometry>
        </mxCell>
        <mxCell id="FuhKpFBaoV_LeuCqC9Cw-156" value="khash=0;" style="rounded=0;whiteSpace=wrap;html=1;" parent="1" vertex="1">
          <mxGeometry x="3105" y="538" width="70" height="22" as="geometry" />
        </mxCell>
        <mxCell id="FuhKpFBaoV_LeuCqC9Cw-159" style="edgeStyle=orthogonalEdgeStyle;rounded=0;orthogonalLoop=1;jettySize=auto;html=1;" parent="1" source="FuhKpFBaoV_LeuCqC9Cw-158" target="FuhKpFBaoV_LeuCqC9Cw-160" edge="1">
          <mxGeometry relative="1" as="geometry">
            <mxPoint x="3140" y="640" as="targetPoint" />
          </mxGeometry>
        </mxCell>
        <mxCell id="FuhKpFBaoV_LeuCqC9Cw-158" value="student** f=new student*[n];" style="rounded=0;whiteSpace=wrap;html=1;" parent="1" vertex="1">
          <mxGeometry x="3060" y="573" width="160" height="27" as="geometry" />
        </mxCell>
        <mxCell id="FuhKpFBaoV_LeuCqC9Cw-161" style="edgeStyle=orthogonalEdgeStyle;rounded=0;orthogonalLoop=1;jettySize=auto;html=1;" parent="1" source="FuhKpFBaoV_LeuCqC9Cw-160" target="FuhKpFBaoV_LeuCqC9Cw-162" edge="1">
          <mxGeometry relative="1" as="geometry">
            <mxPoint x="3140" y="680" as="targetPoint" />
          </mxGeometry>
        </mxCell>
        <mxCell id="FuhKpFBaoV_LeuCqC9Cw-160" value="int* d=new int[n];" style="rounded=0;whiteSpace=wrap;html=1;" parent="1" vertex="1">
          <mxGeometry x="3090" y="621" width="100" height="29" as="geometry" />
        </mxCell>
        <mxCell id="FuhKpFBaoV_LeuCqC9Cw-163" style="edgeStyle=orthogonalEdgeStyle;rounded=0;orthogonalLoop=1;jettySize=auto;html=1;" parent="1" source="FuhKpFBaoV_LeuCqC9Cw-162" target="FuhKpFBaoV_LeuCqC9Cw-165" edge="1">
          <mxGeometry relative="1" as="geometry">
            <mxPoint x="3140" y="740" as="targetPoint" />
          </mxGeometry>
        </mxCell>
        <mxCell id="FuhKpFBaoV_LeuCqC9Cw-169" style="edgeStyle=orthogonalEdgeStyle;rounded=0;orthogonalLoop=1;jettySize=auto;html=1;" parent="1" source="FuhKpFBaoV_LeuCqC9Cw-162" target="FuhKpFBaoV_LeuCqC9Cw-171" edge="1">
          <mxGeometry relative="1" as="geometry">
            <mxPoint x="3140" y="860" as="targetPoint" />
            <Array as="points">
              <mxPoint x="3231" y="685" />
              <mxPoint x="3231" y="840" />
            </Array>
          </mxGeometry>
        </mxCell>
        <mxCell id="FuhKpFBaoV_LeuCqC9Cw-162" value="for(int i=0;i&amp;lt;n;i++)" style="shape=hexagon;perimeter=hexagonPerimeter2;whiteSpace=wrap;html=1;fixedSize=1;" parent="1" vertex="1">
          <mxGeometry x="3080" y="670" width="120" height="30" as="geometry" />
        </mxCell>
        <mxCell id="FuhKpFBaoV_LeuCqC9Cw-164" value="1" style="text;html=1;align=center;verticalAlign=middle;resizable=0;points=[];autosize=1;strokeColor=none;fillColor=none;" parent="1" vertex="1">
          <mxGeometry x="3115" y="698" width="30" height="30" as="geometry" />
        </mxCell>
        <mxCell id="FuhKpFBaoV_LeuCqC9Cw-166" style="edgeStyle=orthogonalEdgeStyle;rounded=0;orthogonalLoop=1;jettySize=auto;html=1;" parent="1" source="FuhKpFBaoV_LeuCqC9Cw-165" target="FuhKpFBaoV_LeuCqC9Cw-167" edge="1">
          <mxGeometry relative="1" as="geometry">
            <mxPoint x="3140" y="790" as="targetPoint" />
          </mxGeometry>
        </mxCell>
        <mxCell id="FuhKpFBaoV_LeuCqC9Cw-165" value="d[i]=0;" style="rounded=0;whiteSpace=wrap;html=1;" parent="1" vertex="1">
          <mxGeometry x="3110" y="728" width="60" height="22" as="geometry" />
        </mxCell>
        <mxCell id="FuhKpFBaoV_LeuCqC9Cw-168" style="edgeStyle=orthogonalEdgeStyle;rounded=0;orthogonalLoop=1;jettySize=auto;html=1;entryX=0;entryY=0.5;entryDx=0;entryDy=0;" parent="1" source="FuhKpFBaoV_LeuCqC9Cw-167" target="FuhKpFBaoV_LeuCqC9Cw-162" edge="1">
          <mxGeometry relative="1" as="geometry">
            <mxPoint x="3130" y="880" as="targetPoint" />
            <Array as="points">
              <mxPoint x="3140" y="820" />
              <mxPoint x="3050" y="820" />
              <mxPoint x="3050" y="685" />
            </Array>
          </mxGeometry>
        </mxCell>
        <mxCell id="FuhKpFBaoV_LeuCqC9Cw-167" value="f[i]=new student[n];" style="rounded=0;whiteSpace=wrap;html=1;" parent="1" vertex="1">
          <mxGeometry x="3080" y="770" width="120" height="30" as="geometry" />
        </mxCell>
        <mxCell id="FuhKpFBaoV_LeuCqC9Cw-170" value="0" style="text;html=1;align=center;verticalAlign=middle;resizable=0;points=[];autosize=1;strokeColor=none;fillColor=none;" parent="1" vertex="1">
          <mxGeometry x="3200" y="660" width="30" height="30" as="geometry" />
        </mxCell>
        <mxCell id="FuhKpFBaoV_LeuCqC9Cw-172" style="edgeStyle=orthogonalEdgeStyle;rounded=0;orthogonalLoop=1;jettySize=auto;html=1;" parent="1" source="FuhKpFBaoV_LeuCqC9Cw-171" target="FuhKpFBaoV_LeuCqC9Cw-173" edge="1">
          <mxGeometry relative="1" as="geometry">
            <mxPoint x="3140" y="920" as="targetPoint" />
          </mxGeometry>
        </mxCell>
        <mxCell id="FuhKpFBaoV_LeuCqC9Cw-171" value="hash2(f,n,khash,d);" style="rounded=0;whiteSpace=wrap;html=1;" parent="1" vertex="1">
          <mxGeometry x="3080" y="850" width="120" height="30" as="geometry" />
        </mxCell>
        <mxCell id="FuhKpFBaoV_LeuCqC9Cw-174" style="edgeStyle=orthogonalEdgeStyle;rounded=0;orthogonalLoop=1;jettySize=auto;html=1;" parent="1" source="FuhKpFBaoV_LeuCqC9Cw-173" target="FuhKpFBaoV_LeuCqC9Cw-175" edge="1">
          <mxGeometry relative="1" as="geometry">
            <mxPoint x="3140" y="950" as="targetPoint" />
          </mxGeometry>
        </mxCell>
        <mxCell id="FuhKpFBaoV_LeuCqC9Cw-173" value="bool flag;" style="rounded=0;whiteSpace=wrap;html=1;" parent="1" vertex="1">
          <mxGeometry x="3110" y="900" width="60" height="20" as="geometry" />
        </mxCell>
        <mxCell id="FuhKpFBaoV_LeuCqC9Cw-176" style="edgeStyle=orthogonalEdgeStyle;rounded=0;orthogonalLoop=1;jettySize=auto;html=1;" parent="1" source="FuhKpFBaoV_LeuCqC9Cw-175" target="FuhKpFBaoV_LeuCqC9Cw-178" edge="1">
          <mxGeometry relative="1" as="geometry">
            <mxPoint x="3140" y="1000" as="targetPoint" />
          </mxGeometry>
        </mxCell>
        <mxCell id="FuhKpFBaoV_LeuCqC9Cw-200" style="edgeStyle=orthogonalEdgeStyle;rounded=0;orthogonalLoop=1;jettySize=auto;html=1;" parent="1" source="FuhKpFBaoV_LeuCqC9Cw-175" target="FuhKpFBaoV_LeuCqC9Cw-202" edge="1">
          <mxGeometry relative="1" as="geometry">
            <mxPoint x="3140" y="1500" as="targetPoint" />
            <Array as="points">
              <mxPoint x="3310" y="949" />
              <mxPoint x="3310" y="1480" />
            </Array>
          </mxGeometry>
        </mxCell>
        <mxCell id="FuhKpFBaoV_LeuCqC9Cw-175" value="for(int i=0;i&amp;lt;n;i++)" style="shape=hexagon;perimeter=hexagonPerimeter2;whiteSpace=wrap;html=1;fixedSize=1;" parent="1" vertex="1">
          <mxGeometry x="3080" y="938" width="120" height="22" as="geometry" />
        </mxCell>
        <mxCell id="FuhKpFBaoV_LeuCqC9Cw-177" value="1" style="text;html=1;align=center;verticalAlign=middle;resizable=0;points=[];autosize=1;strokeColor=none;fillColor=none;" parent="1" vertex="1">
          <mxGeometry x="3115" y="958" width="30" height="30" as="geometry" />
        </mxCell>
        <mxCell id="FuhKpFBaoV_LeuCqC9Cw-179" style="edgeStyle=orthogonalEdgeStyle;rounded=0;orthogonalLoop=1;jettySize=auto;html=1;" parent="1" source="FuhKpFBaoV_LeuCqC9Cw-178" target="FuhKpFBaoV_LeuCqC9Cw-180" edge="1">
          <mxGeometry relative="1" as="geometry">
            <mxPoint x="3140" y="1050" as="targetPoint" />
          </mxGeometry>
        </mxCell>
        <mxCell id="FuhKpFBaoV_LeuCqC9Cw-178" value="flag=true;" style="rounded=0;whiteSpace=wrap;html=1;" parent="1" vertex="1">
          <mxGeometry x="3110" y="988" width="60" height="22" as="geometry" />
        </mxCell>
        <mxCell id="FuhKpFBaoV_LeuCqC9Cw-181" style="edgeStyle=orthogonalEdgeStyle;rounded=0;orthogonalLoop=1;jettySize=auto;html=1;" parent="1" source="FuhKpFBaoV_LeuCqC9Cw-180" edge="1">
          <mxGeometry relative="1" as="geometry">
            <mxPoint x="3140" y="1100" as="targetPoint" />
          </mxGeometry>
        </mxCell>
        <mxCell id="FuhKpFBaoV_LeuCqC9Cw-188" style="edgeStyle=orthogonalEdgeStyle;rounded=0;orthogonalLoop=1;jettySize=auto;html=1;" parent="1" source="FuhKpFBaoV_LeuCqC9Cw-180" target="FuhKpFBaoV_LeuCqC9Cw-190" edge="1">
          <mxGeometry relative="1" as="geometry">
            <mxPoint x="3140" y="1240" as="targetPoint" />
            <Array as="points">
              <mxPoint x="3280" y="1045" />
              <mxPoint x="3280" y="1200" />
              <mxPoint x="3140" y="1200" />
            </Array>
          </mxGeometry>
        </mxCell>
        <mxCell id="FuhKpFBaoV_LeuCqC9Cw-180" value="for(int j=0;j&amp;lt;d[i];j++)" style="shape=hexagon;perimeter=hexagonPerimeter2;whiteSpace=wrap;html=1;fixedSize=1;" parent="1" vertex="1">
          <mxGeometry x="3080" y="1030" width="120" height="30" as="geometry" />
        </mxCell>
        <mxCell id="FuhKpFBaoV_LeuCqC9Cw-182" value="1" style="text;html=1;align=center;verticalAlign=middle;resizable=0;points=[];autosize=1;strokeColor=none;fillColor=none;" parent="1" vertex="1">
          <mxGeometry x="3115" y="1060" width="30" height="30" as="geometry" />
        </mxCell>
        <mxCell id="FuhKpFBaoV_LeuCqC9Cw-185" style="edgeStyle=orthogonalEdgeStyle;rounded=0;orthogonalLoop=1;jettySize=auto;html=1;" parent="1" source="FuhKpFBaoV_LeuCqC9Cw-184" target="FuhKpFBaoV_LeuCqC9Cw-186" edge="1">
          <mxGeometry relative="1" as="geometry">
            <mxPoint x="3140" y="1180" as="targetPoint" />
          </mxGeometry>
        </mxCell>
        <mxCell id="FuhKpFBaoV_LeuCqC9Cw-184" value="cout&amp;lt;&amp;lt;i&amp;lt;&amp;lt;&quot;:&quot;&amp;lt;&amp;lt;f[i][j].f&amp;lt;&amp;lt;&quot; &quot;&amp;lt;&amp;lt;f[i][j].i&amp;lt;&amp;lt;&quot; &quot;&amp;lt;&amp;lt;f[i][j].o&amp;lt;&amp;lt;&quot; &quot;&amp;lt;&amp;lt;f[i][j].datar&amp;lt;&amp;lt;&quot; &quot;&amp;lt;&amp;lt;f[i][j].id&amp;lt;&amp;lt;&quot; &quot;;" style="shape=parallelogram;perimeter=parallelogramPerimeter;whiteSpace=wrap;html=1;fixedSize=1;" parent="1" vertex="1">
          <mxGeometry x="3010" y="1100" width="260" height="30" as="geometry" />
        </mxCell>
        <mxCell id="FuhKpFBaoV_LeuCqC9Cw-187" style="edgeStyle=orthogonalEdgeStyle;rounded=0;orthogonalLoop=1;jettySize=auto;html=1;entryX=0;entryY=0.5;entryDx=0;entryDy=0;" parent="1" source="FuhKpFBaoV_LeuCqC9Cw-186" target="FuhKpFBaoV_LeuCqC9Cw-180" edge="1">
          <mxGeometry relative="1" as="geometry">
            <mxPoint x="3120" y="1230" as="targetPoint" />
            <Array as="points">
              <mxPoint x="3140" y="1190" />
              <mxPoint x="3000" y="1190" />
              <mxPoint x="3000" y="1045" />
            </Array>
          </mxGeometry>
        </mxCell>
        <mxCell id="FuhKpFBaoV_LeuCqC9Cw-186" value="flag=false;" style="rounded=0;whiteSpace=wrap;html=1;" parent="1" vertex="1">
          <mxGeometry x="3105" y="1150" width="70" height="20" as="geometry" />
        </mxCell>
        <mxCell id="FuhKpFBaoV_LeuCqC9Cw-189" value="0" style="text;html=1;align=center;verticalAlign=middle;resizable=0;points=[];autosize=1;strokeColor=none;fillColor=none;" parent="1" vertex="1">
          <mxGeometry x="3215" y="1018" width="30" height="30" as="geometry" />
        </mxCell>
        <mxCell id="FuhKpFBaoV_LeuCqC9Cw-191" style="edgeStyle=orthogonalEdgeStyle;rounded=0;orthogonalLoop=1;jettySize=auto;html=1;" parent="1" source="FuhKpFBaoV_LeuCqC9Cw-190" target="FuhKpFBaoV_LeuCqC9Cw-193" edge="1">
          <mxGeometry relative="1" as="geometry">
            <mxPoint x="3060" y="1310" as="targetPoint" />
          </mxGeometry>
        </mxCell>
        <mxCell id="FuhKpFBaoV_LeuCqC9Cw-194" style="edgeStyle=orthogonalEdgeStyle;rounded=0;orthogonalLoop=1;jettySize=auto;html=1;" parent="1" source="FuhKpFBaoV_LeuCqC9Cw-190" edge="1">
          <mxGeometry relative="1" as="geometry">
            <mxPoint x="3140" y="1340" as="targetPoint" />
            <Array as="points">
              <mxPoint x="3240" y="1250" />
              <mxPoint x="3240" y="1340" />
            </Array>
          </mxGeometry>
        </mxCell>
        <mxCell id="FuhKpFBaoV_LeuCqC9Cw-190" value="if(flag)" style="rhombus;whiteSpace=wrap;html=1;" parent="1" vertex="1">
          <mxGeometry x="3100" y="1210" width="80" height="80" as="geometry" />
        </mxCell>
        <mxCell id="FuhKpFBaoV_LeuCqC9Cw-192" value="1" style="text;html=1;align=center;verticalAlign=middle;resizable=0;points=[];autosize=1;strokeColor=none;fillColor=none;" parent="1" vertex="1">
          <mxGeometry x="3035" y="1230" width="30" height="30" as="geometry" />
        </mxCell>
        <mxCell id="FuhKpFBaoV_LeuCqC9Cw-196" style="edgeStyle=orthogonalEdgeStyle;rounded=0;orthogonalLoop=1;jettySize=auto;html=1;" parent="1" source="FuhKpFBaoV_LeuCqC9Cw-193" edge="1">
          <mxGeometry relative="1" as="geometry">
            <mxPoint x="3140" y="1340" as="targetPoint" />
            <Array as="points">
              <mxPoint x="3000" y="1340" />
            </Array>
          </mxGeometry>
        </mxCell>
        <mxCell id="FuhKpFBaoV_LeuCqC9Cw-193" value="cout&amp;lt;&amp;lt;i&amp;lt;&amp;lt;&quot;: нет элементов&quot;;" style="shape=parallelogram;perimeter=parallelogramPerimeter;whiteSpace=wrap;html=1;fixedSize=1;" parent="1" vertex="1">
          <mxGeometry x="2910" y="1300" width="180" height="20" as="geometry" />
        </mxCell>
        <mxCell id="FuhKpFBaoV_LeuCqC9Cw-195" value="0" style="text;html=1;align=center;verticalAlign=middle;resizable=0;points=[];autosize=1;strokeColor=none;fillColor=none;" parent="1" vertex="1">
          <mxGeometry x="3195" y="1228" width="30" height="30" as="geometry" />
        </mxCell>
        <mxCell id="FuhKpFBaoV_LeuCqC9Cw-197" value="" style="endArrow=classic;html=1;rounded=0;" parent="1" target="FuhKpFBaoV_LeuCqC9Cw-198" edge="1">
          <mxGeometry width="50" height="50" relative="1" as="geometry">
            <mxPoint x="3140" y="1340" as="sourcePoint" />
            <mxPoint x="3140" y="1370" as="targetPoint" />
          </mxGeometry>
        </mxCell>
        <mxCell id="FuhKpFBaoV_LeuCqC9Cw-199" style="edgeStyle=orthogonalEdgeStyle;rounded=0;orthogonalLoop=1;jettySize=auto;html=1;entryX=0;entryY=0.5;entryDx=0;entryDy=0;" parent="1" source="FuhKpFBaoV_LeuCqC9Cw-198" target="FuhKpFBaoV_LeuCqC9Cw-175" edge="1">
          <mxGeometry relative="1" as="geometry">
            <mxPoint x="3140" y="1450" as="targetPoint" />
            <Array as="points">
              <mxPoint x="3140" y="1450" />
              <mxPoint x="2900" y="1450" />
              <mxPoint x="2900" y="949" />
            </Array>
          </mxGeometry>
        </mxCell>
        <mxCell id="FuhKpFBaoV_LeuCqC9Cw-198" value="cout&amp;lt;&amp;lt;endl;" style="shape=parallelogram;perimeter=parallelogramPerimeter;whiteSpace=wrap;html=1;fixedSize=1;" parent="1" vertex="1">
          <mxGeometry x="3090" y="1370" width="100" height="20" as="geometry" />
        </mxCell>
        <mxCell id="FuhKpFBaoV_LeuCqC9Cw-201" value="0" style="text;html=1;align=center;verticalAlign=middle;resizable=0;points=[];autosize=1;strokeColor=none;fillColor=none;" parent="1" vertex="1">
          <mxGeometry x="3215" y="918" width="30" height="30" as="geometry" />
        </mxCell>
        <mxCell id="FuhKpFBaoV_LeuCqC9Cw-203" style="edgeStyle=orthogonalEdgeStyle;rounded=0;orthogonalLoop=1;jettySize=auto;html=1;" parent="1" source="FuhKpFBaoV_LeuCqC9Cw-202" target="FuhKpFBaoV_LeuCqC9Cw-205" edge="1">
          <mxGeometry relative="1" as="geometry">
            <mxPoint x="3140" y="1550" as="targetPoint" />
          </mxGeometry>
        </mxCell>
        <mxCell id="FuhKpFBaoV_LeuCqC9Cw-202" value="cout&amp;lt;&amp;lt;khash&amp;lt;&amp;lt;endl;" style="shape=parallelogram;perimeter=parallelogramPerimeter;whiteSpace=wrap;html=1;fixedSize=1;" parent="1" vertex="1">
          <mxGeometry x="3070" y="1500" width="140" height="30" as="geometry" />
        </mxCell>
        <mxCell id="FuhKpFBaoV_LeuCqC9Cw-206" style="edgeStyle=orthogonalEdgeStyle;rounded=0;orthogonalLoop=1;jettySize=auto;html=1;" parent="1" source="FuhKpFBaoV_LeuCqC9Cw-205" target="FuhKpFBaoV_LeuCqC9Cw-208" edge="1">
          <mxGeometry relative="1" as="geometry">
            <mxPoint x="3140" y="1600" as="targetPoint" />
          </mxGeometry>
        </mxCell>
        <mxCell id="FuhKpFBaoV_LeuCqC9Cw-210" style="edgeStyle=orthogonalEdgeStyle;rounded=0;orthogonalLoop=1;jettySize=auto;html=1;" parent="1" source="FuhKpFBaoV_LeuCqC9Cw-205" target="FuhKpFBaoV_LeuCqC9Cw-212" edge="1">
          <mxGeometry relative="1" as="geometry">
            <mxPoint x="3140" y="1680" as="targetPoint" />
            <Array as="points">
              <mxPoint x="3241" y="1560" />
              <mxPoint x="3241" y="1650" />
              <mxPoint x="3140" y="1650" />
              <mxPoint x="3140" y="1670" />
            </Array>
          </mxGeometry>
        </mxCell>
        <mxCell id="FuhKpFBaoV_LeuCqC9Cw-205" value="for(int i=0;i&amp;lt;n;i++)" style="shape=hexagon;perimeter=hexagonPerimeter2;whiteSpace=wrap;html=1;fixedSize=1;" parent="1" vertex="1">
          <mxGeometry x="3080" y="1550" width="120" height="20" as="geometry" />
        </mxCell>
        <mxCell id="FuhKpFBaoV_LeuCqC9Cw-207" value="1" style="text;html=1;align=center;verticalAlign=middle;resizable=0;points=[];autosize=1;strokeColor=none;fillColor=none;" parent="1" vertex="1">
          <mxGeometry x="3115" y="1568" width="30" height="30" as="geometry" />
        </mxCell>
        <mxCell id="FuhKpFBaoV_LeuCqC9Cw-209" style="edgeStyle=orthogonalEdgeStyle;rounded=0;orthogonalLoop=1;jettySize=auto;html=1;entryX=0;entryY=0.5;entryDx=0;entryDy=0;" parent="1" source="FuhKpFBaoV_LeuCqC9Cw-208" target="FuhKpFBaoV_LeuCqC9Cw-205" edge="1">
          <mxGeometry relative="1" as="geometry">
            <mxPoint x="3120" y="1670" as="targetPoint" />
            <Array as="points">
              <mxPoint x="3140" y="1640" />
              <mxPoint x="3080" y="1640" />
            </Array>
          </mxGeometry>
        </mxCell>
        <mxCell id="FuhKpFBaoV_LeuCqC9Cw-208" value="delete[] f[i];" style="rounded=0;whiteSpace=wrap;html=1;" parent="1" vertex="1">
          <mxGeometry x="3105" y="1598" width="70" height="26" as="geometry" />
        </mxCell>
        <mxCell id="FuhKpFBaoV_LeuCqC9Cw-211" value="0" style="text;html=1;align=center;verticalAlign=middle;resizable=0;points=[];autosize=1;strokeColor=none;fillColor=none;" parent="1" vertex="1">
          <mxGeometry x="3195" y="1538" width="30" height="30" as="geometry" />
        </mxCell>
        <mxCell id="FuhKpFBaoV_LeuCqC9Cw-213" style="edgeStyle=orthogonalEdgeStyle;rounded=0;orthogonalLoop=1;jettySize=auto;html=1;" parent="1" source="FuhKpFBaoV_LeuCqC9Cw-212" target="FuhKpFBaoV_LeuCqC9Cw-214" edge="1">
          <mxGeometry relative="1" as="geometry">
            <mxPoint x="3140" y="1730" as="targetPoint" />
          </mxGeometry>
        </mxCell>
        <mxCell id="FuhKpFBaoV_LeuCqC9Cw-212" value="delete[]f;" style="rounded=0;whiteSpace=wrap;html=1;" parent="1" vertex="1">
          <mxGeometry x="3110" y="1670" width="60" height="20" as="geometry" />
        </mxCell>
        <mxCell id="FuhKpFBaoV_LeuCqC9Cw-215" style="edgeStyle=orthogonalEdgeStyle;rounded=0;orthogonalLoop=1;jettySize=auto;html=1;" parent="1" source="FuhKpFBaoV_LeuCqC9Cw-214" target="FuhKpFBaoV_LeuCqC9Cw-216" edge="1">
          <mxGeometry relative="1" as="geometry">
            <mxPoint x="3140" y="1760" as="targetPoint" />
          </mxGeometry>
        </mxCell>
        <mxCell id="FuhKpFBaoV_LeuCqC9Cw-214" value="delete[] d;" style="rounded=0;whiteSpace=wrap;html=1;" parent="1" vertex="1">
          <mxGeometry x="3105" y="1710" width="70" height="20" as="geometry" />
        </mxCell>
        <mxCell id="FuhKpFBaoV_LeuCqC9Cw-216" value="return 0;" style="ellipse;whiteSpace=wrap;html=1;" parent="1" vertex="1">
          <mxGeometry x="3080" y="1750" width="120" height="80" as="geometry" />
        </mxCell>
        <mxCell id="FuhKpFBaoV_LeuCqC9Cw-217" value="}" style="text;html=1;align=center;verticalAlign=middle;resizable=0;points=[];autosize=1;strokeColor=none;fillColor=none;" parent="1" vertex="1">
          <mxGeometry x="3125" y="1828" width="30" height="30" as="geometry" />
        </mxCell>
      </root>
    </mxGraphModel>
  </diagram>
</mxfile>
